STARTFONT 2.1
FONT -HP-Sung-Medium-R-Normal--24-240-75-75-C-240-CNS11643.1992-3
SIZE 24 75 75
FONTBOUNDINGBOX 24 24 0 -2

STARTPROPERTIES 23
FONTNAME_REGISTRY ""
FOUNDRY "HP"
FAMILY_NAME "Sung"
WEIGHT_NAME "Medium"
SLANT "R"
SETWIDTH_NAME "Normal"
ADD_STYLE_NAME ""
PIXEL_SIZE 24
POINT_SIZE 240
RESOLUTION_X 75
RESOLUTION_Y 75
SPACING "C"
AVERAGE_WIDTH 240
CHARSET_REGISTRY "CNS11643.1992"
CHARSET_ENCODING "3"
COPYRIGHT "Copyright (c) 1994 Hewlett-Packard Company."
_HP_ASXVERSION "@(#) ASX 3.00 $Revision: 13.9 $ sungX24n3"
WEIGHT 10
X_HEIGHT 13
QUAD_WIDTH 24
DEFAULT_CHAR 25159
FONT_DESCENT 2
FONT_ASCENT 22
ENDPROPERTIES

CHARS 6149

STARTCHAR cns3_2121
ENCODING 8481
SWIDTH 960 0
DWIDTH 24 0
BBX 24 24 0 -2
BITMAP
000000
001C00
001800
001800
001800
001800
001800
001800
001800
001800
001800
001800
001800
001800
001800
001800
001800
001800
001800
001800
001800
001800
001800
000000
ENDCHAR

STARTCHAR cns3_2122
ENCODING 8482
SWIDTH 960 0
DWIDTH 24 0
BBX 24 24 0 -2
BITMAP
000000
000000
000000
000000
000000
000000
000000
000000
000000
003000
001800
000C00
000E00
000600
000600
000000
000000
000000
000000
000000
000000
000000
000000
000000
ENDCHAR

STARTCHAR cns3_2123
ENCODING 8483
SWIDTH 960 0
DWIDTH 24 0
BBX 24 24 0 -2
BITMAP
000000
000000
000E00
000C00
000C00
000C00
000C00
000C00
000C00
000C00
000C00
000C00
000C00
001800
001800
001800
003000
003000
006000
006000
00C000
018000
070000
000000
ENDCHAR

STARTCHAR cns3_2124
ENCODING 8484
SWIDTH 960 0
DWIDTH 24 0
BBX 24 24 0 -2
BITMAP
000000
000700
000600
000600
000600
000600
000600
000600
000600
000600
000600
000600
000600
000600
000600
000600
000600
000600
000600
000600
000600
007E00
001C00
000000
ENDCHAR

STARTCHAR cns3_2125
ENCODING 8485
SWIDTH 960 0
DWIDTH 24 0
BBX 24 24 0 -2
BITMAP
000000
00000C
7FFFFE
003000
003000
003000
003000
003000
003000
003000
003000
003000
003000
003000
003000
003000
003000
003000
003000
003000
003000
003000
003000
000000
ENDCHAR

STARTCHAR cns3_2126
ENCODING 8486
SWIDTH 960 0
DWIDTH 24 0
BBX 24 24 0 -2
BITMAP
000000
001C00
001800
001800
001800
001800
001800
001800
001800
001800
001800
001800
001800
001800
001800
001800
001800
001800
001800
001800
00180C
7FFFFE
000000
000000
ENDCHAR

STARTCHAR cns3_2127
ENCODING 8487
SWIDTH 960 0
DWIDTH 24 0
BBX 24 24 0 -2
BITMAP
000000
20000C
3FFFFE
30000C
30000C
30000C
30000C
30000C
30000C
30000C
30000C
30000C
30000C
30000C
30000C
30000C
30000C
30000C
30000C
30000C
30000C
3000FC
300038
000000
ENDCHAR

STARTCHAR cns3_2128
ENCODING 8488
SWIDTH 960 0
DWIDTH 24 0
BBX 24 24 0 -2
BITMAP
000000
000000
000000
000000
000000
000000
000000
000000
20000C
3FFFFE
30000C
30000C
600008
000000
000000
000000
000000
000000
000000
000000
000000
000000
000000
000000
ENDCHAR

STARTCHAR cns3_2129
ENCODING 8489
SWIDTH 960 0
DWIDTH 24 0
BBX 24 24 0 -2
BITMAP
000000
000000
000018
7FFFFC
180000
180000
180000
180000
180000
180000
180000
180000
180000
180000
180000
180000
180000
180000
180000
180000
1C000C
0FFFFE
000000
000000
ENDCHAR

STARTCHAR cns3_212A
ENCODING 8490
SWIDTH 960 0
DWIDTH 24 0
BBX 24 24 0 -2
BITMAP
000000
0100C0
01FFE0
0180C0
0180C0
0180C0
0180C0
0180C0
0180C0
0180C0
0180C0
0180C0
0180C0
0180C0
0180C0
0180C0
018FC0
018380
018000
018000
018000
018000
018000
000000
ENDCHAR

STARTCHAR cns3_212B
ENCODING 8491
SWIDTH 960 0
DWIDTH 24 0
BBX 24 24 0 -2
BITMAP
000000
000000
000000
000000
000000
003800
003000
003000
003000
003000
006000
006000
006000
00C060
00C030
018018
030FFC
3FF80C
18000C
000000
000000
000000
000000
000000
ENDCHAR

STARTCHAR cns3_212C
ENCODING 8492
SWIDTH 960 0
DWIDTH 24 0
BBX 24 24 0 -2
BITMAP
000000
003800
003800
003800
003C00
006600
00C300
018180
031CE0
061878
1C183E
70181C
001800
001800
001800
001800
001800
001800
001800
001800
001800
001800
001800
000000
ENDCHAR

STARTCHAR cns3_212D
ENCODING 8493
SWIDTH 960 0
DWIDTH 24 0
BBX 24 24 0 -2
BITMAP
000000
01C000
018000
01800C
03FFFE
030C00
060C00
060C00
0C0C00
180C00
000C00
000C00
000C00
000C00
000C00
000C00
000C00
000C00
000C00
000C00
000C00
00FC00
001800
000000
ENDCHAR

STARTCHAR cns3_212E
ENCODING 8494
SWIDTH 960 0
DWIDTH 24 0
BBX 24 24 0 -2
BITMAP
000000
000070
006060
043060
041860
0618C0
020CC0
030CC0
010180
018180
008300
00C300
004600
006600
003C00
003C00
007C00
006600
00C380
0381E0
0E0078
38001E
000000
000000
ENDCHAR

STARTCHAR cns3_212F
ENCODING 8495
SWIDTH 960 0
DWIDTH 24 0
BBX 24 24 0 -2
BITMAP
000000
000C00
001E00
003800
006000
01C000
008300
00FF80
00C300
00C300
00C300
00C300
00C300
00C300
00C300
00C300
018304
018304
018304
030306
06038E
0C01FC
380000
000000
ENDCHAR

STARTCHAR cns3_2130
ENCODING 8496
SWIDTH 960 0
DWIDTH 24 0
BBX 24 24 0 -2
BITMAP
000000
000E00
038C00
030C00
030C00
030C00
060C00
060C00
060C00
0C0C00
1FFC00
001800
001800
003C00
003C00
006600
006600
00C300
00C180
0180C0
030070
06003E
1C0018
000000
ENDCHAR

STARTCHAR cns3_2131
ENCODING 8497
SWIDTH 960 0
DWIDTH 24 0
BBX 24 24 0 -2
BITMAP
000000
000030
1FFFF8
000000
000000
000000
00000C
3FFFFE
006000
006000
00C000
00C030
01FFF8
018030
030030
000030
000030
000030
000060
000060
0000E0
003FC0
000380
000000
ENDCHAR

STARTCHAR cns3_2132
ENCODING 8498
SWIDTH 960 0
DWIDTH 24 0
BBX 24 24 0 -2
BITMAP
000000
000000
001800
001800
003C00
003C00
006600
004200
00C300
018180
0300C0
060060
0C0038
18001C
70000E
000000
000000
000000
000000
000000
00000C
3FFFFE
000000
000000
ENDCHAR

STARTCHAR cns3_2133
ENCODING 8499
SWIDTH 960 0
DWIDTH 24 0
BBX 24 24 0 -2
BITMAP
000000
000000
380000
300E00
300C00
300C00
300C00
300C00
300C00
300C00
301E00
301E00
301B00
303300
303180
3061C0
30C0E0
318070
33003C
360018
380000
1FFFFC
000000
000000
ENDCHAR

STARTCHAR cns3_2134
ENCODING 8500
SWIDTH 960 0
DWIDTH 24 0
BBX 24 24 0 -2
BITMAP
000000
000000
380600
30FF00
300600
300600
300600
300600
300E00
300F00
301F00
301B00
303180
303180
3060C0
3060C0
30C060
318070
33003C
300018
380000
1FFFFC
000000
000000
ENDCHAR

STARTCHAR cns3_2135
ENCODING 8501
SWIDTH 960 0
DWIDTH 24 0
BBX 24 24 0 -2
BITMAP
000000
001C00
001800
001800
009B00
00FF80
00C300
00C300
00C300
00C300
00C300
00C300
00C300
00C300
00C300
00C304
018304
018304
018304
030306
06038E
1C01FC
700000
000000
ENDCHAR

STARTCHAR cns3_2136
ENCODING 8502
SWIDTH 960 0
DWIDTH 24 0
BBX 24 24 0 -2
BITMAP
000000
000018
07FFFC
000C18
000C18
000C18
000C18
018C18
00CC18
006C18
003C18
001C18
001C18
001E18
003F18
003398
0061D8
006078
00C03C
01803E
030076
0607E0
0C01C0
000000
ENDCHAR

STARTCHAR cns3_2137
ENCODING 8503
SWIDTH 960 0
DWIDTH 24 0
BBX 24 24 0 -2
BITMAP
000000
070380
060300
060300
060300
060300
063300
7FFB00
063300
063300
063300
063300
063300
063300
0C3300
0C3300
0C3304
0C3304
183304
183304
306306
37E38E
61C1FC
000000
ENDCHAR

STARTCHAR cns3_2138
ENCODING 8504
SWIDTH 960 0
DWIDTH 24 0
BBX 24 24 0 -2
BITMAP
000000
00E1C0
00C180
00C180
00C180
00C180
00C180
00C180
00C18C
7FFFFE
00C180
00C180
00C180
00C180
00C180
00C180
00C180
00C180
00C180
00C180
00C180
00C180
00C180
000000
ENDCHAR

STARTCHAR cns3_2139
ENCODING 8505
SWIDTH 960 0
DWIDTH 24 0
BBX 24 24 0 -2
BITMAP
000000
000000
00E000
00C0C0
00FFE0
0180C0
03C0C0
066180
0C3300
381E00
001E00
007780
01C1F0
07007E
3C0000
000000
000000
000000
000000
000000
000000
000000
000000
000000
ENDCHAR

STARTCHAR cns3_213A
ENCODING 8506
SWIDTH 960 0
DWIDTH 24 0
BBX 24 24 0 -2
BITMAP
000000
003800
007000
00E060
01FFF0
018060
03C0C0
066180
0C3700
301E00
001E00
007780
01C1E0
07003E
3C0000
000000
000000
000000
000000
000000
000000
000000
000000
000000
ENDCHAR

STARTCHAR cns3_213B
ENCODING 8507
SWIDTH 960 0
DWIDTH 24 0
BBX 24 24 0 -2
BITMAP
000000
000000
000000
000000
001C00
001800
10180C
1FFFFE
30000C
30000C
600008
000000
000000
000000
000000
000000
000000
000000
000000
000000
000000
000000
000000
000000
ENDCHAR

STARTCHAR cns3_213C
ENCODING 8508
SWIDTH 960 0
DWIDTH 24 0
BBX 24 24 0 -2
BITMAP
000000
000000
01CE70
018C60
018C60
018C60
0318C0
0318C0
033180
063180
063300
0C6300
0C6300
063180
063180
0318C0
0318C0
018C60
018C60
00C630
00C630
00C630
000000
000000
ENDCHAR

STARTCHAR cns3_213D
ENCODING 8509
SWIDTH 960 0
DWIDTH 24 0
BBX 24 24 0 -2
BITMAP
000000
007000
006000
006000
006000
00C000
00C000
018000
0F0380
070300
038700
01C600
00CE00
007C00
001C00
001800
003000
003060
006030
00C018
018FFC
1FF80C
0C000C
000000
ENDCHAR

STARTCHAR cns3_213E
ENCODING 8510
SWIDTH 960 0
DWIDTH 24 0
BBX 24 24 0 -2
BITMAP
000000
000E00
100C0C
1FFFFE
180000
180000
180000
180000
180000
180000
180000
180000
180000
180000
180000
180000
180000
300000
300000
300000
300000
600000
600000
000000
ENDCHAR

STARTCHAR cns3_213F
ENCODING 8511
SWIDTH 960 0
DWIDTH 24 0
BBX 24 24 0 -2
BITMAP
000000
018000
7FC000
030000
030000
060000
060000
0C0000
0D8000
1FC000
198000
018000
198000
198000
1B0000
3F0000
370000
060000
0F0000
0D8000
18F000
301FFE
60003C
000000
ENDCHAR

STARTCHAR cns3_2140
ENCODING 8512
SWIDTH 960 0
DWIDTH 24 0
BBX 24 24 0 -2
BITMAP
000000
000000
000000
000000
000060
03FFF0
000060
000060
000060
000060
03FFE0
000060
000060
000060
000060
00006C
7FFFFE
000000
000000
000000
000000
000000
000000
000000
ENDCHAR

STARTCHAR cns3_2141
ENCODING 8513
SWIDTH 960 0
DWIDTH 24 0
BBX 24 24 0 -2
BITMAP
000000
000000
007000
006000
006000
006000
006000
00C060
00FFF0
00C060
018060
0180C0
0180C0
0300C0
0300C0
03FF80
060180
060180
000180
000300
00030C
7FFFFE
000000
000000
ENDCHAR

STARTCHAR cns3_2142
ENCODING 8514
SWIDTH 960 0
DWIDTH 24 0
BBX 24 24 0 -2
BITMAP
000000
000000
000180
000300
000600
001C00
007000
01C060
0700C0
000180
000300
000600
001C00
007000
01C030
070060
0000C0
000180
000700
001C00
007000
03C000
1E0000
000000
ENDCHAR

STARTCHAR cns3_2143
ENCODING 8515
SWIDTH 960 0
DWIDTH 24 0
BBX 24 24 0 -2
BITMAP
000000
008180
00FFC0
00C300
00C600
00C600
00C600
00CC00
00CC00
00CC00
00C600
00C600
00C700
00C300
00C300
00C700
00FE00
00CC00
00C000
00C000
00C000
00C000
00C000
000000
ENDCHAR

STARTCHAR cns3_2144
ENCODING 8516
SWIDTH 960 0
DWIDTH 24 0
BBX 24 24 0 -2
BITMAP
000000
000700
0006C0
000660
000630
00060C
3FFFFE
000600
018600
018600
018600
03C600
0EC600
046600
003C00
001C00
001C00
003E00
006300
00C1C0
0380F0
0E003E
78001C
000000
ENDCHAR

STARTCHAR cns3_2145
ENCODING 8517
SWIDTH 960 0
DWIDTH 24 0
BBX 24 24 0 -2
BITMAP
000000
00E380
00C300
01C300
018300
030300
030300
060300
1E3B00
1C3300
0C3300
066300
07E300
03C300
01C300
018300
018300
033304
031B04
061B04
0C7F06
3FCF8E
180DFC
000000
ENDCHAR

STARTCHAR cns3_2146
ENCODING 8518
SWIDTH 960 0
DWIDTH 24 0
BBX 24 24 0 -2
BITMAP
000000
070700
060600
060600
060600
767600
666600
666600
666600
666600
666600
666600
666600
666600
666600
666600
666600
666604
7FE604
606604
600606
00070E
0003FC
000000
ENDCHAR

STARTCHAR cns3_2147
ENCODING 8519
SWIDTH 960 0
DWIDTH 24 0
BBX 24 24 0 -2
BITMAP
000000
001C00
001800
001800
00180C
7FFFFE
00C300
00C300
00C300
00C300
00C300
00C300
00C300
00C300
00C300
018300
018300
018300
030300
030300
060300
0C0300
180300
000000
ENDCHAR

STARTCHAR cns3_2148
ENCODING 8520
SWIDTH 960 0
DWIDTH 24 0
BBX 24 24 0 -2
BITMAP
000000
001C00
001800
001800
20180C
3FFFFE
30180C
30380C
303C0C
303C0C
30760C
30660C
30C38C
3181CC
3300FC
36006C
3C000C
30000C
30000C
30000C
30000C
3001FC
300038
000000
ENDCHAR

STARTCHAR cns3_2149
ENCODING 8521
SWIDTH 960 0
DWIDTH 24 0
BBX 24 24 0 -2
BITMAP
000000
038000
030018
037FFC
061818
061818
0E1818
0E1818
1E0C30
1E0C30
360C30
660660
060660
0606C0
0603C0
060380
060380
060780
0606C0
060C60
063870
06E03C
060018
000000
ENDCHAR

STARTCHAR cns3_214A
ENCODING 8522
SWIDTH 960 0
DWIDTH 24 0
BBX 24 24 0 -2
BITMAP
000000
070000
060700
060600
0C0600
0C0600
0C0600
1C0600
1C0C00
3C0C00
6C0C00
0C0C00
0C1800
0C1860
0C1830
0C1830
0C3018
0C3018
0C300C
0C600C
0C63FE
0DFE06
0CC006
000000
ENDCHAR

STARTCHAR cns3_214B
ENCODING 8523
SWIDTH 960 0
DWIDTH 24 0
BBX 24 24 0 -2
BITMAP
000000
01C0E0
0180C0
0180C0
0180C0
0180C0
0180C0
0180C0
0180C0
0180C0
0180C0
0381E0
03C1E0
03C1E0
066330
066330
063330
0C3618
0C1E18
181C0C
180F0E
301E06
603000
000000
ENDCHAR

STARTCHAR cns3_214C
ENCODING 8524
SWIDTH 960 0
DWIDTH 24 0
BBX 24 24 0 -2
BITMAP
000000
001C00
001800
001800
001800
003C00
003C00
006600
00C300
0181C0
0300F0
0E1C7E
781838
001800
001800
001C00
003C00
003600
006300
00C180
0380E0
0E007E
780030
000000
ENDCHAR

STARTCHAR cns3_214D
ENCODING 8525
SWIDTH 960 0
DWIDTH 24 0
BBX 24 24 0 -2
BITMAP
000000
080018
0FFFFC
0C0018
0C0018
0C0018
0C0018
7FFFFE
0C0018
0C0018
0C0018
0C0018
0C0018
7FFFFE
0C0018
0C0018
0C0018
0C0018
0C0018
0C0018
0C0018
0C01F8
0C0030
000000
ENDCHAR

STARTCHAR cns3_214E
ENCODING 8526
SWIDTH 960 0
DWIDTH 24 0
BBX 24 24 0 -2
BITMAP
000000
080030
0FFFF8
0C1830
0C1830
0C1830
0C1830
0C1830
0C1830
0C1830
0FFFF0
0C0030
0C0030
0C0030
0C0030
0C0030
0C0030
0C0030
0C0030
0C0030
0C0030
0C03F0
0C00E0
000000
ENDCHAR

STARTCHAR cns3_214F
ENCODING 8527
SWIDTH 960 0
DWIDTH 24 0
BBX 24 24 0 -2
BITMAP
000000
10000C
1FFFFE
18000C
18000C
300008
000000
00E380
00C300
00C300
00C300
00C300
00C300
00C300
018300
018300
018300
030304
030304
060306
0C038E
1801FC
700000
000000
ENDCHAR

STARTCHAR cns3_2150
ENCODING 8528
SWIDTH 960 0
DWIDTH 24 0
BBX 24 24 0 -2
BITMAP
000000
00000C
01FFFE
3000C0
1C00C0
0C00C0
0000C0
0300C0
0300C0
0600C0
0600C0
0C00C0
0C00C0
0C00C0
1800C0
7800C0
3800C0
1800C0
1C00C0
1C00C0
1800C0
001FC0
000380
000000
ENDCHAR

STARTCHAR cns3_2151
ENCODING 8529
SWIDTH 960 0
DWIDTH 24 0
BBX 24 24 0 -2
BITMAP
000000
080018
0FFFFC
0C0018
0C0198
0DFFD8
0CC198
0CC198
0CC198
0C6198
0C6318
0C2318
0C3618
0C3618
0C1C18
181C18
181C1A
18361A
18330E
30638E
30C1E6
3380C6
600002
000000
ENDCHAR

STARTCHAR cns3_2152
ENCODING 8530
SWIDTH 960 0
DWIDTH 24 0
BBX 24 24 0 -2
BITMAP
000000
0000C0
0FFFE0
0030C0
0030C0
0030C0
0030C0
0030C0
0630C0
03E0C0
01E0D0
0060D8
0060CC
00E0CE
00C0C6
00C0C6
018180
018180
030180
060380
0C3F00
180600
300000
000000
ENDCHAR

STARTCHAR cns3_2153
ENCODING 8531
SWIDTH 960 0
DWIDTH 24 0
BBX 24 24 0 -2
BITMAP
000000
003800
003000
003000
003000
0030C0
07FFE0
0030C0
0030C0
0030C0
0030C0
0C60D0
0C60D8
1860CC
1860CC
30C0C6
30C0C6
00C0C0
0180C0
0181C0
030180
063F80
1C0F00
000000
ENDCHAR

STARTCHAR cns3_2154
ENCODING 8532
SWIDTH 960 0
DWIDTH 24 0
BBX 24 24 0 -2
BITMAP
000000
0001C0
018180
3FC180
018180
01818C
019FFE
01818C
63018C
33018C
1B018C
1B018C
0E030C
0E030C
06030C
0F030C
0F0618
198618
198618
318C18
60D818
60C1F8
00C030
000000
ENDCHAR

STARTCHAR cns3_2155
ENCODING 8533
SWIDTH 960 0
DWIDTH 24 0
BBX 24 24 0 -2
BITMAP
000000
038000
030000
06000C
07FFFE
0C000C
0C700C
18600C
30600C
60600C
00600C
00600C
00F00C
00D80C
019C0C
018C0C
030718
0603D8
1C0198
000018
000038
0007F0
0000E0
000000
ENDCHAR

STARTCHAR cns3_2156
ENCODING 8534
SWIDTH 960 0
DWIDTH 24 0
BBX 24 24 0 -2
BITMAP
000000
038000
030000
030000
06000C
07FFFE
0C000C
0C000C
18000C
18E00C
30380C
600E0C
00060C
00000C
00000C
00070C
003C0C
01E018
078018
060018
000038
0003F0
0000E0
000000
ENDCHAR

STARTCHAR cns3_2157
ENCODING 8535
SWIDTH 960 0
DWIDTH 24 0
BBX 24 24 0 -2
BITMAP
000000
000000
000018
7FFFFC
180000
180060
180060
19C0C0
1860C0
183180
181B80
180F00
180600
180F00
181980
1830C0
186060
18C030
1B8030
180000
1C000C
0FFFFE
000000
000000
ENDCHAR

STARTCHAR cns3_2158
ENCODING 8536
SWIDTH 960 0
DWIDTH 24 0
BBX 24 24 0 -2
BITMAP
000000
0701C0
060180
060180
060180
06018C
06DFFE
7FE18C
06018C
06018C
06018C
06018C
06018C
06030C
06030C
06030C
06030C
06060C
060618
060C18
061830
0633F0
0660E0
000000
ENDCHAR

STARTCHAR cns3_2159
ENCODING 8537
SWIDTH 960 0
DWIDTH 24 0
BBX 24 24 0 -2
BITMAP
000000
007000
006000
0060C0
1FFFE0
0060C0
0060C0
00C0C0
00C0C4
0180C6
031CE6
0E187C
381800
001800
00180C
7FFFFE
001800
001800
001800
001800
001800
001800
001800
000000
ENDCHAR

STARTCHAR cns3_215A
ENCODING 8538
SWIDTH 960 0
DWIDTH 24 0
BBX 24 24 0 -2
BITMAP
000000
00E380
00C300
00C300
00C300
00C300
00C300
00C300
00C300
00C318
1FC3FC
00C300
00C300
00C300
00C300
00C300
00C300
00C300
00C300
00C300
00C300
00C300
00C300
000000
ENDCHAR

STARTCHAR cns3_215B
ENCODING 8539
SWIDTH 960 0
DWIDTH 24 0
BBX 24 24 0 -2
BITMAP
000000
10000C
1FFFFE
180700
180600
180600
180618
18FFFC
180618
180618
180618
180618
180618
180C18
180C18
180C18
301818
301818
303030
306070
30C3E0
6380C0
600000
000000
ENDCHAR

STARTCHAR cns3_215C
ENCODING 8540
SWIDTH 960 0
DWIDTH 24 0
BBX 24 24 0 -2
BITMAP
000000
003800
003000
003000
00300C
1FFFFE
006000
006000
006000
00C380
00C300
00C300
018600
018600
030C00
030C00
061860
061830
0C3018
18600C
30C3FE
03FE06
018006
000000
ENDCHAR

STARTCHAR cns3_215D
ENCODING 8541
SWIDTH 960 0
DWIDTH 24 0
BBX 24 24 0 -2
BITMAP
000000
003800
003000
003000
003000
006000
006060
00C030
018018
030FFC
3FF80E
000006
003800
003000
003000
003000
006000
006060
00C030
018018
031FFC
3FF00E
000006
000000
ENDCHAR

STARTCHAR cns3_215E
ENCODING 8542
SWIDTH 960 0
DWIDTH 24 0
BBX 24 24 0 -2
BITMAP
000000
018018
7FDFFC
018618
018618
018618
018618
618618
318630
1B0630
1B0330
0F0360
070360
0701E0
0701C0
0781C0
0D81C0
0CC360
18C670
18CC38
30181E
60700C
000000
000000
ENDCHAR

STARTCHAR cns3_215F
ENCODING 8543
SWIDTH 960 0
DWIDTH 24 0
BBX 24 24 0 -2
BITMAP
000000
000180
1FFFC0
030180
018380
018700
00EE00
007C00
007C00
00EF00
0383C0
0E01F8
000180
1FFFC0
030380
018380
018700
00CE00
007C00
007800
00EE00
0387C0
0E01F8
000000
ENDCHAR

STARTCHAR cns3_2160
ENCODING 8544
SWIDTH 960 0
DWIDTH 24 0
BBX 24 24 0 -2
BITMAP
000000
00E000
00C000
00C00C
1CCFFE
18C60C
18C60C
18C60C
18C318
18C318
18C318
18C330
18C1B0
18C1E0
1BC1E0
1EC0E0
78C0C0
30C1E0
00C370
00C638
00CC1E
00D80C
00C000
000000
ENDCHAR

STARTCHAR cns3_2161
ENCODING 8545
SWIDTH 960 0
DWIDTH 24 0
BBX 24 24 0 -2
BITMAP
000000
000000
001C00
001800
001800
001800
001800
001800
001800
001830
0FFFF8
001800
001800
001800
001800
0018C0
001870
001838
001818
001800
00180C
3FFFFE
000000
000000
ENDCHAR

STARTCHAR cns3_2162
ENCODING 8546
SWIDTH 960 0
DWIDTH 24 0
BBX 24 24 0 -2
BITMAP
000000
000000
001C00
001800
001800
38180E
30180C
30180C
30180C
30180C
30180C
30180C
30180C
3FFFFC
30180C
001800
001800
001800
001800
001800
00180C
7FFFFE
000000
000000
ENDCHAR

STARTCHAR cns3_2163
ENCODING 8547
SWIDTH 960 0
DWIDTH 24 0
BBX 24 24 0 -2
BITMAP
000000
00000C
7FFFFE
001800
001800
001800
081818
0FFFFC
0C1818
0C1818
0C1818
0C1818
0C1818
0C1818
0C1818
0C1818
0C1818
0C19F8
0C1830
001800
001800
001800
001800
000000
ENDCHAR

STARTCHAR cns3_2164
ENCODING 8548
SWIDTH 960 0
DWIDTH 24 0
BBX 24 24 0 -2
BITMAP
000000
000380
000360
000330
000330
00030C
3FFFFE
000300
000300
000300
000300
000300
000300
003180
3FF980
000180
0000C2
0000C2
000062
000062
000036
00001E
00000E
000000
ENDCHAR

STARTCHAR cns3_2165
ENCODING 8549
SWIDTH 960 0
DWIDTH 24 0
BBX 24 24 0 -2
BITMAP
000000
00C000
007000
003800
04000C
07FFFE
06000C
06000C
06000C
06000C
06000C
07FFFC
06000C
060000
060000
060000
0C0000
0C0000
0C0000
180000
180000
300000
600000
000000
ENDCHAR

STARTCHAR cns3_2166
ENCODING 8550
SWIDTH 960 0
DWIDTH 24 0
BBX 24 24 0 -2
BITMAP
000000
000018
07FFFC
000000
000000
04000C
07FFFE
06000C
06000C
06000C
06000C
07FFFC
06000C
060000
060000
060000
0C0000
0C0000
0C0000
180000
180000
300000
600000
000000
ENDCHAR

STARTCHAR cns3_2167
ENCODING 8551
SWIDTH 960 0
DWIDTH 24 0
BBX 24 24 0 -2
BITMAP
000000
003800
003000
003180
003FC0
003000
003000
003060
1FFFF0
030060
030060
0180C0
0180C0
00C180
006300
007600
003C00
003800
007E00
00C600
038380
0E01E0
38007C
000000
ENDCHAR

STARTCHAR cns3_2168
ENCODING 8552
SWIDTH 960 0
DWIDTH 24 0
BBX 24 24 0 -2
BITMAP
000000
007000
006000
00E000
00C018
01FFFC
038060
07C060
0EC0C0
3860C0
0060C0
003180
003B80
001F00
000E00
003B80
0071E0
01C078
07803F
3E000E
000000
000000
000000
000000
ENDCHAR

STARTCHAR cns3_2169
ENCODING 8553
SWIDTH 960 0
DWIDTH 24 0
BBX 24 24 0 -2
BITMAP
000000
000018
1FFFFC
000C00
000C00
000C00
000C00
000C00
000C0C
7FFFFE
001800
001800
001F00
003600
003600
006600
006604
00C604
018604
030604
060606
1C070E
7003FC
000000
ENDCHAR

STARTCHAR cns3_216A
ENCODING 8554
SWIDTH 960 0
DWIDTH 24 0
BBX 24 24 0 -2
BITMAP
000000
000018
3FFFFC
000C00
070C00
060C00
060C00
060C00
0C0C00
0C0C0C
0FFFFE
180C00
186C00
003C00
001C00
000E00
000F80
000DE0
000CFC
000C60
01FC00
003800
000000
000000
ENDCHAR

STARTCHAR cns3_216B
ENCODING 8555
SWIDTH 960 0
DWIDTH 24 0
BBX 24 24 0 -2
BITMAP
000000
070000
060000
060000
060030
0FFFF8
0C1800
181800
181800
301800
001800
001800
001860
0FFFF0
001800
001800
001800
001800
001800
001800
001800
00180C
3FFFFE
000000
ENDCHAR

STARTCHAR cns3_216C
ENCODING 8556
SWIDTH 960 0
DWIDTH 24 0
BBX 24 24 0 -2
BITMAP
000000
001C00
001800
1C181C
181818
181818
181818
181818
1FFFF8
180018
180018
000000
000000
000060
0FFFF0
000000
000000
000000
000000
000000
000000
00000C
7FFFFE
000000
ENDCHAR

STARTCHAR cns3_216D
ENCODING 8557
SWIDTH 960 0
DWIDTH 24 0
BBX 24 24 0 -2
BITMAP
000000
038018
033FFC
030300
060300
060300
0E0300
0E0300
1E0300
1E030C
36FFFE
060300
060300
060300
060300
060300
060300
060300
060300
060300
060300
060300
060300
000000
ENDCHAR

STARTCHAR cns3_216E
ENCODING 8558
SWIDTH 960 0
DWIDTH 24 0
BBX 24 24 0 -2
BITMAP
000000
070700
060600
060600
0C0600
0C0600
1C0600
1C0618
3CFFFC
3C0600
6C0600
0C0600
0C0E00
0C0F00
0C0D80
0C1980
0C18C0
0C30E0
0C7070
0C6038
0CC03E
0D8018
0C0000
000000
ENDCHAR

STARTCHAR cns3_216F
ENCODING 8559
SWIDTH 960 0
DWIDTH 24 0
BBX 24 24 0 -2
BITMAP
000000
074060
067FF0
066060
066060
0C6060
0C6060
1C6060
1C6060
3C6C60
6C6660
0C6760
0C6360
0C6360
0C6060
0C6060
0CC060
0CC060
0CC064
0CC064
0D8066
0D8066
0F003C
000000
ENDCHAR

STARTCHAR cns3_2170
ENCODING 8560
SWIDTH 960 0
DWIDTH 24 0
BBX 24 24 0 -2
BITMAP
000000
003800
003000
003000
003060
003FF0
003000
003000
003000
00300C
7FFFFE
000000
003800
003000
003000
003800
007800
006C00
00C600
018380
0301E0
0E00FC
380070
000000
ENDCHAR

STARTCHAR cns3_2171
ENCODING 8561
SWIDTH 960 0
DWIDTH 24 0
BBX 24 24 0 -2
BITMAP
000000
03800C
037FFE
030C60
060C60
060C60
0E0C60
0E0C60
1E0C60
1E0C60
360C60
060C60
060C60
060C60
060C60
061860
061860
061864
063064
063064
066066
06C066
07803C
000000
ENDCHAR

STARTCHAR cns3_2172
ENCODING 8562
SWIDTH 960 0
DWIDTH 24 0
BBX 24 24 0 -2
BITMAP
000000
070000
0601C0
060180
060180
0C0180
0C0180
1C1D80
1C19A0
3C19B0
6C1998
0C3198
0C318C
0C618C
0C618E
0CC186
0D8186
0C0180
0C0180
0C0180
0C0180
0C1F80
0C0700
000000
ENDCHAR

STARTCHAR cns3_2173
ENCODING 8563
SWIDTH 960 0
DWIDTH 24 0
BBX 24 24 0 -2
BITMAP
000000
038380
030300
030600
03060C
060FFE
060C0C
0E180C
0E180C
1E3C18
366E18
66C730
0603B0
0601E0
060060
0600C0
0600C0
060180
060300
060600
060C00
063800
06E000
000000
ENDCHAR

STARTCHAR cns3_2174
ENCODING 8564
SWIDTH 960 0
DWIDTH 24 0
BBX 24 24 0 -2
BITMAP
000000
038380
030300
030300
060300
060600
0E0600
0E060C
1EFFFE
1E0C30
360C30
061830
061830
063030
063060
067C60
0667C0
0601C0
0603F0
060638
060C1C
06380E
06E00E
000000
ENDCHAR

STARTCHAR cns3_2175
ENCODING 8565
SWIDTH 960 0
DWIDTH 24 0
BBX 24 24 0 -2
BITMAP
000000
001C00
001800
003800
003C00
006600
00C300
0181C0
030CE0
061C78
0C381E
38E000
038180
000780
001E00
007800
01E000
0F0030
0000F0
0003C0
001F00
00F800
1FC000
000000
ENDCHAR

STARTCHAR cns3_2176
ENCODING 8566
SWIDTH 960 0
DWIDTH 24 0
BBX 24 24 0 -2
BITMAP
000000
00E000
003000
001800
003C00
006600
00C300
018180
0300E0
060078
1C01BE
77FFD8
001800
001800
001800
001800
001800
001800
001800
001800
001800
001818
3FFFFC
000000
ENDCHAR

STARTCHAR cns3_2177
ENCODING 8567
SWIDTH 960 0
DWIDTH 24 0
BBX 24 24 0 -2
BITMAP
000000
20000C
3FFFFE
30000C
32018C
33FFCC
33018C
33018C
33018C
33018C
33018C
33FF8C
33018C
33004C
33004C
33006C
3380EC
31FFCC
30000C
30000C
30001C
3001F8
300030
000000
ENDCHAR

STARTCHAR cns3_2178
ENCODING 8568
SWIDTH 960 0
DWIDTH 24 0
BBX 24 24 0 -2
BITMAP
000000
10000C
1FFFFE
18000C
18000C
18000C
19018C
19FFCC
19818C
19818C
19818C
19818C
19818C
19818C
19818C
19FF8C
19818C
19818C
18000C
18000C
18001C
1801F8
180070
000000
ENDCHAR

STARTCHAR cns3_2179
ENCODING 8569
SWIDTH 960 0
DWIDTH 24 0
BBX 24 24 0 -2
BITMAP
000000
10C860
1FEFF0
18CC60
18CC60
18CC60
18CC60
18CC60
18CC60
18CC6C
7FFFFE
18CC60
18CC60
18CC60
18CC60
18CC60
18CC60
18CC60
18CC60
18CC60
18CC60
1BCDE0
198CC0
000000
ENDCHAR

STARTCHAR cns3_217A
ENCODING 8570
SWIDTH 960 0
DWIDTH 24 0
BBX 24 24 0 -2
BITMAP
000000
10000C
3FFFFE
30001C
638030
630000
030000
030060
07FFF0
060000
0C0060
0FFFF0
180060
000060
00006C
7FFFFE
0000C0
0000C0
0000C0
0001C0
000180
001F80
000600
000000
ENDCHAR

STARTCHAR cns3_217B
ENCODING 8571
SWIDTH 960 0
DWIDTH 24 0
BBX 24 24 0 -2
BITMAP
000000
08000C
0FFFFE
0C000C
0C000C
0C000C
0FFFFC
0C000C
0C7FC0
0C60C0
0C60C0
0C60C0
0C60C0
0C60C0
0C60C0
0C60C0
0C60C0
18C0C4
18C0C4
18C0C4
3180C6
3300E6
66007C
000000
ENDCHAR

STARTCHAR cns3_217C
ENCODING 8572
SWIDTH 960 0
DWIDTH 24 0
BBX 24 24 0 -2
BITMAP
000000
070000
06000C
063FFE
06030C
06030C
06C30C
3FE30C
06030C
06030C
06030C
06030C
06060C
06060C
06C60C
078C0C
070C0C
7C1818
301818
003018
006038
00C7F0
0380E0
000000
ENDCHAR

STARTCHAR cns3_217D
ENCODING 8573
SWIDTH 960 0
DWIDTH 24 0
BBX 24 24 0 -2
BITMAP
000000
00700E
01E00C
0F81CC
01818C
01818C
01818C
01818C
01998C
7FFD8C
01818C
01818C
01818C
01818C
01818C
01818C
01818C
03018C
03000C
06000C
06001C
0C01F8
180030
000000
ENDCHAR

STARTCHAR cns3_217E
ENCODING 8574
SWIDTH 960 0
DWIDTH 24 0
BBX 24 24 0 -2
BITMAP
000000
070000
06000C
061FFE
0C030C
0C030C
18030C
18E30C
70C30C
71830C
39830C
0F030C
07060C
06060C
0C060C
0D860C
18CC18
30EC18
37FC18
7C7818
603038
0063F0
00C060
000000
ENDCHAR

STARTCHAR cns3_2221
ENCODING 8737
SWIDTH 960 0
DWIDTH 24 0
BBX 24 24 0 -2
BITMAP
000000
20000C
3FFFFE
30000C
301C0C
30180C
3018CC
33FFEC
3018CC
3018CC
3018CC
3018CC
3030CC
3030CC
3030CC
3060CC
3060CC
30C1CC
318F8C
37030C
30000C
3FFFFC
30000C
000000
ENDCHAR

STARTCHAR cns3_2222
ENCODING 8738
SWIDTH 960 0
DWIDTH 24 0
BBX 24 24 0 -2
BITMAP
000000
038000
030000
030000
06000C
07FFFE
06000C
0C1C0C
0D18CC
19FFEC
19800C
31800C
01800C
01800C
01800C
01800C
01800C
018018
01C018
00FFD8
000038
0003F0
000060
000000
ENDCHAR

STARTCHAR cns3_2223
ENCODING 8739
SWIDTH 960 0
DWIDTH 24 0
BBX 24 24 0 -2
BITMAP
000000
038000
030000
06000C
07FFFE
06000C
0C000C
18000C
301C0C
67180C
06180C
06180C
063C0C
06360C
06638C
06C1D8
060018
060198
07FFD8
060018
060038
0007F0
0000E0
000000
ENDCHAR

STARTCHAR cns3_2224
ENCODING 8740
SWIDTH 960 0
DWIDTH 24 0
BBX 24 24 0 -2
BITMAP
000000
038000
030000
06000C
07FFFE
06000C
0C000C
18700C
30600C
60C18C
01FFCC
01838C
03030C
07860C
0DCE0C
18DC18
007818
006018
00C018
018018
030038
0E07F0
0000E0
000000
ENDCHAR

STARTCHAR cns3_2225
ENCODING 8741
SWIDTH 960 0
DWIDTH 24 0
BBX 24 24 0 -2
BITMAP
000000
01C000
018000
018000
03000C
03FFFE
0618CC
0630CC
0C318C
0C618C
19E18C
30E30C
60F30C
019B0C
018F0C
03078C
060DCC
0C187C
18383C
00701E
00E03E
0183F0
0300E0
000000
ENDCHAR

STARTCHAR cns3_2226
ENCODING 8742
SWIDTH 960 0
DWIDTH 24 0
BBX 24 24 0 -2
BITMAP
000000
40001C
7FFFFE
600000
600000
600030
67FFF8
600C00
600C00
600C00
600C00
600C00
600C00
600C00
600C00
600C30
6FFFF8
600000
600000
60000E
7FFFFF
600000
600000
000000
ENDCHAR

STARTCHAR cns3_2227
ENCODING 8743
SWIDTH 960 0
DWIDTH 24 0
BBX 24 24 0 -2
BITMAP
000000
000700
218600
3FC600
318600
318600
318600
318600
318600
318780
3186E0
318678
31861C
31860C
3F8600
318600
300600
000600
000600
000600
000600
000600
000600
000000
ENDCHAR

STARTCHAR cns3_2228
ENCODING 8744
SWIDTH 960 0
DWIDTH 24 0
BBX 24 24 0 -2
BITMAP
000000
00600C
7FF7FE
06060C
06060C
06060C
06060C
06060C
06060C
06060C
06060C
06060C
06060C
06060C
06760C
07C60C
1E067C
780618
600600
000600
000600
000600
000600
000000
ENDCHAR

STARTCHAR cns3_2229
ENCODING 8745
SWIDTH 960 0
DWIDTH 24 0
BBX 24 24 0 -2
BITMAP
000000
10000C
1FFFFE
180000
180030
19FFF8
181800
181800
181800
181830
181FF8
181830
183030
183030
183030
183030
303030
306060
306060
30C0E0
319FC0
630380
6E0000
000000
ENDCHAR

STARTCHAR cns3_222A
ENCODING 8746
SWIDTH 960 0
DWIDTH 24 0
BBX 24 24 0 -2
BITMAP
000000
003800
003000
00300C
7FFFFE
006600
00C300
018180
0300C0
063870
0C303C
383018
007000
006000
006000
00C000
00C0C0
00C060
018030
0307F8
3FFE1C
1C001C
00000C
000000
ENDCHAR

STARTCHAR cns3_222B
ENCODING 8747
SWIDTH 960 0
DWIDTH 24 0
BBX 24 24 0 -2
BITMAP
000000
0000F8
001F80
0FE000
006000
006000
00600C
3FFFFE
006000
006000
00C060
00FFF0
00E060
01E060
01B0C0
0318C0
030D80
060700
0C0F00
0C1D80
1870E0
31C07C
670030
000000
ENDCHAR

STARTCHAR cns3_222C
ENCODING 8748
SWIDTH 960 0
DWIDTH 24 0
BBX 24 24 0 -2
BITMAP
000000
000700
418600
7FC600
618600
618600
618600
618600
618600
618600
618600
618600
618F00
618D80
7F8D80
6198C0
6198C0
003060
003070
006038
00C03E
018018
030000
000000
ENDCHAR

STARTCHAR cns3_222D
ENCODING 8749
SWIDTH 960 0
DWIDTH 24 0
BBX 24 24 0 -2
BITMAP
000000
0001C0
418180
7FC180
618180
618180
618180
618180
61818C
61BFFE
618180
618180
618180
618180
7F8180
618180
618180
000180
000180
000180
000180
000180
000180
000000
ENDCHAR

STARTCHAR cns3_222E
ENCODING 8750
SWIDTH 960 0
DWIDTH 24 0
BBX 24 24 0 -2
BITMAP
000000
020060
03FFF0
030060
030060
030060
03FFE0
030060
000000
000018
1FFFFC
00C000
00C000
018060
07FFF0
060060
000060
000060
0000C0
0000C0
0001C0
003F80
000700
000000
ENDCHAR

STARTCHAR cns3_222F
ENCODING 8751
SWIDTH 960 0
DWIDTH 24 0
BBX 24 24 0 -2
BITMAP
000000
000000
41800C
7FBFFE
61981C
619818
619818
619818
618C18
618C30
618C30
618660
618660
6187C0
7F83C0
618380
618380
0007C0
000E60
001C70
00303C
00601E
01C00C
000000
ENDCHAR

STARTCHAR cns3_2230
ENCODING 8752
SWIDTH 960 0
DWIDTH 24 0
BBX 24 24 0 -2
BITMAP
000000
000E00
000C00
418C00
7FCC00
618C00
618CC0
61FFE0
618CC0
618CC0
618CC0
618CC0
6198C0
6198C0
6198C0
7F98C0
6198C4
6030C4
0030C4
0030C6
0060E6
00C07C
018000
000000
ENDCHAR

STARTCHAR cns3_2231
ENCODING 8753
SWIDTH 960 0
DWIDTH 24 0
BBX 24 24 0 -2
BITMAP
000000
007000
006000
0060C0
1FFFE0
0060C0
0060C0
00C0C4
00C0C4
0180C4
0300C6
0600C6
1C007C
000000
040030
07FFF8
060030
060030
060030
060030
060030
07FFF0
060030
000000
ENDCHAR

STARTCHAR cns3_2232
ENCODING 8754
SWIDTH 960 0
DWIDTH 24 0
BBX 24 24 0 -2
BITMAP
000000
20000C
3FFFFE
30000C
30018C
33FFCC
30C18C
30C18C
30C38C
30C30C
30670C
30660C
303E0C
303C0C
30180C
303C0C
30760C
30E38C
3181EC
3700CC
30000C
3FFFFC
30000C
000000
ENDCHAR

STARTCHAR cns3_2233
ENCODING 8755
SWIDTH 960 0
DWIDTH 24 0
BBX 24 24 0 -2
BITMAP
000000
0E0380
0C0300
0C0300
0C0300
0C030C
0DBFFE
7FC30C
0C030C
0C030C
0C030C
0C030C
0C060C
0C060C
0CC60C
0F8C0C
1E0C18
781818
601818
003018
006038
00C3F0
018060
000000
ENDCHAR

STARTCHAR cns3_2234
ENCODING 8756
SWIDTH 960 0
DWIDTH 24 0
BBX 24 24 0 -2
BITMAP
000000
070380
060300
060300
060300
060300
06C300
3FE300
060300
0603C0
060370
06033C
06030E
060306
066300
07C300
0F0300
3C0300
300300
000300
000300
000300
000300
000000
ENDCHAR

STARTCHAR cns3_2235
ENCODING 8757
SWIDTH 960 0
DWIDTH 24 0
BBX 24 24 0 -2
BITMAP
000000
000000
038000
030070
030060
071860
07FCC0
0618C0
0E18E0
0E31F0
1F3198
1BF31C
31E30C
60E60E
00EC06
01F800
039E00
030780
0601FE
0C0000
380000
000000
000000
000000
ENDCHAR

STARTCHAR cns3_2236
ENCODING 8758
SWIDTH 960 0
DWIDTH 24 0
BBX 24 24 0 -2
BITMAP
000000
038206
0303FF
030306
033306
07FB06
063306
0C3306
0C3306
183306
1C6306
366306
636306
03C306
00C306
01833E
01830C
030300
060300
0C0300
180300
300300
600300
000000
ENDCHAR

STARTCHAR cns3_2237
ENCODING 8759
SWIDTH 960 0
DWIDTH 24 0
BBX 24 24 0 -2
BITMAP
000000
003800
003000
003000
00300C
7FFFFE
003000
007000
007800
007C00
00DC00
01BE00
01B300
033180
0630C0
0C3070
183338
33FF9E
60300C
003000
003000
003000
003000
000000
ENDCHAR

STARTCHAR cns3_2238
ENCODING 8760
SWIDTH 960 0
DWIDTH 24 0
BBX 24 24 0 -2
BITMAP
000000
003800
00300C
7FFFFE
006300
00C180
0180C0
030060
060038
0C001E
19C1CC
318180
018180
018180
018180
018180
018180
018180
030180
030180
030180
060180
060180
000000
ENDCHAR

STARTCHAR cns3_2239
ENCODING 8761
SWIDTH 960 0
DWIDTH 24 0
BBX 24 24 0 -2
BITMAP
000000
000E00
038C00
01CC00
00EC00
000C00
000C00
070C00
038C00
01CC00
000C0C
7FFFFE
001C00
001E00
003200
003300
006180
00C0C0
0180E0
030078
06003E
1C0018
300000
000000
ENDCHAR

STARTCHAR cns3_223A
ENCODING 8762
SWIDTH 960 0
DWIDTH 24 0
BBX 24 24 0 -2
BITMAP
000000
003800
003000
00300C
7FFFFE
006300
00C180
0180C0
030060
060030
0C0038
18001E
670038
060030
060030
060030
060030
060030
060030
060030
060030
07FFF0
060030
000000
ENDCHAR

STARTCHAR cns3_223B
ENCODING 8763
SWIDTH 960 0
DWIDTH 24 0
BBX 24 24 0 -2
BITMAP
000000
07000C
063FFE
060060
060060
06C060
7FE060
0CC060
0CC060
0CC060
18C060
18C060
18C060
398060
318060
3D8060
078060
038060
038060
06C060
0C0060
1807E0
3000C0
000000
ENDCHAR

STARTCHAR cns3_223C
ENCODING 8764
SWIDTH 960 0
DWIDTH 24 0
BBX 24 24 0 -2
BITMAP
000000
001C00
001800
18180C
1FFFFE
38000C
30007C
7FFFF8
018070
0180E0
0180C0
00C1C0
00C180
006300
006300
003600
003E00
001C00
003F00
006380
01C1F0
07007C
180030
000000
ENDCHAR

STARTCHAR cns3_223D
ENCODING 8765
SWIDTH 960 0
DWIDTH 24 0
BBX 24 24 0 -2
BITMAP
000000
001C00
001800
18180E
1FFFFF
38000E
30000C
70E398
00C300
00C300
00C300
00C300
00C300
00C300
00C300
018300
018304
018304
030304
070304
0E0306
180386
7001FC
000000
ENDCHAR

STARTCHAR cns3_223E
ENCODING 8766
SWIDTH 960 0
DWIDTH 24 0
BBX 24 24 0 -2
BITMAP
000000
000070
00C060
1FE060
00C060
00C060
00C06C
00FFFE
10C060
18C060
0CC060
0F9860
078C60
038660
018760
038360
03C060
06E060
0CE060
0C6060
186060
1007E0
0000C0
000000
ENDCHAR

STARTCHAR cns3_223F
ENCODING 8767
SWIDTH 960 0
DWIDTH 24 0
BBX 24 24 0 -2
BITMAP
000000
01C000
018000
030000
03000C
07FFFE
0E0C0C
0C0C18
180C10
300C00
000C00
038C60
030C30
030C30
070C18
060C18
060C1C
0C0C0C
0C0C0C
180C0C
000C00
00FC00
001800
000000
ENDCHAR

STARTCHAR cns3_2240
ENCODING 8768
SWIDTH 960 0
DWIDTH 24 0
BBX 24 24 0 -2
BITMAP
000000
10000C
1FFFFE
18000C
18000C
18000C
1FFFFC
18000C
180030
1FFFF8
18C060
18C060
186060
1860C0
1830C0
183180
181B00
180F00
300F00
301B80
3071E0
31C07C
6E0018
000000
ENDCHAR

STARTCHAR cns3_2241
ENCODING 8769
SWIDTH 960 0
DWIDTH 24 0
BBX 24 24 0 -2
BITMAP
000000
0E1060
0C1FF0
0C1860
0C1860
7DD860
6D9860
6D9860
6D9860
6D9860
6D9860
6D9860
6D9860
6D9860
6D9860
6D9860
6DB064
7FB064
61B064
606066
006066
00C03C
018000
000000
ENDCHAR

STARTCHAR cns3_2242
ENCODING 8770
SWIDTH 960 0
DWIDTH 24 0
BBX 24 24 0 -2
BITMAP
000000
001C00
001800
0E181C
0C1818
0C1818
0C1818
0FFFF8
0C0018
0C0018
001C00
001800
001800
001800
001800
001C00
003600
006700
00C380
0181E0
070078
1C003E
70000C
000000
ENDCHAR

STARTCHAR cns3_2243
ENCODING 8771
SWIDTH 960 0
DWIDTH 24 0
BBX 24 24 0 -2
BITMAP
000000
001C00
001800
0E1838
0C1830
0C1830
0C1830
0FFFF0
0C0030
0CFE30
000C00
000C00
000C00
001E00
001E00
003B00
003300
006180
00C1C0
0180E0
070078
1C003E
30001C
000000
ENDCHAR

STARTCHAR cns3_2244
ENCODING 8772
SWIDTH 960 0
DWIDTH 24 0
BBX 24 24 0 -2
BITMAP
000000
001C00
0E1838
0C1830
0C1830
0C1830
0FFFF0
0C0030
0000C0
3FFFE0
0060C0
0060C0
006180
00618C
00C3FE
00C30E
00C00C
01800C
01800C
03000C
06001C
0C07F8
380070
000000
ENDCHAR

STARTCHAR cns3_2245
ENCODING 8773
SWIDTH 960 0
DWIDTH 24 0
BBX 24 24 0 -2
BITMAP
000000
0000C0
07FFE0
0000C0
0000C0
0000C0
0000C0
0000C0
0400C0
07FFC0
0600C0
060000
060000
060030
07FFF8
060030
060030
060030
060030
060030
07FFF0
060030
060030
000000
ENDCHAR

STARTCHAR cns3_2246
ENCODING 8774
SWIDTH 960 0
DWIDTH 24 0
BBX 24 24 0 -2
BITMAP
000000
070E00
060C00
060C00
060C00
466C00
7FEC00
666C00
666C00
666C00
666C00
666C08
666FF8
666C00
666C00
666C00
666C00
67CC00
060C04
060C04
060C06
060E06
0607FC
000000
ENDCHAR

STARTCHAR cns3_2247
ENCODING 8775
SWIDTH 960 0
DWIDTH 24 0
BBX 24 24 0 -2
BITMAP
000000
000E00
100C0C
1FFFFE
180000
180018
1BFFFC
180600
180600
180600
180600
180600
180600
180600
180600
180600
180600
300600
300600
300600
300600
307E00
600C00
000000
ENDCHAR

STARTCHAR cns3_2248
ENCODING 8776
SWIDTH 960 0
DWIDTH 24 0
BBX 24 24 0 -2
BITMAP
000000
000E00
000C00
100C0C
1FFFFE
180000
180000
180000
180E00
180C00
180C00
180C00
181800
181800
183000
183000
186060
306030
30C018
3187FC
37FE1C
37000C
600000
000000
ENDCHAR

STARTCHAR cns3_2249
ENCODING 8777
SWIDTH 960 0
DWIDTH 24 0
BBX 24 24 0 -2
BITMAP
000000
0003A0
000330
000318
000300
00030C
3FFFFE
000300
000300
000300
003300
1FFB00
000300
000180
000180
000180
000CC4
7FFEC4
000064
000034
00003E
00001E
00000C
000000
ENDCHAR

STARTCHAR cns3_224A
ENCODING 8778
SWIDTH 960 0
DWIDTH 24 0
BBX 24 24 0 -2
BITMAP
000000
038000
03000C
037FFE
03000C
03000C
33000C
1B000C
1F000C
0F000C
03000C
03000C
037FFC
03000C
03000C
03000C
06000C
06000C
06000C
0C000C
0C000C
187FFC
300000
000000
ENDCHAR

STARTCHAR cns3_224B
ENCODING 8779
SWIDTH 960 0
DWIDTH 24 0
BBX 24 24 0 -2
BITMAP
000000
03800C
033FFE
060060
0C0060
180060
338060
030060
060060
060060
0C0060
1C0060
1C0060
2C0060
4C0060
0C0060
0C0060
0C0060
0C0060
0C0060
0C0060
0C0FE0
0C01C0
000000
ENDCHAR

STARTCHAR cns3_224C
ENCODING 8780
SWIDTH 960 0
DWIDTH 24 0
BBX 24 24 0 -2
BITMAP
000000
07000C
063FFE
060060
060060
060060
178060
36C060
36E060
666060
060060
060060
060060
060060
060060
060060
060060
060060
060060
060060
060060
060FE0
0601C0
000000
ENDCHAR

STARTCHAR cns3_224D
ENCODING 8781
SWIDTH 960 0
DWIDTH 24 0
BBX 24 24 0 -2
BITMAP
000000
0E0380
0C0300
0C0300
0C0300
0E030C
2F3FFE
6D830C
6D830C
6C030C
4C030C
0C030C
0C030C
0C030C
0C060C
0C060C
0C0C0C
0C0C0C
0C1818
0C3018
0C6038
0CC7F0
0D80E0
000000
ENDCHAR

STARTCHAR cns3_224E
ENCODING 8782
SWIDTH 960 0
DWIDTH 24 0
BBX 24 24 0 -2
BITMAP
000000
0807C0
0FFFF8
0C0000
0C000C
0FFFFE
0C000C
0C000C
0FFFFC
0C000C
0C0180
0CFFC0
0C0780
0C0E00
0C1C00
181800
183000
186008
18C008
198008
31800C
31C00C
60FFF8
000000
ENDCHAR

STARTCHAR cns3_224F
ENCODING 8783
SWIDTH 960 0
DWIDTH 24 0
BBX 24 24 0 -2
BITMAP
000000
070000
06000C
063FFE
06030C
06C30C
3FE30C
06030C
06030C
06030C
06030C
07860C
07060C
0E060C
3E060C
76060C
060C0C
060C18
061818
063018
066030
7EC7F0
0D80E0
000000
ENDCHAR

STARTCHAR cns3_2250
ENCODING 8784
SWIDTH 960 0
DWIDTH 24 0
BBX 24 24 0 -2
BITMAP
000000
0E0700
0C0600
0C0600
0C0600
0D8600
7FC660
0C3FF0
0C0660
0C0660
0C0660
0F0660
0E0C60
3C0C60
7C0C60
6C0C60
0C0C64
0C0C64
0C1864
0C1866
0C3066
7C603C
18C000
000000
ENDCHAR

STARTCHAR cns3_2251
ENCODING 8785
SWIDTH 960 0
DWIDTH 24 0
BBX 24 24 0 -2
BITMAP
000000
0E0000
0C400C
0C7FFE
0C600C
0C600C
0C600C
0C600C
0C600C
0C600C
0C600C
0C7FFC
0C600C
0C600C
0C600C
0C600C
0C600C
0C600C
0C600C
0C600C
0C7FFC
0C600C
0C600C
000000
ENDCHAR

STARTCHAR cns3_2252
ENCODING 8786
SWIDTH 960 0
DWIDTH 24 0
BBX 24 24 0 -2
BITMAP
000000
001C00
0018C0
001870
001830
00180C
3FFFFE
003C00
003C00
007C00
007E00
00DB00
019B00
019980
0318C0
061860
0C1870
181838
30181E
60180C
001800
001800
001800
000000
ENDCHAR

STARTCHAR cns3_2253
ENCODING 8787
SWIDTH 960 0
DWIDTH 24 0
BBX 24 24 0 -2
BITMAP
000000
000380
000300
000318
0033FC
003B00
003318
007FFC
006038
00C030
018070
03C060
0670E0
1C39C0
001B80
000300
000600
000C00
001800
007000
00C000
038000
1C0000
000000
ENDCHAR

STARTCHAR cns3_2254
ENCODING 8788
SWIDTH 960 0
DWIDTH 24 0
BBX 24 24 0 -2
BITMAP
000000
006000
7FF000
00E380
00C300
01C300
018300
038330
070F70
067FE0
0E0FC0
0C0F80
1C1BC0
181BE0
383370
303338
306334
60C304
603F04
600606
700006
1FFFFC
000000
000000
ENDCHAR

STARTCHAR cns3_2255
ENCODING 8789
SWIDTH 960 0
DWIDTH 24 0
BBX 24 24 0 -2
BITMAP
000000
083800
0E3000
073000
033000
003000
00B000
21B000
39B070
1F31C0
0F3300
033600
033800
063000
063000
063000
0C3000
0C3000
1C3004
1C3004
1C3006
1C3806
0C1FFC
000000
ENDCHAR

STARTCHAR cns3_2256
ENCODING 8790
SWIDTH 960 0
DWIDTH 24 0
BBX 24 24 0 -2
BITMAP
000000
082060
0C3FF0
063060
063060
003060
00B060
20B060
31B060
193060
1B3060
033060
033060
063060
066060
066060
0C6064
0C6064
186064
18C066
18C066
19803C
030000
000000
ENDCHAR

STARTCHAR cns3_2257
ENCODING 8791
SWIDTH 960 0
DWIDTH 24 0
BBX 24 24 0 -2
BITMAP
000000
001C00
001800
041800
061800
039800
019800
00183C
00D870
3FFCE0
00DF80
00DB00
019B80
019980
0318C0
0618E0
0C1870
18183C
30181E
60180C
001800
03F800
003000
000000
ENDCHAR

STARTCHAR cns3_2258
ENCODING 8792
SWIDTH 960 0
DWIDTH 24 0
BBX 24 24 0 -2
BITMAP
000000
080700
0C0600
060600
060600
000600
018600
618600
330600
1B0600
1B0600
060E00
060F00
060D80
0C1980
0C18C0
3C18E0
183060
183070
18603C
1CC01E
1D800C
1A0000
000000
ENDCHAR

STARTCHAR cns3_2259
ENCODING 8793
SWIDTH 960 0
DWIDTH 24 0
BBX 24 24 0 -2
BITMAP
000000
180000
1C000C
0EFFFE
060C00
000C00
010C00
630C00
331800
3A180C
1E3FFE
06700C
0E600C
0C000C
0C000C
1C000C
38000C
380018
180018
180018
180038
1807F0
1000E0
000000
ENDCHAR

STARTCHAR cns3_225A
ENCODING 8794
SWIDTH 960 0
DWIDTH 24 0
BBX 24 24 0 -2
BITMAP
000000
000000
00C700
3FE600
060600
060600
060600
060600
060600
06C600
3FE600
060600
060600
060600
060600
060600
06C600
078604
1E0604
780604
300606
000706
0003FC
000000
ENDCHAR

STARTCHAR cns3_225B
ENCODING 8795
SWIDTH 960 0
DWIDTH 24 0
BBX 24 24 0 -2
BITMAP
000000
000700
000600
04060C
07FFFE
060000
360000
1E0000
1E0000
1E0000
060000
060000
060000
1E0000
3E0000
360000
060000
060000
0C0000
0C0000
180000
300000
600000
000000
ENDCHAR

STARTCHAR cns3_225C
ENCODING 8796
SWIDTH 960 0
DWIDTH 24 0
BBX 24 24 0 -2
BITMAP
000000
000000
001800
1FFCE0
0038C0
007D80
0C6F38
0EC630
078360
0301C0
0600E0
0C007C
380030
000000
000000
000000
000000
000000
000000
000000
000000
000000
000000
000000
ENDCHAR

STARTCHAR cns3_225D
ENCODING 8797
SWIDTH 960 0
DWIDTH 24 0
BBX 24 24 0 -2
BITMAP
000000
00320C
1FFBFE
00330C
003318
007318
106330
186370
0CE360
06E330
07C330
03C318
01C318
01C30C
01E30C
03630C
03730C
06730C
0C337C
0C3318
180300
300300
000300
000000
ENDCHAR

STARTCHAR cns3_225E
ENCODING 8798
SWIDTH 960 0
DWIDTH 24 0
BBX 24 24 0 -2
BITMAP
000000
00320C
7FFBFE
01830C
01831C
018318
018338
018330
018360
018370
018330
018318
01831C
01830C
01830C
01830E
01830E
01830C
01837C
018318
038300
3F0300
060300
000000
ENDCHAR

STARTCHAR cns3_225F
ENCODING 8799
SWIDTH 960 0
DWIDTH 24 0
BBX 24 24 0 -2
BITMAP
000000
08620C
0FF3FE
0C630C
0C6318
0C6318
0C6330
0C6330
0C6360
0C6360
0C6330
0C6318
0C6318
0C6308
0C630C
0C630C
0C630C
0C637C
0C6318
186300
187F00
31F300
60C300
000000
ENDCHAR

STARTCHAR cns3_2260
ENCODING 8800
SWIDTH 960 0
DWIDTH 24 0
BBX 24 24 0 -2
BITMAP
000000
21800C
3FDFFE
3300C0
3300C0
3300C0
3600C0
3600C0
3600C0
3600C0
3300C0
3300C0
3180C0
3180C0
3180C0
3180C0
3F80C0
3300C0
3000C0
3000C0
3000C0
301FC0
300380
000000
ENDCHAR

STARTCHAR cns3_2261
ENCODING 8801
SWIDTH 960 0
DWIDTH 24 0
BBX 24 24 0 -2
BITMAP
000000
00000C
7FFFFE
001800
001800
20180C
3FFFFE
30180C
30180C
30180C
3398EC
3318CC
3318CC
3318CC
3318CC
33FFCC
3300CC
30000C
30000C
30000C
30000C
3001FC
300038
000000
ENDCHAR

STARTCHAR cns3_2262
ENCODING 8802
SWIDTH 960 0
DWIDTH 24 0
BBX 24 24 0 -2
BITMAP
000000
00E380
00C300
00C300
00C300
00C300
00C30E
3FC31C
00C338
00C360
00C3C0
00C300
00C300
01C304
07C304
1CC306
70C386
60C1FC
00C000
000000
00000C
7FFFFE
000000
000000
ENDCHAR

STARTCHAR cns3_2263
ENCODING 8803
SWIDTH 960 0
DWIDTH 24 0
BBX 24 24 0 -2
BITMAP
000000
0000F8
007FC0
0FD800
001800
001800
001830
0FFFF8
001800
001800
001800
00180C
7FFFFE
003000
003000
006180
00C0C0
00C060
018070
0307F8
07FC3C
3F001C
38000C
000000
ENDCHAR

STARTCHAR cns3_2264
ENCODING 8804
SWIDTH 960 0
DWIDTH 24 0
BBX 24 24 0 -2
BITMAP
000000
0381C0
030180
030180
030180
060180
063180
0C1980
0C0D80
19FD80
7F0D80
000180
201980
3FFD80
301980
301980
301980
301984
301984
301984
3FF986
3019C6
3018FC
000000
ENDCHAR

STARTCHAR cns3_2265
ENCODING 8805
SWIDTH 960 0
DWIDTH 24 0
BBX 24 24 0 -2
BITMAP
000000
00E180
00FFC0
018180
030300
060600
000C60
0FFFF0
003060
003060
00306C
7FFFFE
003060
003060
003060
1FFFE0
003060
003000
003000
003000
003000
03F000
006000
000000
ENDCHAR

STARTCHAR cns3_2266
ENCODING 8806
SWIDTH 960 0
DWIDTH 24 0
BBX 24 24 0 -2
BITMAP
000000
000000
000030
1FFFF8
000000
000000
040060
07FFF0
060060
060060
060060
07FFE0
060060
060060
060060
060060
07FFE0
060060
060060
000000
00000C
7FFFFE
000000
000000
ENDCHAR

STARTCHAR cns3_2267
ENCODING 8807
SWIDTH 960 0
DWIDTH 24 0
BBX 24 24 0 -2
BITMAP
000000
070380
060300
060338
06037C
0C0FC0
0C3B00
1C0300
1C0318
3C7FFC
6C0300
0C0300
0C0300
0C030C
0CFFFE
0C0300
0C0300
0C0300
0C0300
0C0300
0C0300
0C0300
0C0300
000000
ENDCHAR

STARTCHAR cns3_2268
ENCODING 8808
SWIDTH 960 0
DWIDTH 24 0
BBX 24 24 0 -2
BITMAP
000000
0701C0
060180
060180
060180
0C1D90
0C1998
1C198C
1C398E
3C3186
6C7180
0C618C
0CC19C
0C0198
0C1FB8
0C0730
0C0060
0C00C0
0C0180
0C0700
0C0C00
0C3800
0CE000
000000
ENDCHAR

STARTCHAR cns3_2269
ENCODING 8809
SWIDTH 960 0
DWIDTH 24 0
BBX 24 24 0 -2
BITMAP
000000
070300
063F80
060300
0C0300
0C830C
1CFFFE
1CC30C
3CC30C
3CC30C
6CC30C
0CC78C
0CC7CC
0CCCEC
0CD87C
0CF04C
0CC00C
0CC00C
0CC00C
0CC00C
0CC00C
0CC0FC
0CC038
000000
ENDCHAR

STARTCHAR cns3_226A
ENCODING 8810
SWIDTH 960 0
DWIDTH 24 0
BBX 24 24 0 -2
BITMAP
000000
070770
060E60
061C60
0C3860
0CF860
1C1860
1C1860
3C1860
3C186C
6DFFFE
0C1860
0C1860
0C1860
0C1860
0C3060
0C3060
0C3060
0C6060
0C6060
0CC060
0D8060
0F0060
000000
ENDCHAR

STARTCHAR cns3_226B
ENCODING 8811
SWIDTH 960 0
DWIDTH 24 0
BBX 24 24 0 -2
BITMAP
000000
038000
030078
0301C0
071F00
060300
0E0300
0E0300
1E0300
1E030C
36FFFE
060300
060300
060380
060780
0606C0
0606E0
060C60
060C30
061838
06301E
06600C
06C000
000000
ENDCHAR

STARTCHAR cns3_226C
ENCODING 8812
SWIDTH 960 0
DWIDTH 24 0
BBX 24 24 0 -2
BITMAP
000000
038E00
030C00
031800
061806
063FFF
0E3776
0E6666
1E6666
1ECE66
360C66
060CC6
0618C6
0618C6
063186
066186
06C306
07860C
060C0C
06180C
063018
0661F8
060070
000000
ENDCHAR

STARTCHAR cns3_226D
ENCODING 8813
SWIDTH 960 0
DWIDTH 24 0
BBX 24 24 0 -2
BITMAP
000000
070018
067FFC
060038
0E0070
0C0CC0
0C0780
1C0380
1C018C
3C7FFE
6C018C
0C018C
0C0198
0C0180
0C0180
0C0180
0C0180
0C0180
0C0180
0C0180
0C0180
0C1F80
0C0700
000000
ENDCHAR

STARTCHAR cns3_226E
ENCODING 8814
SWIDTH 960 0
DWIDTH 24 0
BBX 24 24 0 -2
BITMAP
000000
070000
06000C
06FFFE
0E0300
0C0300
0C0300
1C0300
1C0300
3C0300
6C0318
0C7FFC
0C0300
0C0300
0C0300
0C0300
0C0300
0C0300
0C0300
0C030C
0CFFFE
0C0000
0C0000
000000
ENDCHAR

STARTCHAR cns3_226F
ENCODING 8815
SWIDTH 960 0
DWIDTH 24 0
BBX 24 24 0 -2
BITMAP
000000
07200C
063FFE
063000
0E3000
0C3000
0C3000
1C3018
1C3FFC
3C3C18
6C3C18
0C3C18
0C3618
0C3630
0C6630
0C6360
0C61C0
0C61C0
0CC3C0
0CC760
0D8C38
0C381E
0CE00C
000000
ENDCHAR

STARTCHAR cns3_2270
ENCODING 8816
SWIDTH 960 0
DWIDTH 24 0
BBX 24 24 0 -2
BITMAP
000000
070700
060600
060600
0C060C
0CFFFE
0C0600
1C0600
1C0C00
3C0C18
6C0FFC
0C1E18
0C1E18
0C1E30
0C1B30
0C3360
0C31E0
0C61C0
0C61E0
0CC370
0CC638
0D8C1E
0C380C
000000
ENDCHAR

STARTCHAR cns3_2271
ENCODING 8817
SWIDTH 960 0
DWIDTH 24 0
BBX 24 24 0 -2
BITMAP
000000
071C00
061800
063018
063FFC
0C6000
0C6030
1CDFF8
1D8000
3C0000
6C0060
0CFFF0
0C0060
0C0060
0C0060
0C0070
0C0030
0C0032
0C0032
0C001A
0C001E
0C000E
0C0006
000000
ENDCHAR

STARTCHAR cns3_2272
ENCODING 8818
SWIDTH 960 0
DWIDTH 24 0
BBX 24 24 0 -2
BITMAP
000000
071C00
061800
061800
0C300C
0C3FFE
1C600C
1C600C
3CC00C
3C018C
6C3FCC
0C000C
0C000C
0C000C
0C00CC
0C0318
0C1E18
0C7818
0C6018
0C0018
0C0038
0C07F0
0C00E0
000000
ENDCHAR

STARTCHAR cns3_2273
ENCODING 8819
SWIDTH 960 0
DWIDTH 24 0
BBX 24 24 0 -2
BITMAP
000000
070700
060600
060660
0E7FF0
0C0660
1C0C60
1C0C60
1C0C64
3C1866
6C1BE6
0C333C
0C6300
0CC300
0C030C
0DFFFE
0C0300
0C0300
0C0300
0C0300
0C0300
0C0300
0C0300
000000
ENDCHAR

STARTCHAR cns3_2274
ENCODING 8820
SWIDTH 960 0
DWIDTH 24 0
BBX 24 24 0 -2
BITMAP
000000
0710C0
061FE0
0618C0
0C18C0
0C18C8
1C18C8
1C30CC
3C30CC
3C6078
6CC000
0C0030
0DFFF8
0C3030
0C3060
0C1860
0C18C0
0C0F80
0C0700
0C0F80
0C18E0
0C707E
0DC018
000000
ENDCHAR

STARTCHAR cns3_2275
ENCODING 8821
SWIDTH 960 0
DWIDTH 24 0
BBX 24 24 0 -2
BITMAP
000000
003800
003000
007800
00EC00
01C600
038300
0601C0
0C00F0
18033E
73FF98
000000
000000
000060
3FFFF0
00E000
00C000
00C180
0180C0
0300E0
061FE0
1FF070
1E0030
000000
ENDCHAR

STARTCHAR cns3_2276
ENCODING 8822
SWIDTH 960 0
DWIDTH 24 0
BBX 24 24 0 -2
BITMAP
000000
001C00
001800
003C00
007600
00E300
01C180
0380E0
070078
0E00DE
1BFFEC
730000
030000
030000
030000
0300C0
03FFE0
030000
030000
030000
030060
03FFF0
030000
000000
ENDCHAR

STARTCHAR cns3_2277
ENCODING 8823
SWIDTH 960 0
DWIDTH 24 0
BBX 24 24 0 -2
BITMAP
000000
003800
003000
003000
003800
007800
006C00
00E600
01C300
0301C0
0600F0
1C003E
7701DC
060180
060180
060180
060180
0781C0
0D83C0
0CE760
18E678
307C3E
603018
000000
ENDCHAR

STARTCHAR cns3_2278
ENCODING 8824
SWIDTH 960 0
DWIDTH 24 0
BBX 24 24 0 -2
BITMAP
000000
020180
038FC0
030180
0600C0
0600C0
0CE070
18C03C
30C61E
618380
0181C0
033FE0
1FEC60
198C00
018C00
018C00
018C00
018C08
030C08
060C0C
1C0E0C
7007F8
000000
000000
ENDCHAR

STARTCHAR cns3_2279
ENCODING 8825
SWIDTH 960 0
DWIDTH 24 0
BBX 24 24 0 -2
BITMAP
000000
007000
003800
001C00
003E00
006700
00C380
0181E0
030070
06003E
0C006C
3FFFF0
060060
060060
060060
060060
07FFE0
060060
060060
060060
060060
07FFE0
060060
000000
ENDCHAR

STARTCHAR cns3_227A
ENCODING 8826
SWIDTH 960 0
DWIDTH 24 0
BBX 24 24 0 -2
BITMAP
000000
000030
1FFFF8
001800
001800
001860
0FFFF0
001800
001800
00180C
7FFFFE
000600
003F00
01C600
018300
030300
030180
060180
0600C0
0C00E0
180078
30003E
600018
000000
ENDCHAR

STARTCHAR cns3_227B
ENCODING 8827
SWIDTH 960 0
DWIDTH 24 0
BBX 24 24 0 -2
BITMAP
000000
00000C
7FFFFE
001800
001800
081830
0FFFF8
0C1830
0C1830
0C183C
7FFFFE
0C1830
0C1830
0C1830
0C183C
7FFFFE
0C0030
0C0030
0C0030
0C0030
0C0030
0C03F0
0C0060
000000
ENDCHAR

STARTCHAR cns3_227C
ENCODING 8828
SWIDTH 960 0
DWIDTH 24 0
BBX 24 24 0 -2
BITMAP
000000
000018
307FFC
180060
1C3860
0C3060
033060
037060
06706C
067FFE
0C61E0
0C61E0
0C03E0
180360
180660
380660
180C60
181860
183060
18E060
000060
0007E0
0000C0
000000
ENDCHAR

STARTCHAR cns3_227D
ENCODING 8829
SWIDTH 960 0
DWIDTH 24 0
BBX 24 24 0 -2
BITMAP
000000
000E00
400C00
700C00
380C60
19FFF0
000C60
060C60
040C60
0C0C60
0C0C60
180C6C
1BFFFE
380C00
301C00
701E00
701B00
303380
3031C0
3060E0
30C070
01803E
030018
000000
ENDCHAR

STARTCHAR cns3_227E
ENCODING 8830
SWIDTH 960 0
DWIDTH 24 0
BBX 24 24 0 -2
BITMAP
000000
000380
400300
700300
380300
18830C
00FFFE
06C30C
04C30C
0CC30C
0CC30C
18C30C
18C30C
38FFFC
30C30C
70C30C
700300
300300
300300
300300
300300
000300
000300
000000
ENDCHAR

STARTCHAR cns3_2321
ENCODING 8993
SWIDTH 960 0
DWIDTH 24 0
BBX 24 24 0 -2
BITMAP
000000
000000
2000F8
3803C0
1C3F00
0C0600
000600
030600
020600
06060C
07FFFE
0C0600
0C0600
0C0F00
180F00
380DC0
380CC0
1818E0
181870
183038
18603C
00C01E
038008
000000
ENDCHAR

STARTCHAR cns3_2322
ENCODING 8994
SWIDTH 960 0
DWIDTH 24 0
BBX 24 24 0 -2
BITMAP
000000
080018
0FFFFC
0C0018
0C0018
0C0198
0CFFD8
0C0018
0C0018
0C0018
0C0198
0DFFD8
0C1818
0C1818
081818
183018
18319A
18619A
3060DE
30CFEE
33F86E
638026
600006
000000
ENDCHAR

STARTCHAR cns3_2323
ENCODING 8995
SWIDTH 960 0
DWIDTH 24 0
BBX 24 24 0 -2
BITMAP
000000
000E00
000C00
000C60
03FFF0
000000
38038E
30030C
30470C
30660C
30360C
301E0C
301E0C
301F0C
30338C
3061CC
30C0CC
31800C
33000C
30000C
3FFFFC
30000C
30000C
000000
ENDCHAR

STARTCHAR cns3_2324
ENCODING 8996
SWIDTH 960 0
DWIDTH 24 0
BBX 24 24 0 -2
BITMAP
000000
03800E
03000C
0300EC
0330CC
3FF8CC
0330CC
0330CC
0330CC
0330CC
0330CC
033CCC
7FFECC
0300CC
0300CC
0300CC
0780CC
06C0CC
0C600C
0C300C
18180C
300EFC
600038
000000
ENDCHAR

STARTCHAR cns3_2325
ENCODING 8997
SWIDTH 960 0
DWIDTH 24 0
BBX 24 24 0 -2
BITMAP
000000
07000E
06000C
0C00EC
0C18CC
1FFCCC
1800CC
3030CC
3FF8CC
6000CC
0018CC
0FFCCC
0030CC
0060CC
00C0CC
0180CC
0300CC
0604CC
0C040C
18060C
18060C
0FFCFC
000038
000000
ENDCHAR

STARTCHAR cns3_2326
ENCODING 8998
SWIDTH 960 0
DWIDTH 24 0
BBX 24 24 0 -2
BITMAP
000000
000030
0FFFF8
003030
003030
006030
006060
00C060
00C060
0180C0
030FC0
060380
0C0006
001FFF
7FFCC6
0318C6
0318C6
031986
06398C
06318C
0C330C
19F6FC
306C18
000000
ENDCHAR

STARTCHAR cns3_2327
ENCODING 8999
SWIDTH 960 0
DWIDTH 24 0
BBX 24 24 0 -2
BITMAP
000000
01800E
01C00C
0181CC
01998C
7FFD8C
00018C
00718C
00618C
04618C
06C18C
03C18C
03C18C
01818C
01C18C
03E18C
03618C
06318C
0C300C
0C000C
18000C
3000FC
600038
000000
ENDCHAR

STARTCHAR cns3_2328
ENCODING 9000
SWIDTH 960 0
DWIDTH 24 0
BBX 24 24 0 -2
BITMAP
000000
0000E0
0060C0
3FF0C0
0000C0
0000CC
0007FE
0000CC
0000CC
0030CC
3FF8CC
0600CC
06018C
0C018C
0C018C
0C018C
19818C
18C30C
18630C
33F60C
7E7C18
6039F8
003070
000000
ENDCHAR

STARTCHAR cns3_2329
ENCODING 9001
SWIDTH 960 0
DWIDTH 24 0
BBX 24 24 0 -2
BITMAP
000000
001C00
001800
001818
3FFFFC
001800
001800
001800
039870
031860
030060
030060
03606C
7FF7FE
030060
060060
060060
060060
060060
0C0060
0C0060
180060
300060
000000
ENDCHAR

STARTCHAR cns3_232A
ENCODING 9002
SWIDTH 960 0
DWIDTH 24 0
BBX 24 24 0 -2
BITMAP
000000
001C00
001800
001800
001818
3FFFFC
001800
001800
001800
039870
031860
030060
03006C
7FFFFE
030060
030060
030060
030060
030060
030060
03FFE0
030060
030060
000000
ENDCHAR

STARTCHAR cns3_232B
ENCODING 9003
SWIDTH 960 0
DWIDTH 24 0
BBX 24 24 0 -2
BITMAP
000000
0E0700
0C0600
0C0600
0C0600
0D8660
7FDFF0
0C0660
0C0660
0C0660
0C0660
0C3678
0C6C6C
0C6C6C
0CCC66
0CCC66
0C0C66
0C0C60
0C1860
0C18C0
0C30C0
0C6F80
0CC300
000000
ENDCHAR

STARTCHAR cns3_232C
ENCODING 9004
SWIDTH 960 0
DWIDTH 24 0
BBX 24 24 0 -2
BITMAP
000000
00000C
3FFFFE
000600
001C00
007DC0
01CC78
0F0C1E
780C06
000C00
000000
001800
001800
001800
001800
00180C
7FFFFE
001800
001800
001800
001800
001800
001800
000000
ENDCHAR

STARTCHAR cns3_232D
ENCODING 9005
SWIDTH 960 0
DWIDTH 24 0
BBX 24 24 0 -2
BITMAP
000000
70000C
603FFE
603000
603000
603000
603000
603000
603000
603000
60300C
7FFFFE
60300C
00300C
00300C
00300C
00300C
00300C
00300C
00300C
00300C
7FF00C
00300C
000000
ENDCHAR

STARTCHAR cns3_232E
ENCODING 9006
SWIDTH 960 0
DWIDTH 24 0
BBX 24 24 0 -2
BITMAP
000000
10000C
1FFFFE
180000
180030
1BFFF8
180000
180000
180E00
181C00
181800
183000
19E1C0
18E180
187300
183300
300600
300C00
301860
303070
307FF8
63F818
600000
000000
ENDCHAR

STARTCHAR cns3_232F
ENCODING 9007
SWIDTH 960 0
DWIDTH 24 0
BBX 24 24 0 -2
BITMAP
000000
10000C
1FFFFE
180000
180700
180600
180600
180600
180600
180600
180618
1BFFFC
180600
180600
180600
180660
180670
380638
300618
300600
30060C
6FFFFE
600000
000000
ENDCHAR

STARTCHAR cns3_2330
ENCODING 9008
SWIDTH 960 0
DWIDTH 24 0
BBX 24 24 0 -2
BITMAP
000000
10000C
1FFFFE
180000
180E00
180C00
181F00
181980
1830E0
186078
18C1BE
19BFD8
1B0000
180030
19FFF8
100030
300030
300060
300060
3000C0
200180
600180
600300
000000
ENDCHAR

STARTCHAR cns3_2331
ENCODING 9009
SWIDTH 960 0
DWIDTH 24 0
BBX 24 24 0 -2
BITMAP
000000
000060
1FFFF0
000060
007060
006060
006060
006360
1FFFB2
006032
00601A
00601A
00606E
7FFFF6
00C000
00C000
018600
030700
030380
0601C0
0C3FE0
3FE0E0
300000
000000
ENDCHAR

STARTCHAR cns3_2332
ENCODING 9010
SWIDTH 960 0
DWIDTH 24 0
BBX 24 24 0 -2
BITMAP
000000
001C00
001800
081818
0FFFFC
0C1818
0C1818
0C1818
0FFFF8
0C1818
001800
001800
0018C0
0FFFE0
0180C0
00C180
006300
003600
001C00
003F00
01E3C0
0780FE
3C0038
000000
ENDCHAR

STARTCHAR cns3_2333
ENCODING 9011
SWIDTH 960 0
DWIDTH 24 0
BBX 24 24 0 -2
BITMAP
000000
000180
0FFFC0
030180
030380
018700
00CE00
007C00
007C00
00EF00
0383F0
0E00FC
386030
1FFFF8
007C30
00E630
0CC660
07C3C0
038180
07C3C0
0CCE70
38183E
60E018
000000
ENDCHAR

STARTCHAR cns3_2334
ENCODING 9012
SWIDTH 960 0
DWIDTH 24 0
BBX 24 24 0 -2
BITMAP
000000
000008
21B01E
3FD838
319C70
318E60
318EC0
318780
318380
318300
318300
318300
318300
318300
3F8300
318300
318300
000300
000300
000300
000300
000300
000300
000000
ENDCHAR

STARTCHAR cns3_2335
ENCODING 9013
SWIDTH 960 0
DWIDTH 24 0
BBX 24 24 0 -2
BITMAP
000000
000000
430018
7FBFFC
630180
630180
630180
630180
630180
630180
630180
630180
630180
630180
7F0180
630180
630180
000180
000180
000180
00018C
00FFFE
000000
000000
ENDCHAR

STARTCHAR cns3_2336
ENCODING 9014
SWIDTH 960 0
DWIDTH 24 0
BBX 24 24 0 -2
BITMAP
000000
00180C
419FFE
7FD80C
61980C
61980C
61980C
61980C
619FFC
61980C
619800
619800
619800
7F9800
619800
61B000
003000
003000
003000
006000
006000
00C000
018000
000000
ENDCHAR

STARTCHAR cns3_2337
ENCODING 9015
SWIDTH 960 0
DWIDTH 24 0
BBX 24 24 0 -2
BITMAP
000000
00003C
4300F0
7F8780
633D80
630180
630180
630180
630180
630180
63018C
637FFE
630180
7F0180
630180
630180
000180
000180
000180
000180
000180
000180
000180
000000
ENDCHAR

STARTCHAR cns3_2338
ENCODING 9016
SWIDTH 960 0
DWIDTH 24 0
BBX 24 24 0 -2
BITMAP
000000
020060
03FFF0
030060
030060
030060
030060
030060
03FFE0
030060
030060
003800
003000
00300C
7FFFFE
003800
007C00
006600
00C300
018180
0300E0
0E007E
780038
000000
ENDCHAR

STARTCHAR cns3_2339
ENCODING 9017
SWIDTH 960 0
DWIDTH 24 0
BBX 24 24 0 -2
BITMAP
000000
000000
20640C
3FF7FE
30660C
30660C
30660C
30660C
30660C
30660C
30660C
30660C
30660C
30660C
30660C
30660C
30660C
30660C
3FE7FC
30660C
30660C
300600
000000
000000
ENDCHAR

STARTCHAR cns3_233A
ENCODING 9018
SWIDTH 960 0
DWIDTH 24 0
BBX 24 24 0 -2
BITMAP
000000
00000C
437FFE
7F8300
630300
630300
630300
630380
6303C0
630360
630330
630338
630318
630300
7F0300
630300
630300
000300
000300
000300
000300
000300
000300
000000
ENDCHAR

STARTCHAR cns3_233B
ENCODING 9019
SWIDTH 960 0
DWIDTH 24 0
BBX 24 24 0 -2
BITMAP
000000
040060
07FFF0
060060
060060
060060
060060
060060
07FFE0
060060
060000
000000
100018
1FFFFC
180018
180018
180018
180018
180018
180018
180018
1FFFF8
180018
000000
ENDCHAR

STARTCHAR cns3_233C
ENCODING 9020
SWIDTH 960 0
DWIDTH 24 0
BBX 24 24 0 -2
BITMAP
000000
000000
430700
7F8600
630600
630E00
630C00
631C00
633800
633000
637380
636300
630300
630600
7F06C0
630C60
631830
001818
00307C
007F8E
00F006
00C000
000000
000000
ENDCHAR

STARTCHAR cns3_233D
ENCODING 9021
SWIDTH 960 0
DWIDTH 24 0
BBX 24 24 0 -2
BITMAP
000000
20000C
3FFFFE
300006
300006
307386
306306
306306
306306
306366
37FFF6
306306
306306
30C306
30C306
318306
318306
330306
360306
300006
3FFFFE
300006
300006
000000
ENDCHAR

STARTCHAR cns3_233E
ENCODING 9022
SWIDTH 960 0
DWIDTH 24 0
BBX 24 24 0 -2
BITMAP
000000
20000C
3FFFFE
30000C
30070C
30060C
3006CC
37FFEC
30060C
30060C
31860C
30C60C
30660C
30660C
30060C
30060C
30060C
307E0C
301C0C
30000C
3FFFFC
30000C
30000C
000000
ENDCHAR

STARTCHAR cns3_233F
ENCODING 9023
SWIDTH 960 0
DWIDTH 24 0
BBX 24 24 0 -2
BITMAP
000000
000700
0E0600
0C0600
0C0600
0C0600
0C0600
0D8600
7FC600
0C0618
0C07FC
0C0600
0C0600
0C0600
0C0600
0D8600
0F0600
3C0600
700600
600600
00060C
01FFFE
000000
000000
ENDCHAR

STARTCHAR cns3_2340
ENCODING 9024
SWIDTH 960 0
DWIDTH 24 0
BBX 24 24 0 -2
BITMAP
000000
003800
003000
00300C
7FFFFE
006700
00C380
0181C0
0300E0
060078
1C1C3E
301818
601800
001800
001860
0FFFF0
001800
001800
001800
001800
00180C
7FFFFE
000000
000000
ENDCHAR

STARTCHAR cns3_2341
ENCODING 9025
SWIDTH 960 0
DWIDTH 24 0
BBX 24 24 0 -2
BITMAP
000000
00E0E0
03C0C0
1F00C0
0300C0
0300C0
0300C0
0300C0
0360D8
7FFFFC
0300C0
0300C0
0300C0
0300C0
0300C0
0300C0
0300C0
0600C0
0600C0
0600C0
0C00CC
0C3FFE
180000
300000
ENDCHAR

STARTCHAR cns3_2342
ENCODING 9026
SWIDTH 960 0
DWIDTH 24 0
BBX 24 24 0 -2
BITMAP
000000
00003C
070070
0603E0
061EC0
0600C0
0600C0
06C0C0
3FE0C0
0600C0
0600CC
063FFE
0600C0
0600C0
0600C0
06C0C0
0780C0
1E00C0
7800C0
6000C0
0000C0
0000C0
0000C0
000000
ENDCHAR

STARTCHAR cns3_2343
ENCODING 9027
SWIDTH 960 0
DWIDTH 24 0
BBX 24 24 0 -2
BITMAP
000000
01C1C0
018180
018180
318180
1D8180
0F8180
078180
03818C
01BFFE
018180
018180
018180
018180
078180
3D8180
798180
318180
018180
018180
018198
019FFC
018000
000000
ENDCHAR

STARTCHAR cns3_2344
ENCODING 9028
SWIDTH 960 0
DWIDTH 24 0
BBX 24 24 0 -2
BITMAP
000000
00E000
00C060
01FFF0
038060
06C0E0
0C6180
383700
001C00
007F80
01C1FE
0F0E18
300C60
03FFF0
000C00
038C00
030C18
07FFFC
060C00
000C00
000C00
000C00
000C00
000000
ENDCHAR

STARTCHAR cns3_2345
ENCODING 9029
SWIDTH 960 0
DWIDTH 24 0
BBX 24 24 0 -2
BITMAP
000000
0000F0
001FC0
1FF800
007000
00600C
3FFFFE
00C300
018180
0300E0
060078
0CE1FE
18C198
70C180
00C180
00C180
00C180
00C180
01C180
018180
018180
030180
060180
000000
ENDCHAR

STARTCHAR cns3_2346
ENCODING 9030
SWIDTH 960 0
DWIDTH 24 0
BBX 24 24 0 -2
BITMAP
000000
003800
003000
00300C
7FFFFE
006300
006180
00C0C0
018060
030038
0EE1DE
38C18C
00C180
00C18C
7FFFFE
00C180
00C180
00C180
018180
018180
030180
060180
0C0180
000000
ENDCHAR

STARTCHAR cns3_2347
ENCODING 9031
SWIDTH 960 0
DWIDTH 24 0
BBX 24 24 0 -2
BITMAP
000000
0700E0
0600C0
0600C0
0600C0
0600C0
0600C0
0660CC
7FFFFE
0600C0
0600C0
0600C0
0600C0
0600C0
0F01C0
0F01E0
0D81E0
198330
18C330
18C61C
30661E
306C08
601800
000000
ENDCHAR

STARTCHAR cns3_2348
ENCODING 9032
SWIDTH 960 0
DWIDTH 24 0
BBX 24 24 0 -2
BITMAP
000000
003800
003000
00300C
7FFFFE
007800
006C00
00C600
018380
0301E0
0E00FE
380060
003800
003000
00300C
7FFFFE
007800
006C00
00C600
018380
0301E0
0E00FE
780070
000000
ENDCHAR

STARTCHAR cns3_2349
ENCODING 9033
SWIDTH 960 0
DWIDTH 24 0
BBX 24 24 0 -2
BITMAP
000000
0E0018
0C3FFC
0C0318
0C0318
0CC318
7FE318
0CC318
0CC318
18C378
18FFF8
18C318
318318
318318
318318
7B031A
0F031A
07031E
07830E
0DC30E
18C306
300306
600300
000000
ENDCHAR

STARTCHAR cns3_234A
ENCODING 9034
SWIDTH 960 0
DWIDTH 24 0
BBX 24 24 0 -2
BITMAP
000000
0E0380
0C0360
0C0330
0C0318
0CC300
3FE318
0CDFFC
0CC300
18C300
18C180
18C180
198180
318180
3180C0
7D80C0
0700C0
038062
03C062
06C032
0C001A
18000E
300006
000000
ENDCHAR

STARTCHAR cns3_234B
ENCODING 9035
SWIDTH 960 0
DWIDTH 24 0
BBX 24 24 0 -2
BITMAP
000000
0E0700
0C0600
0C0600
0C0630
0CCFF8
7FEC30
0CCC30
0CD860
18D860
18F060
19B0C0
3180C0
3181C0
3181E0
7B0360
0F0370
070630
078C38
0D981C
18300E
306006
61C000
000000
ENDCHAR

STARTCHAR cns3_234C
ENCODING 9036
SWIDTH 960 0
DWIDTH 24 0
BBX 24 24 0 -2
BITMAP
000000
003800
00300C
3FFFFE
0060C0
00C180
018180
03F300
001F80
0039E0
03C078
3E001C
003800
003000
00300C
3FFFFE
0061C0
00C180
018380
03FF00
001FC0
00F0F0
1F803C
000000
ENDCHAR

STARTCHAR cns3_234D
ENCODING 9037
SWIDTH 960 0
DWIDTH 24 0
BBX 24 24 0 -2
BITMAP
000000
01C380
018300
018300
318700
1D8600
0F8618
07FFFC
078C18
018C18
019C18
019830
019830
01B830
07B060
1DFC60
7987C0
6181E0
0181F0
01833C
018E0E
019806
01E000
000000
ENDCHAR

STARTCHAR cns3_234E
ENCODING 9038
SWIDTH 960 0
DWIDTH 24 0
BBX 24 24 0 -2
BITMAP
000000
038738
030630
030C60
0618C0
063180
0318C0
018C70
018C30
000180
07FFC0
000300
000600
001C00
00180C
7FFFFE
001800
001800
001800
001800
001800
01F800
007000
000000
ENDCHAR

STARTCHAR cns3_234F
ENCODING 9039
SWIDTH 960 0
DWIDTH 24 0
BBX 24 24 0 -2
BITMAP
000000
001C00
001800
18180C
1FFFFE
38600C
30701C
70E198
00FFC0
018180
018300
030300
060600
0C0600
000C00
001E00
001B00
003180
006180
00C0C0
018070
03003E
0E0018
000000
ENDCHAR

STARTCHAR cns3_2350
ENCODING 9040
SWIDTH 960 0
DWIDTH 24 0
BBX 24 24 0 -2
BITMAP
000000
001C00
001800
18180C
1FFFFE
3000CC
37FFEC
6000D8
0000C0
0000C0
0600C0
07FFC0
0600C0
060030
0FFFF8
0C0030
0C0030
000030
000070
000060
0000E0
001FC0
000380
000000
ENDCHAR

STARTCHAR cns3_2351
ENCODING 9041
SWIDTH 960 0
DWIDTH 24 0
BBX 24 24 0 -2
BITMAP
000000
000000
001C00
001800
021830
031870
0198E0
0199C0
009980
001818
0FFFFC
000018
000018
000018
000018
1FFFF8
000018
000018
000018
000018
1FFFF8
000018
000018
000000
ENDCHAR

STARTCHAR cns3_2352
ENCODING 9042
SWIDTH 960 0
DWIDTH 24 0
BBX 24 24 0 -2
BITMAP
000000
000E00
000C00
000C00
01CC60
038C30
030C18
060C1C
0C0C0E
18FC0E
303800
000000
001C00
001800
001800
001860
0FFFF0
001800
001800
001800
001800
00180C
7FFFFE
000000
ENDCHAR

STARTCHAR cns3_2353
ENCODING 9043
SWIDTH 960 0
DWIDTH 24 0
BBX 24 24 0 -2
BITMAP
000000
08000C
0FFFFE
0C000C
0C000C
0C000C
0FFFFC
0C007C
0CFFF0
0C0060
0C00C0
0C0180
0C0700
0C0600
0C0618
0DFFFC
0C0600
180600
180600
180600
300600
60FE00
001C00
000000
ENDCHAR

STARTCHAR cns3_2354
ENCODING 9044
SWIDTH 960 0
DWIDTH 24 0
BBX 24 24 0 -2
BITMAP
000000
040018
07FFFC
060018
060018
060018
060018
060018
060018
07FFF8
060618
060600
060600
067600
063B00
0C1B00
0C0180
0C0180
0CC0C0
1870E0
183878
30003E
600018
000000
ENDCHAR

STARTCHAR cns3_2355
ENCODING 9045
SWIDTH 960 0
DWIDTH 24 0
BBX 24 24 0 -2
BITMAP
000000
060000
070000
060018
061FFC
767180
666180
666180
666180
666180
666180
666180
666180
666180
666180
666180
666180
7FE180
606180
606180
600180
00018C
007FFE
000000
ENDCHAR

STARTCHAR cns3_2356
ENCODING 9046
SWIDTH 960 0
DWIDTH 24 0
BBX 24 24 0 -2
BITMAP
000000
0E0018
0C1FFC
0C0018
0C0018
7DC030
6D8060
6D81C0
6D8180
6D8180
6D818C
6DFFFE
6D8180
6D8180
6D8180
6D8180
6D8180
7F8180
618180
618180
000180
001F80
000300
000000
ENDCHAR

STARTCHAR cns3_2357
ENCODING 9047
SWIDTH 960 0
DWIDTH 24 0
BBX 24 24 0 -2
BITMAP
000000
003800
003000
00300C
7FFFFE
007800
006C00
00E600
01C300
0381C0
0600F0
1C007E
701C30
001800
001800
0E181C
0C1818
0C1818
0C1818
0C1818
0C1818
0FFFF8
0C0018
000000
ENDCHAR

STARTCHAR cns3_2358
ENCODING 9048
SWIDTH 960 0
DWIDTH 24 0
BBX 24 24 0 -2
BITMAP
000000
000030
1FFFF8
000030
000030
080030
0FFFF0
0C0030
0C0000
0C0008
0C0008
0C000C
0E000C
07FFF8
000000
001C00
1C181C
181818
181818
181818
181818
1FFFF8
180018
000000
ENDCHAR

STARTCHAR cns3_2359
ENCODING 9049
SWIDTH 960 0
DWIDTH 24 0
BBX 24 24 0 -2
BITMAP
000000
0C100C
0E1FFE
0C180C
0C180C
7DD80C
6D980C
6D980C
6D980C
6D980C
6D9FFC
6D980C
6D9800
6D9800
6D9800
6D9800
6D9800
7F9804
619804
619806
601C0E
000FFC
000000
000000
ENDCHAR

STARTCHAR cns3_235A
ENCODING 9050
SWIDTH 960 0
DWIDTH 24 0
BBX 24 24 0 -2
BITMAP
000000
001C00
001800
001800
1C181C
181818
181818
181818
181818
181818
1FFFF8
180018
001C00
001800
1C181C
181818
181818
181818
181818
181818
1FFFF8
180018
180018
000000
ENDCHAR

STARTCHAR cns3_235B
ENCODING 9051
SWIDTH 960 0
DWIDTH 24 0
BBX 24 24 0 -2
BITMAP
000000
0E0E00
0C0C00
0C0C00
0C1800
0C1E00
0C3380
0C60E0
0CC000
0FFFF0
000000
071CE0
0618C0
0618C0
0618C0
0618C0
0618C0
0618C4
0618C4
0618C6
0C18E6
18187C
700000
000000
ENDCHAR

STARTCHAR cns3_235C
ENCODING 9052
SWIDTH 960 0
DWIDTH 24 0
BBX 24 24 0 -2
BITMAP
000000
07000C
06FFFE
060300
060300
060300
36430C
367FFE
1E630C
1E630C
06630C
06630C
06630C
06630C
06630C
06630C
0C630C
0C630C
0C637C
186318
180300
300300
600300
000000
ENDCHAR

STARTCHAR cns3_235D
ENCODING 9053
SWIDTH 960 0
DWIDTH 24 0
BBX 24 24 0 -2
BITMAP
000000
070180
0601C0
060380
060700
46DC00
7FC860
66CFF0
66CC60
66CC60
66CC60
66CC60
66CC60
66CC60
66CC60
66CC60
66D864
679864
061864
063066
066066
06C03C
078000
000000
ENDCHAR

STARTCHAR cns3_235E
ENCODING 9054
SWIDTH 960 0
DWIDTH 24 0
BBX 24 24 0 -2
BITMAP
000000
000E00
100C0C
1FFFFE
180000
180000
181C00
181800
1818C0
183FE0
1830C0
1860C0
1861C0
18C180
198300
1B0300
180780
300CC0
301860
303030
306018
61C00E
670004
000000
ENDCHAR

STARTCHAR cns3_235F
ENCODING 9055
SWIDTH 960 0
DWIDTH 24 0
BBX 24 24 0 -2
BITMAP
000000
000E00
100C0C
1FFFFE
180000
180030
18FFF8
180300
180300
180300
180300
18030C
1BFFFE
180300
180300
180300
180300
300300
300300
300300
300300
303F00
600E00
000000
ENDCHAR

STARTCHAR cns3_2360
ENCODING 9056
SWIDTH 960 0
DWIDTH 24 0
BBX 24 24 0 -2
BITMAP
000000
000E00
100C0C
1FFFFE
180000
180000
1801E0
180780
181E00
18FC00
1B0C00
180C00
180C1C
180FF0
18FC00
1F0C00
180C00
300C00
300C04
300C04
300C06
300E06
6007FC
000000
ENDCHAR

STARTCHAR cns3_2361
ENCODING 9057
SWIDTH 960 0
DWIDTH 24 0
BBX 24 24 0 -2
BITMAP
000000
030000
7F8EEE
031CCC
031998
061998
061998
0C3330
1B3330
3FB360
336660
036660
033360
033330
633330
763998
1E19DC
0C1CCC
1E0CCC
1B0000
31E000
607FFE
000000
000000
ENDCHAR

STARTCHAR cns3_2362
ENCODING 9058
SWIDTH 960 0
DWIDTH 24 0
BBX 24 24 0 -2
BITMAP
000000
000380
000360
000338
000318
00030C
3FFFFE
000300
000300
003300
3FFB00
000300
000300
006180
1FF180
000180
0000C2
0000C2
001862
3FFC32
00003E
00001E
00000E
000000
ENDCHAR

STARTCHAR cns3_2363
ENCODING 9059
SWIDTH 960 0
DWIDTH 24 0
BBX 24 24 0 -2
BITMAP
000000
030E00
7F8C00
030C00
03180C
031FFE
43180C
7F300C
63300C
60600C
60000C
600618
630718
7F8398
630198
030018
030018
030018
030018
060018
060038
7E07F0
1C00E0
000000
ENDCHAR

STARTCHAR cns3_2364
ENCODING 9060
SWIDTH 960 0
DWIDTH 24 0
BBX 24 24 0 -2
BITMAP
000000
018018
3FDFFC
018000
018000
018000
218000
3F800C
31BFFE
300600
300600
318C18
3FCFFC
319818
019818
018018
018018
018018
018018
030018
030038
3F07F0
0E00E0
000000
ENDCHAR

STARTCHAR cns3_2365
ENCODING 9061
SWIDTH 960 0
DWIDTH 24 0
BBX 24 24 0 -2
BITMAP
000000
000000
0000E0
0000C0
0C0180
070180
038300
00E700
007E00
001C00
003E00
007780
01C1E0
070078
383038
01DC00
198E18
19868C
198086
318086
7180C0
61C1C0
00FF80
000000
ENDCHAR

STARTCHAR cns3_2366
ENCODING 9062
SWIDTH 960 0
DWIDTH 24 0
BBX 24 24 0 -2
BITMAP
000000
070018
061FFC
060180
060180
070180
178180
36C180
36C180
66018C
667FFE
060180
060180
060180
060180
060180
060180
060180
060180
060180
060180
060180
060180
000000
ENDCHAR

STARTCHAR cns3_2367
ENCODING 9063
SWIDTH 960 0
DWIDTH 24 0
BBX 24 24 0 -2
BITMAP
000000
0E01C0
0C0180
0C1D80
0C1980
0D198E
1D99BC
3DD9EC
3CDB8C
6C3D8C
6C798C
0C198C
0C198C
0C198C
0C19FC
0C1998
0C1980
0C1984
0C1804
0C1804
0C1806
0C1C0E
0C0FFC
000000
ENDCHAR

STARTCHAR cns3_2368
ENCODING 9064
SWIDTH 960 0
DWIDTH 24 0
BBX 24 24 0 -2
BITMAP
000000
0E000C
0C3FFE
0C030C
0C030C
0D030C
1D830C
3CC30C
3CC60C
7C1E0C
6C0E0C
0C060C
0C070C
0C0F98
0C0DD8
0C0CD8
0C1858
0C1838
0C3030
0C6030
0CC7F0
0D80E0
0C0000
000000
ENDCHAR

STARTCHAR cns3_2369
ENCODING 9065
SWIDTH 960 0
DWIDTH 24 0
BBX 24 24 0 -2
BITMAP
000000
0E1030
0C1FF8
0C1830
0C1830
0D1830
1D9830
3CD830
3CD830
6C1E30
6C1B30
0C1BB0
0C19B0
0C19B0
0C1830
0C1830
0C3030
0C3030
0C3034
0C6034
0C6036
0CC036
0D801C
000000
ENDCHAR

STARTCHAR cns3_236A
ENCODING 9066
SWIDTH 960 0
DWIDTH 24 0
BBX 24 24 0 -2
BITMAP
000000
001D80
0018E0
001818
3FFFFC
001800
001818
3FFFFC
001800
00180C
7FFFFE
001800
001838
001830
001860
000CC0
000D80
000F04
000F04
0039C4
00E0F4
03C03E
3E000E
000000
ENDCHAR

STARTCHAR cns3_236B
ENCODING 9067
SWIDTH 960 0
DWIDTH 24 0
BBX 24 24 0 -2
BITMAP
000000
000380
00C300
3FE330
00C338
00C318
00C300
00C30C
21BFFE
318300
19830E
0D830C
078198
070198
0301B0
0381E0
0780E0
07C0C0
0CE1E2
186332
18661A
300C0E
601806
000000
ENDCHAR

STARTCHAR cns3_236C
ENCODING 9068
SWIDTH 960 0
DWIDTH 24 0
BBX 24 24 0 -2
BITMAP
000000
0E0018
0C3FFC
0C0000
0C0000
0D8000
7FC000
0C000C
0C3FFE
0C0700
0C0600
0F0E0C
0E0FFE
3C1C0C
6C180C
6C000C
0C000C
0C000C
0C001C
0C0018
0C0038
7C07F0
1800E0
000000
ENDCHAR

STARTCHAR cns3_236D
ENCODING 9069
SWIDTH 960 0
DWIDTH 24 0
BBX 24 24 0 -2
BITMAP
000000
0E0018
0C3FFC
0C0318
0C0318
0D8318
7FC318
0C0318
0C0318
0C0378
0DBFF8
0F0318
0E0318
3C0318
7C0318
6C0318
0C031A
0C031A
0C031A
0C031E
0C030E
7C0306
180300
000000
ENDCHAR

STARTCHAR cns3_236E
ENCODING 9070
SWIDTH 960 0
DWIDTH 24 0
BBX 24 24 0 -2
BITMAP
000000
0E0700
0C0600
0C0600
0C0600
0D8600
7FC630
0C3FF8
0C0630
0C0630
0C0630
0F3630
0E1E30
3C0630
6C0F30
6C0DB0
0C0DB0
0C1832
0C183A
0C301A
0C601E
7CC00E
198006
000000
ENDCHAR

STARTCHAR cns3_236F
ENCODING 9071
SWIDTH 960 0
DWIDTH 24 0
BBX 24 24 0 -2
BITMAP
000000
0E01C0
0C0180
0C0180
0C0180
0D8180
7FC180
0C0180
0C018C
0C3FFE
0C0180
0F0180
0E0180
3C0180
6C0180
6C0180
0C0180
0C0180
0C0180
0C0180
0C0186
7CFFFF
180000
000000
ENDCHAR

STARTCHAR cns3_2370
ENCODING 9072
SWIDTH 960 0
DWIDTH 24 0
BBX 24 24 0 -2
BITMAP
000000
001C00
00180C
7FFFFE
0181C0
00C180
00C300
006600
003C00
007F00
03C1FE
1E0038
01C0E0
0180C0
0180C0
0180C0
0180C0
0180C0
0180C0
0300C0
0300C0
0600C0
0C00C0
000000
ENDCHAR

STARTCHAR cns3_2371
ENCODING 9073
SWIDTH 960 0
DWIDTH 24 0
BBX 24 24 0 -2
BITMAP
000000
038000
0300E0
0300C0
0330C0
7FF8C0
0600C0
0600C0
0600C0
0630C0
07F8C0
0630C0
0630C0
0630E0
0C31E0
0C31E0
0C3330
183330
183618
18660C
30EC0C
37D806
61B006
000000
ENDCHAR

STARTCHAR cns3_2372
ENCODING 9074
SWIDTH 960 0
DWIDTH 24 0
BBX 24 24 0 -2
BITMAP
000000
00000C
41BFFE
7FC38C
61830C
61830C
61830C
61830C
61830C
61830C
7F830C
61860C
61860C
61860C
61860C
61860C
618C0C
7F8C0C
61980C
00300C
00601C
00C3F8
008070
000000
ENDCHAR

STARTCHAR cns3_2373
ENCODING 9075
SWIDTH 960 0
DWIDTH 24 0
BBX 24 24 0 -2
BITMAP
000000
0001C0
418180
7FC180
618180
618180
618180
618180
61818C
61FFFE
7F8180
618180
618180
618180
618180
618180
618180
7F8180
618180
000180
000180
000180
000180
000000
ENDCHAR

STARTCHAR cns3_2374
ENCODING 9076
SWIDTH 960 0
DWIDTH 24 0
BBX 24 24 0 -2
BITMAP
000000
001C00
101818
1FFFFC
181818
181818
181818
1FFFF8
181818
181818
181818
181818
1FFFF8
181818
183800
003800
006C00
006600
00C300
0181C0
0300F0
0E003E
380018
000000
ENDCHAR

STARTCHAR cns3_2375
ENCODING 9077
SWIDTH 960 0
DWIDTH 24 0
BBX 24 24 0 -2
BITMAP
000000
070000
06000C
063FFE
06C30C
7FE30C
06030C
0E030C
0F030C
0F830C
1EC30C
1EC60C
36060C
36060C
66060C
660C18
060C18
061818
061818
063018
066038
06C7F0
0600E0
000000
ENDCHAR

STARTCHAR cns3_2376
ENCODING 9078
SWIDTH 960 0
DWIDTH 24 0
BBX 24 24 0 -2
BITMAP
000000
070030
063FF8
060C30
06CC30
7FEC30
060C30
0E0C30
0F0C66
0F8C7F
1ECC66
1ECC66
360C06
360C06
361806
661806
061806
06180E
06300C
06300C
06601C
0663F8
06C070
000000
ENDCHAR

STARTCHAR cns3_2377
ENCODING 9079
SWIDTH 960 0
DWIDTH 24 0
BBX 24 24 0 -2
BITMAP
000000
070700
060600
060600
06C600
7FE600
060600
060600
060600
0F0600
0F8600
1EC700
1ECF00
360F00
360D80
661980
0618C0
0630C0
063060
066078
06C03E
078018
060000
000000
ENDCHAR

STARTCHAR cns3_2378
ENCODING 9080
SWIDTH 960 0
DWIDTH 24 0
BBX 24 24 0 -2
BITMAP
000000
000300
3FFFC0
01C180
01830C
0183FE
01860C
03060C
03000C
06001C
0C01F8
181C70
301800
00180C
7FFFFE
007C00
00DE00
019B00
0319C0
061878
0C181E
381800
001800
000000
ENDCHAR

STARTCHAR cns3_2379
ENCODING 9081
SWIDTH 960 0
DWIDTH 24 0
BBX 24 24 0 -2
BITMAP
000000
000E00
018C00
7FCC00
018C0C
018FFE
018C0C
01981C
0199D8
6331B0
333180
1B0180
1F0180
0E0180
060180
0F0180
0F0380
1983C0
19C660
30C638
30CC1E
601818
007000
000000
ENDCHAR

STARTCHAR cns3_237A
ENCODING 9082
SWIDTH 960 0
DWIDTH 24 0
BBX 24 24 0 -2
BITMAP
000000
070000
060018
0FFFFC
0C0000
180000
1C0060
37FFF0
661860
061860
061860
061860
06186C
7FFFFE
061860
0C30C0
0C30C0
0C30C0
0C30CC
1FFFFE
1800C0
0007C0
000180
000000
ENDCHAR

STARTCHAR cns3_237B
ENCODING 9083
SWIDTH 960 0
DWIDTH 24 0
BBX 24 24 0 -2
BITMAP
000000
01C000
038060
0E1FF0
3C0660
6C0660
0C0660
0CC6C0
0DC6CC
0F06FE
3C06CC
6C0C0C
0C6C0C
0DEC0C
0F1818
7C1818
0C3038
0C3074
0C63E4
0CC0C4
0C0006
0E000E
07FFFC
000000
ENDCHAR

STARTCHAR cns3_237C
ENCODING 9084
SWIDTH 960 0
DWIDTH 24 0
BBX 24 24 0 -2
BITMAP
000000
180038
0C00F0
061F80
060180
000180
018180
618180
330180
1B018C
1B7FFE
060180
060180
060180
0C0180
0C0180
3C0180
180180
180180
1C0180
1C0180
1C0180
080180
000000
ENDCHAR

STARTCHAR cns3_237D
ENCODING 9085
SWIDTH 960 0
DWIDTH 24 0
BBX 24 24 0 -2
BITMAP
000000
000000
0C003C
0600E0
060780
003F00
000300
218300
318300
1B0300
1B030E
0603F8
067F00
060300
0C0300
0C0300
380304
180304
180304
180304
1C0306
1C038E
1C01FC
000000
ENDCHAR

STARTCHAR cns3_237E
ENCODING 9086
SWIDTH 960 0
DWIDTH 24 0
BBX 24 24 0 -2
BITMAP
000000
180E00
0E0C00
060C00
020C00
00D830
019FF8
21B830
333830
1B3830
1B7830
066C60
06CC60
060C60
0C06C0
0C07C0
3C0380
380380
1807C0
180E60
181838
18701E
19C00C
000000
ENDCHAR

STARTCHAR cns3_2421
ENCODING 9249
SWIDTH 960 0
DWIDTH 24 0
BBX 24 24 0 -2
BITMAP
000000
001C00
001800
3FF838
00DC60
00DFC0
019B80
0319C0
0E1870
78F83E
003000
000000
003800
003000
003000
003800
003800
006C00
00C600
018380
0701E0
1C007E
700018
000000
ENDCHAR

STARTCHAR cns3_2422
ENCODING 9250
SWIDTH 960 0
DWIDTH 24 0
BBX 24 24 0 -2
BITMAP
000000
070700
060600
060600
060600
0C0600
0C061C
0C3618
1DFE30
3C3660
6C36C0
0C3780
0C3780
0C36C0
0C66C0
0C6660
0C6630
0CC638
0CC61E
0D8618
0C0600
0C7E00
0C0C00
000000
ENDCHAR

STARTCHAR cns3_2423
ENCODING 9251
SWIDTH 960 0
DWIDTH 24 0
BBX 24 24 0 -2
BITMAP
000000
18000C
1C7FFE
0E0300
060300
000300
000600
60060C
32FFFE
3A0C00
1E0C00
06180C
061FFE
0C300C
0C300C
1C000C
18000C
38001C
180018
180018
180038
1807F0
1000E0
000000
ENDCHAR

STARTCHAR cns3_2424
ENCODING 9252
SWIDTH 960 0
DWIDTH 24 0
BBX 24 24 0 -2
BITMAP
000000
18000C
0C7FFE
0E000C
06000C
00000C
01800C
61000C
33200C
3B3FFC
1E300C
063000
063000
0C3000
0C3000
0C3000
383004
183004
183004
183006
18380E
181FFC
180000
000000
ENDCHAR

STARTCHAR cns3_2425
ENCODING 9253
SWIDTH 960 0
DWIDTH 24 0
BBX 24 24 0 -2
BITMAP
000000
180030
0E3FF8
060030
060060
0000C0
000380
618300
330300
1B030C
1BFFFE
060300
060300
0E0300
0C0300
0C0300
3C0300
180300
180300
180300
1C0300
1C7F00
180E00
000000
ENDCHAR

STARTCHAR cns3_2426
ENCODING 9254
SWIDTH 960 0
DWIDTH 24 0
BBX 24 24 0 -2
BITMAP
000000
07000C
063FFE
060060
060060
060060
06E060
06C060
1F8060
370060
360060
660060
660060
060060
060060
0E0060
0F0060
0DC060
18C060
180060
300060
3007E0
0001C0
000000
ENDCHAR

STARTCHAR cns3_2427
ENCODING 9255
SWIDTH 960 0
DWIDTH 24 0
BBX 24 24 0 -2
BITMAP
000000
03800E
03000C
0301CC
03018C
03318C
03718C
0F618C
1BC18C
1B018C
33018C
33018C
03018C
03018C
03018C
07018C
07818C
06E18C
0C600C
0C000C
18000C
3000FC
000018
000000
ENDCHAR

STARTCHAR cns3_2428
ENCODING 9256
SWIDTH 960 0
DWIDTH 24 0
BBX 24 24 0 -2
BITMAP
000000
003800
003000
003060
0439E0
0C7F00
0C6E00
18E700
01C380
0301E0
0FC77C
398630
018600
018600
018600
018600
018604
018604
030604
030606
06070E
0C03FC
380000
000000
ENDCHAR

STARTCHAR cns3_2429
ENCODING 9257
SWIDTH 960 0
DWIDTH 24 0
BBX 24 24 0 -2
BITMAP
000000
04000C
07FFFE
060000
060700
060600
060600
060600
060600
066600
06661C
06C678
06C7E0
0D8F80
0D8D80
0C0CC0
0C18C0
181860
183030
306038
30C01C
63800E
0E0000
000000
ENDCHAR

STARTCHAR cns3_242A
ENCODING 9258
SWIDTH 960 0
DWIDTH 24 0
BBX 24 24 0 -2
BITMAP
000000
100030
1FFFF8
180030
183830
183030
183030
1831F0
1931B0
1B3330
1B3630
1B3C30
1E3830
183830
186C30
186C30
30CE3A
31861A
33071A
2E03DE
78018E
60000E
600006
000000
ENDCHAR

STARTCHAR cns3_242B
ENCODING 9259
SWIDTH 960 0
DWIDTH 24 0
BBX 24 24 0 -2
BITMAP
000000
01C000
018000
01800C
03FFFE
03000C
06380C
06300C
0C300C
18300C
30300C
61B1CC
033398
033E18
063838
0679F0
007C60
00CC00
00C600
018300
030180
0600F0
1C0060
000000
ENDCHAR

STARTCHAR cns3_242C
ENCODING 9260
SWIDTH 960 0
DWIDTH 24 0
BBX 24 24 0 -2
BITMAP
000000
000700
01C600
1B8600
0F0600
0E0600
1E0630
337FF8
630630
030630
030630
07B630
079E30
0D8730
198FB0
318DF0
618CF0
019832
01983A
03301A
03301E
1F600E
060006
000000
ENDCHAR

STARTCHAR cns3_242D
ENCODING 9261
SWIDTH 960 0
DWIDTH 24 0
BBX 24 24 0 -2
BITMAP
000000
000070
31C060
1B8060
0F0060
0E006C
1E7FFE
3B0060
630060
0300E0
0300E0
0781E0
0781E0
0D8360
198660
318C60
619860
03B060
036060
030060
030060
3F07E0
0E01C0
000000
ENDCHAR

STARTCHAR cns3_242E
ENCODING 9262
SWIDTH 960 0
DWIDTH 24 0
BBX 24 24 0 -2
BITMAP
000000
000000
00C1C0
3FE180
060180
060180
060180
060180
060300
06C300
3FE300
060300
060600
060600
060630
060C38
06CC1C
078C0E
1E187E
781FC6
607C06
007000
000000
000000
ENDCHAR

STARTCHAR cns3_242F
ENCODING 9263
SWIDTH 960 0
DWIDTH 24 0
BBX 24 24 0 -2
BITMAP
000000
000380
00C300
3FE300
060300
06030C
063FFE
06030C
06030C
06C30C
3FE30C
06060C
06060C
06060C
06060C
060C18
06CC18
078C18
1E1818
783018
303038
0063F0
00C0E0
000000
ENDCHAR

STARTCHAR cns3_2430
ENCODING 9264
SWIDTH 960 0
DWIDTH 24 0
BBX 24 24 0 -2
BITMAP
000000
000380
00C300
7FE300
060300
060300
060300
060300
060300
0663C0
7FF370
06033C
06030E
060306
060300
060300
06C300
078300
0E0300
1C0300
700300
600300
000300
000000
ENDCHAR

STARTCHAR cns3_2431
ENCODING 9265
SWIDTH 960 0
DWIDTH 24 0
BBX 24 24 0 -2
BITMAP
000000
00000E
00600C
7FF38C
06030C
06030C
06030C
06030C
06030C
06630C
7FF30C
06030C
06030C
06030C
06030C
06030C
06E30C
07800C
3E000C
70000C
60000C
0001FC
000038
000000
ENDCHAR

STARTCHAR cns3_2432
ENCODING 9266
SWIDTH 960 0
DWIDTH 24 0
BBX 24 24 0 -2
BITMAP
000000
000000
00000C
3FFFFE
007000
007800
006C00
00C600
00C300
018300
038018
03FFFC
070018
070018
0F0018
1B0018
330018
630018
030018
030018
03FFF8
030018
030018
000000
ENDCHAR

STARTCHAR cns3_2433
ENCODING 9267
SWIDTH 960 0
DWIDTH 24 0
BBX 24 24 0 -2
BITMAP
000000
070700
060600
060600
066600
7FF600
006600
00C600
018600
030600
070600
0FC600
1E6600
366600
660600
060600
060600
060604
060604
060604
060606
06070E
0603FC
000000
ENDCHAR

STARTCHAR cns3_2434
ENCODING 9268
SWIDTH 960 0
DWIDTH 24 0
BBX 24 24 0 -2
BITMAP
000000
001C00
001800
001818
1FFFFC
0000C0
0300C0
018180
00C180
00C30C
7FFFFE
001800
001800
001800
001800
001800
001800
001800
001800
001800
001800
001800
001800
000000
ENDCHAR

STARTCHAR cns3_2435
ENCODING 9269
SWIDTH 960 0
DWIDTH 24 0
BBX 24 24 0 -2
BITMAP
000000
118700
1FC600
198600
198600
198600
198660
1FFFF0
198660
198660
198660
198660
198C60
1F8C60
198C60
198C60
198C64
318C64
319864
319866
31B066
6FB03C
636000
000000
ENDCHAR

STARTCHAR cns3_2436
ENCODING 9270
SWIDTH 960 0
DWIDTH 24 0
BBX 24 24 0 -2
BITMAP
000000
18000C
1FFFFE
18000C
300018
3400C0
07FFE0
0600C0
0600C0
06C0C0
0660C0
0638C0
061CC0
0608C0
0602C0
061EC0
0638C0
0670C0
06C0C0
0600C0
0600C0
0E0FC0
1C0180
000000
ENDCHAR

STARTCHAR cns3_2437
ENCODING 9271
SWIDTH 960 0
DWIDTH 24 0
BBX 24 24 0 -2
BITMAP
000000
01C1C0
018180
01818C
7FFFFE
018180
018180
000018
1FFFFC
00C000
00C000
018000
0180C0
01FFC0
0180E0
0300C0
0000C0
0001C0
000180
000180
000380
003F00
000E00
000000
ENDCHAR

STARTCHAR cns3_2438
ENCODING 9272
SWIDTH 960 0
DWIDTH 24 0
BBX 24 24 0 -2
BITMAP
000000
01C1C0
018180
01818C
7FFFFE
018180
019980
019980
00180C
1FFFFE
00180C
00180C
00180C
00300C
00300C
006018
006018
00C018
018018
030018
0601F8
0C0070
380000
000000
ENDCHAR

STARTCHAR cns3_2439
ENCODING 9273
SWIDTH 960 0
DWIDTH 24 0
BBX 24 24 0 -2
BITMAP
000000
01C1C0
018180
01818C
7FFFFE
018180
018180
018180
001FC0
000180
00E180
00C180
00C180
018180
018180
0180C0
0300C0
030060
060060
0C0030
0C0018
18000E
700000
000000
ENDCHAR

STARTCHAR cns3_243A
ENCODING 9274
SWIDTH 960 0
DWIDTH 24 0
BBX 24 24 0 -2
BITMAP
000000
001C00
001800
001800
001830
0FFFF8
001800
001800
001800
00180C
3FFFFE
000000
000000
0300C0
0180C0
00C180
006180
000300
000600
000C00
00F800
07BFFE
1E03E0
000000
ENDCHAR

STARTCHAR cns3_243B
ENCODING 9275
SWIDTH 960 0
DWIDTH 24 0
BBX 24 24 0 -2
BITMAP
000000
000380
000300
000300
18030C
0E3FFE
06030C
00030C
06030C
7F060C
07060C
06060C
0C060C
0C0C0C
180C18
3F1818
233038
0661F0
0CC060
1F0000
31E000
603FFE
0007F0
000000
ENDCHAR

STARTCHAR cns3_243C
ENCODING 9276
SWIDTH 960 0
DWIDTH 24 0
BBX 24 24 0 -2
BITMAP
000000
03810C
0301FE
03018C
03018C
731D8C
631998
631998
6319B0
6319B0
631998
63198C
63198C
631986
631986
631986
631986
7FF98E
6019BE
60198C
000180
000180
000180
000000
ENDCHAR

STARTCHAR cns3_243D
ENCODING 9277
SWIDTH 960 0
DWIDTH 24 0
BBX 24 24 0 -2
BITMAP
000000
01C20C
0183FE
01830C
03030C
033318
3FFB18
063330
063360
063330
0C3330
0C3318
18630C
18630C
3C6306
36C306
03C306
01C30E
03E37C
066318
0C0300
180300
700300
000000
ENDCHAR

STARTCHAR cns3_243E
ENCODING 9278
SWIDTH 960 0
DWIDTH 24 0
BBX 24 24 0 -2
BITMAP
000000
23000C
3F9FFE
330018
330030
330030
360060
3601C0
360180
360180
33018C
337FFE
318180
318180
318180
338180
3F0180
360180
300180
300180
300180
301F80
300700
000000
ENDCHAR

STARTCHAR cns3_243F
ENCODING 9279
SWIDTH 960 0
DWIDTH 24 0
BBX 24 24 0 -2
BITMAP
000000
00000C
7FFFFE
00C300
00C300
00C300
10C318
1FFFFC
18C318
18C318
18C318
19C318
19E798
19FFD8
1B3EF8
1B1C78
1E1818
183018
180018
180018
180018
1801F8
180070
000000
ENDCHAR

STARTCHAR cns3_2440
ENCODING 9280
SWIDTH 960 0
DWIDTH 24 0
BBX 24 24 0 -2
BITMAP
000000
003000
01F380
1F8300
030300
030300
030300
033300
7FFB00
030300
030300
030300
030300
233300
3FFB00
303300
303300
303304
303304
303304
3FF306
303386
3031FC
000000
ENDCHAR

STARTCHAR cns3_2441
ENCODING 9281
SWIDTH 960 0
DWIDTH 24 0
BBX 24 24 0 -2
BITMAP
000000
00200C
003FFE
00300C
00300C
03300C
3FB00C
00300C
00300C
00300C
033FFC
7FB66C
000660
000660
000660
000C60
000C60
000C64
001864
001864
003066
006066
01C03C
000000
ENDCHAR

STARTCHAR cns3_2442
ENCODING 9282
SWIDTH 960 0
DWIDTH 24 0
BBX 24 24 0 -2
BITMAP
000000
00000C
3FFFFE
006300
006300
006300
10630C
1FFFFE
18630C
18630C
18630C
18630C
18630C
18630C
18630C
1FFFFC
18630C
006300
006300
006300
00630C
7FFFFE
000000
000000
ENDCHAR

STARTCHAR cns3_2443
ENCODING 9283
SWIDTH 960 0
DWIDTH 24 0
BBX 24 24 0 -2
BITMAP
000000
038380
030300
030300
030300
060318
067FFC
0E0300
0E0300
1E0300
36030C
667FFE
060700
060F00
060F80
061B80
061BC0
063360
066330
06C318
07830E
060300
060300
000000
ENDCHAR

STARTCHAR cns3_2444
ENCODING 9284
SWIDTH 960 0
DWIDTH 24 0
BBX 24 24 0 -2
BITMAP
000000
0701C0
060180
06218C
063FFE
0C318C
0C318C
1C3198
1C3180
3C3180
6C3198
0C3FFC
0C3C18
0C6C18
0C6630
0C6630
0C6360
0C61E0
0CC1C0
0CC3E0
0CC678
0D9C3E
0F7018
000000
ENDCHAR

STARTCHAR cns3_2445
ENCODING 9285
SWIDTH 960 0
DWIDTH 24 0
BBX 24 24 0 -2
BITMAP
000000
072030
063FF8
063030
063030
0C3030
0C3030
1C3030
1C3FF0
3C3030
6C3030
0C3030
0C3030
0C3030
0C3FF0
0C3030
0C3030
0C3030
0C3030
0C3030
0C303C
0DFFFE
0C0000
000000
ENDCHAR

STARTCHAR cns3_2446
ENCODING 9286
SWIDTH 960 0
DWIDTH 24 0
BBX 24 24 0 -2
BITMAP
000000
070380
060300
060300
060300
0C830C
0CFFFE
1CC30C
1CC30C
3CC30C
6CC30C
0CC30C
0CC30C
0CFFFC
0CC30C
0CC30C
0CC30C
0CC30C
0CC30C
0CC30C
0CC30C
0CFFFC
0CC00C
000000
ENDCHAR

STARTCHAR cns3_2447
ENCODING 9287
SWIDTH 960 0
DWIDTH 24 0
BBX 24 24 0 -2
BITMAP
000000
0700E0
0638C0
0630C0
0630C0
0C60C0
0C60CC
1CC3FE
1CCECC
3D8CCC
6D8CCC
0CF8CC
0C78CC
0C30CC
0C6198
0C7998
0CCD98
0D8D98
0FFF18
0F0318
0C0618
0C0DF8
0C1870
000000
ENDCHAR

STARTCHAR cns3_2448
ENCODING 9288
SWIDTH 960 0
DWIDTH 24 0
BBX 24 24 0 -2
BITMAP
000000
078018
06FFFC
06C018
0CC018
0CC018
1CC018
1CFFF8
3CC018
3CC000
6CCE00
0CCC00
0CCC00
0CCC00
0CCC10
0CCFF8
0D8C04
0D8C04
0D8C04
0F0C06
0F0E0E
0E07FC
0C0000
000000
ENDCHAR

STARTCHAR cns3_2449
ENCODING 9289
SWIDTH 960 0
DWIDTH 24 0
BBX 24 24 0 -2
BITMAP
000000
070000
06000C
067FFE
0C0180
0C0180
0C0180
1C0180
1C3980
3C3180
3C318C
6C31FE
0C3180
0C3180
0C3180
0C3180
0C3180
0C3180
0C3180
0C3180
0C318C
0DFFFE
0C0000
000000
ENDCHAR

STARTCHAR cns3_244A
ENCODING 9290
SWIDTH 960 0
DWIDTH 24 0
BBX 24 24 0 -2
BITMAP
000000
07000C
06FFFE
060300
060300
0C0300
0C830C
1CFFFE
1CC30C
3CC70C
6CC60C
0CC70C
0CCD8C
0CCCEC
0CD87C
0CF03C
0CE00C
0CC00C
0CC00C
0CC00C
0CC00C
0CC0FC
0CC038
000000
ENDCHAR

STARTCHAR cns3_244B
ENCODING 9291
SWIDTH 960 0
DWIDTH 24 0
BBX 24 24 0 -2
BITMAP
000000
073838
063030
063030
063030
0C303C
0DFFFE
1C3030
1C3030
3C3030
6C3030
0C3030
0C3030
0C3FF0
0C3030
0C3030
0C3030
0C3030
0C3030
0C3030
0C3FF0
0C3030
0C3030
000000
ENDCHAR

STARTCHAR cns3_244C
ENCODING 9292
SWIDTH 960 0
DWIDTH 24 0
BBX 24 24 0 -2
BITMAP
000000
07000C
06FFFE
06060C
06060C
0C060C
0C0C0C
1C0C18
1C1818
3C1BF8
6C3070
0C6000
0CC000
0C4018
0C7FFC
0C6018
0C6018
0C6018
0C6018
0C6018
0C7FF8
0C6018
0C6018
000000
ENDCHAR

STARTCHAR cns3_244D
ENCODING 9293
SWIDTH 960 0
DWIDTH 24 0
BBX 24 24 0 -2
BITMAP
000000
074030
067FF8
066030
066030
0C6C30
0C6630
0C6730
1C6330
3C603C
6DFFFE
0CC030
0CC030
0CCC30
0CC660
0CC760
0CC360
0D8078
0DFFFC
0D8060
0D80E0
0C0FC0
0C0380
000000
ENDCHAR

STARTCHAR cns3_244E
ENCODING 9294
SWIDTH 960 0
DWIDTH 24 0
BBX 24 24 0 -2
BITMAP
000000
03A018
033FFC
033018
033018
063018
063018
0E3018
0E3FF8
1E3018
363018
663000
063000
06300C
063FFE
06300C
06300C
06300C
06300C
06300C
06300C
063FFC
06300C
000000
ENDCHAR

STARTCHAR cns3_244F
ENCODING 9295
SWIDTH 960 0
DWIDTH 24 0
BBX 24 24 0 -2
BITMAP
000000
0E800C
0CFFFE
0CCD8C
0CCD8C
18CD8C
18CD8C
38CD8C
38CD8C
78CD8C
18CD8C
18CD8C
18D9AC
18D9AC
18D9EC
18F0EC
18C00C
18C00C
18C00C
18C00C
18C00C
18FFFC
18C00C
000000
ENDCHAR

STARTCHAR cns3_2450
ENCODING 9296
SWIDTH 960 0
DWIDTH 24 0
BBX 24 24 0 -2
BITMAP
000000
070380
060300
060780
060F80
0C0CC0
0C1860
1C3030
1C639C
3CC30E
6D8300
0C0300
0C1B00
0C1B60
0C3330
0C3330
0C6318
0C6318
0CC30C
0D830E
0C0300
0C1F00
0C0600
000000
ENDCHAR

STARTCHAR cns3_2451
ENCODING 9297
SWIDTH 960 0
DWIDTH 24 0
BBX 24 24 0 -2
BITMAP
000000
000180
0301C0
018300
018300
04C6C0
07FFE0
0600C0
0600C0
0600C0
0600C0
0600C0
07FFC0
06CCC0
06CC00
00CC00
00CC00
018C04
018C04
030C06
060E0E
0C07FC
380000
000000
ENDCHAR

STARTCHAR cns3_2452
ENCODING 9298
SWIDTH 960 0
DWIDTH 24 0
BBX 24 24 0 -2
BITMAP
000000
000060
3FFFF0
00C060
018060
0180C0
031FC0
060380
1C0030
1FFFF8
783030
183030
183030
183030
1FFFF0
187830
187804
00D804
00D804
019804
031806
0E1C0E
3C0FFC
000000
ENDCHAR

STARTCHAR cns3_2453
ENCODING 9299
SWIDTH 960 0
DWIDTH 24 0
BBX 24 24 0 -2
BITMAP
000000
0E4030
0C7FF8
0C6030
0C6030
0C6030
0C7FF0
0C6030
0C6030
0C6030
0C7FF0
0C6030
0C0000
00E380
00C300
00C300
00C300
00C304
018304
018306
030386
0E01FC
3C0000
000000
ENDCHAR

STARTCHAR cns3_2454
ENCODING 9300
SWIDTH 960 0
DWIDTH 24 0
BBX 24 24 0 -2
BITMAP
000000
000070
0003F0
00FF80
07D800
001800
081818
0FFFFC
0C1818
0C1818
0C1818
0C1818
0FFFF8
0C3818
0C7818
007800
00D8C4
00D874
019834
031806
061C0E
1C0FFC
700000
000000
ENDCHAR

STARTCHAR cns3_2455
ENCODING 9301
SWIDTH 960 0
DWIDTH 24 0
BBX 24 24 0 -2
BITMAP
000000
40000C
7FFFFE
60300C
60300C
66318C
7F3FCC
66318C
66318C
66318C
66318C
66338C
66338C
6F36CC
6DB6CC
6DF66C
78FC3C
60300C
60300C
60300C
60300C
6030FC
603038
000000
ENDCHAR

STARTCHAR cns3_2456
ENCODING 9302
SWIDTH 960 0
DWIDTH 24 0
BBX 24 24 0 -2
BITMAP
000000
080030
0FFFF8
0C0030
0C1C30
0C1830
0C1830
0C1830
0C3C30
0C6630
0CC330
0D81B0
0C0030
0C0030
00000C
7FFFFE
000000
01C180
0180C0
030070
060038
0C001C
380000
000000
ENDCHAR

STARTCHAR cns3_2457
ENCODING 9303
SWIDTH 960 0
DWIDTH 24 0
BBX 24 24 0 -2
BITMAP
000000
18000C
1FFFFE
18000C
300008
300000
020060
03FFF0
030060
030060
030060
03FFE0
030060
030060
030060
030060
03FFE0
030060
030060
030060
030060
03006C
7FFFFE
000000
ENDCHAR

STARTCHAR cns3_2458
ENCODING 9304
SWIDTH 960 0
DWIDTH 24 0
BBX 24 24 0 -2
BITMAP
000000
00000C
30FFFE
180600
1C0600
000600
030C00
030C00
061C00
061800
0C180C
0C3FFE
18380C
18780C
38780C
38D80C
19980C
1B180C
18180C
18180C
001FFC
00180C
00180C
000000
ENDCHAR

STARTCHAR cns3_2459
ENCODING 9305
SWIDTH 960 0
DWIDTH 24 0
BBX 24 24 0 -2
BITMAP
000000
008018
60FFFC
30C018
18C018
18C018
06C018
06C018
0CC018
0CC018
18FFF8
18D8D8
3018C0
3018C0
7018C0
7018C0
3018C4
3030C4
3030C4
3060C6
00C0E6
01807C
070000
000000
ENDCHAR

STARTCHAR cns3_245A
ENCODING 9306
SWIDTH 960 0
DWIDTH 24 0
BBX 24 24 0 -2
BITMAP
000000
000380
608304
306318
383330
181B60
030B40
060300
060310
0C3FF8
0C0300
180300
180300
300304
70FFFE
700300
300300
300300
300300
300300
000300
000300
000300
000000
ENDCHAR

STARTCHAR cns3_245B
ENCODING 9307
SWIDTH 960 0
DWIDTH 24 0
BBX 24 24 0 -2
BITMAP
000000
080030
0FFFF8
0C0030
0C01B0
0FFFF0
0C0030
0C0030
0D01B0
0DFFF0
0D81B0
0D81B0
0DFFB0
0D81B0
0D81B0
1981B0
19FFB2
19819A
31819A
30001A
30000E
60000E
600006
000000
ENDCHAR

STARTCHAR cns3_245C
ENCODING 9308
SWIDTH 960 0
DWIDTH 24 0
BBX 24 24 0 -2
BITMAP
000000
03800E
03000C
0300EC
0300CC
0600CC
0660CC
0C30CC
0C18CC
19FCCC
7E0CCC
0000CC
1018CC
1FFCCC
1818CC
1818CC
1818CC
18180C
18180C
18180C
1FF80C
1819FC
181838
000000
ENDCHAR

STARTCHAR cns3_245D
ENCODING 9309
SWIDTH 960 0
DWIDTH 24 0
BBX 24 24 0 -2
BITMAP
000000
038000
03000C
030FFE
0360CC
3FF0CC
0300CC
0300CC
0300CC
0300CC
0330CC
7FF98C
03018C
06018C
06030C
06C30C
0C630C
0C330C
0DF618
7F3E18
701C38
0019F0
003060
000000
ENDCHAR

STARTCHAR cns3_245E
ENCODING 9310
SWIDTH 960 0
DWIDTH 24 0
BBX 24 24 0 -2
BITMAP
000000
01C00E
01800C
0180EC
0180CC
0198CC
3FFCCC
0180CC
0180CC
0180CC
018CCC
7FFECC
0300CC
0300CC
0300CC
0360CC
0638CC
06180C
0CFC0C
1F8C0C
780C0C
6000FC
000038
000000
ENDCHAR

STARTCHAR cns3_245F
ENCODING 9311
SWIDTH 960 0
DWIDTH 24 0
BBX 24 24 0 -2
BITMAP
000000
00180E
7FFC0C
0619CC
06198C
06198C
06198C
0C198C
0C318C
1BF18C
30E18C
60018C
20318C
3FF98C
30318C
30318C
30318C
30318C
30300C
30300C
3FF00C
3031FC
300038
000000
ENDCHAR

STARTCHAR cns3_2460
ENCODING 9312
SWIDTH 960 0
DWIDTH 24 0
BBX 24 24 0 -2
BITMAP
000000
20300E
3FF80C
3031CC
30318C
30318C
30318C
30318C
3FF18C
30318C
07018C
06018C
06318C
7FF98C
06318C
06318C
06318C
0C300C
0C300C
0C300C
18700C
33E0FC
60C038
000000
ENDCHAR

STARTCHAR cns3_2461
ENCODING 9313
SWIDTH 960 0
DWIDTH 24 0
BBX 24 24 0 -2
BITMAP
000000
264C0E
3F7E0C
366CEC
366CCC
366CCC
366CCC
366CCC
366CCC
366CCC
366CCC
7FFFCC
366CCC
366CCC
366CCC
366CCC
366CCC
366C0C
366C0C
366C0C
366C0C
3E7DFC
346838
000000
ENDCHAR

STARTCHAR cns3_2462
ENCODING 9314
SWIDTH 960 0
DWIDTH 24 0
BBX 24 24 0 -2
BITMAP
000000
003060
063070
0738C0
0318C0
031980
20010C
3FFFFE
30000C
60380C
603008
003000
003030
0FFFF8
003030
003030
006030
006030
00C030
00C060
018060
0307E0
0E01C0
000000
ENDCHAR

STARTCHAR cns3_2463
ENCODING 9315
SWIDTH 960 0
DWIDTH 24 0
BBX 24 24 0 -2
BITMAP
000000
01C1C0
018180
01818C
7FFFFE
018180
31818C
3FFFFE
30000C
30000C
601C18
601800
001830
0FFFF8
003038
003030
006030
006030
00C030
018060
030060
060FC0
1C0380
000000
ENDCHAR

STARTCHAR cns3_2464
ENCODING 9316
SWIDTH 960 0
DWIDTH 24 0
BBX 24 24 0 -2
BITMAP
000000
0700E0
0600C0
3EE0C0
36C0C0
36C0CC
36CFFE
36C0CC
36C0CC
36C0CC
3FC0CC
36C0CC
0600CC
76718C
66618C
66618C
66618C
66618C
66630C
666318
7FE618
606CF8
601830
000000
ENDCHAR

STARTCHAR cns3_2465
ENCODING 9317
SWIDTH 960 0
DWIDTH 24 0
BBX 24 24 0 -2
BITMAP
000000
000000
00000C
7FFFFE
180000
180E00
180C00
181800
1830C0
186070
19FFF8
19B8D8
1830C0
1830D8
1BFFFC
1830C0
1830C0
1860C0
18C0C0
1980C0
1F00C0
0FFFFE
000000
000000
ENDCHAR

STARTCHAR cns3_2466
ENCODING 9318
SWIDTH 960 0
DWIDTH 24 0
BBX 24 24 0 -2
BITMAP
000000
000000
00000C
7FFFFE
187000
186000
18C060
18FFF0
198E00
198C00
1B0C00
180C18
1BFFFC
180C00
181E00
181B00
183180
1830C0
186070
19C030
1C0000
0FFFFE
000000
000000
ENDCHAR

STARTCHAR cns3_2467
ENCODING 9319
SWIDTH 960 0
DWIDTH 24 0
BBX 24 24 0 -2
BITMAP
000000
03840C
0307FE
03060C
03060C
03660C
3FF60C
03060C
03060C
03060C
03660C
7FF60C
07060C
06060C
06060C
06C60C
0C660C
0C36FC
19FE38
7F1E00
700600
200600
000600
000000
ENDCHAR

STARTCHAR cns3_2468
ENCODING 9320
SWIDTH 960 0
DWIDTH 24 0
BBX 24 24 0 -2
BITMAP
000000
10000C
1FFFFE
180000
180E00
180C00
180C00
180C30
1BFFF8
180000
1800E0
1880C0
18C0C0
18C0C0
1860C0
186180
306180
303180
303180
303300
30030C
6FFFFE
600000
000000
ENDCHAR

STARTCHAR cns3_2469
ENCODING 9321
SWIDTH 960 0
DWIDTH 24 0
BBX 24 24 0 -2
BITMAP
000000
10000C
1FFFFE
180000
180700
180600
180600
18060C
1BFFFE
180600
180600
180600
180600
188630
18FFF8
18C030
30C030
30C030
30C030
30C030
30FFF0
60C030
60C030
000000
ENDCHAR

STARTCHAR cns3_246A
ENCODING 9322
SWIDTH 960 0
DWIDTH 24 0
BBX 24 24 0 -2
BITMAP
000000
10000C
1FFFFE
180000
190018
19FFFC
198618
198618
198618
19FFF8
198618
198618
198618
19FFF8
198618
180600
300600
300600
300600
300600
300600
600600
600600
000000
ENDCHAR

STARTCHAR cns3_246B
ENCODING 9323
SWIDTH 960 0
DWIDTH 24 0
BBX 24 24 0 -2
BITMAP
000000
000380
430300
7F8300
63030C
633FFE
630600
630600
630600
63060C
6307FE
63060C
63060C
630C0C
7F0C0C
630C0C
60180C
00180C
003018
003018
006030
00C3F0
0180E0
000000
ENDCHAR

STARTCHAR cns3_246C
ENCODING 9324
SWIDTH 960 0
DWIDTH 24 0
BBX 24 24 0 -2
BITMAP
000000
0001C0
430180
7F819C
6301F8
6307C0
630180
630180
63018C
633FFE
630180
630180
630180
63018C
7FFFFE
630180
600180
000180
000180
000180
000180
000180
000180
000000
ENDCHAR

STARTCHAR cns3_246D
ENCODING 9325
SWIDTH 960 0
DWIDTH 24 0
BBX 24 24 0 -2
BITMAP
000000
000000
430018
7FBFFC
630000
630000
630000
630000
630000
63000C
637FFE
630300
630300
630300
7F0600
630600
600660
000C30
000C18
0018F8
007F8C
00600C
000000
000000
ENDCHAR

STARTCHAR cns3_246E
ENCODING 9326
SWIDTH 960 0
DWIDTH 24 0
BBX 24 24 0 -2
BITMAP
000000
000380
460300
7F0300
660300
660318
66FFFC
660300
660300
660700
660780
660F80
661FC0
661B60
7E3330
666318
60C30E
018300
000300
000300
000300
000300
000300
000000
ENDCHAR

STARTCHAR cns3_246F
ENCODING 9327
SWIDTH 960 0
DWIDTH 24 0
BBX 24 24 0 -2
BITMAP
000000
000380
430300
7F8360
630330
630318
63030C
637FFE
630300
630300
6303C0
630380
630780
630780
7F0780
630780
600780
000D84
000D84
001984
003186
0061C6
01C0FC
000000
ENDCHAR

STARTCHAR cns3_2470
ENCODING 9328
SWIDTH 960 0
DWIDTH 24 0
BBX 24 24 0 -2
BITMAP
000000
001060
431FF0
7F9860
631860
631860
631864
631866
633066
63303C
636000
630030
63FFF8
633030
7F1830
631860
600C60
0006C0
000380
000380
000EE0
00387E
00E038
000000
ENDCHAR

STARTCHAR cns3_2471
ENCODING 9329
SWIDTH 960 0
DWIDTH 24 0
BBX 24 24 0 -2
BITMAP
000000
000060
4303F0
7F8060
631860
631C60
631860
631830
633030
633018
63671C
63660E
63C600
63C600
7F0600
630C00
630CC0
000C60
001830
0018F8
00378C
00FC0C
00C000
000000
ENDCHAR

STARTCHAR cns3_2472
ENCODING 9330
SWIDTH 960 0
DWIDTH 24 0
BBX 24 24 0 -2
BITMAP
000000
003000
07F800
003000
203018
3FFFFC
307018
307818
30CC18
318718
3303F8
360198
320318
33FF98
330318
330318
330318
330318
33FF18
330318
300018
3001F8
300070
000000
ENDCHAR

STARTCHAR cns3_2473
ENCODING 9331
SWIDTH 960 0
DWIDTH 24 0
BBX 24 24 0 -2
BITMAP
000000
000180
1FFFC0
00E180
00C30C
00C3FE
00C60C
01860C
018018
030018
061DF8
1C1870
00180C
3FFFFE
001800
041860
07FFF0
060060
060060
060060
060060
07FFE0
060060
000000
ENDCHAR

STARTCHAR cns3_2474
ENCODING 9332
SWIDTH 960 0
DWIDTH 24 0
BBX 24 24 0 -2
BITMAP
000000
000070
430060
7F8060
631860
630E60
630660
630060
630060
633060
631860
630E60
630660
63006C
7F007E
6303E0
603C60
01C060
000060
000060
000060
000060
000060
000000
ENDCHAR

STARTCHAR cns3_2475
ENCODING 9333
SWIDTH 960 0
DWIDTH 24 0
BBX 24 24 0 -2
BITMAP
000000
000000
000000
430300
7F81C0
6300E0
630060
630E00
630C00
630C00
630C00
636C30
636C18
636C0C
7FCC0C
63CC06
63CC26
01CC26
000C20
000C30
000E30
0007E0
000000
000000
ENDCHAR

STARTCHAR cns3_2476
ENCODING 9334
SWIDTH 960 0
DWIDTH 24 0
BBX 24 24 0 -2
BITMAP
000000
000030
437FF8
7F8630
630630
630630
63063C
63FFFE
630630
630630
630630
630630
630630
637FF0
7F0630
630C00
630C00
000C00
001800
001800
003000
006000
00C000
000000
ENDCHAR

STARTCHAR cns3_2477
ENCODING 9335
SWIDTH 960 0
DWIDTH 24 0
BBX 24 24 0 -2
BITMAP
000000
00018E
467FCC
7F018C
66018C
66018C
66218C
663F8C
66318C
66300C
66300C
66600C
66618C
667FCC
7E618C
66018C
66018C
00018C
00018C
00030C
00030C
003F0C
000E0C
000000
ENDCHAR

STARTCHAR cns3_2478
ENCODING 9336
SWIDTH 960 0
DWIDTH 24 0
BBX 24 24 0 -2
BITMAP
000000
000380
430300
7F8300
630300
630330
637FF8
630300
630300
630300
630300
630318
63FFFC
630700
7F0700
630780
600D80
000CC0
0018E0
001870
003038
00601C
01C00E
000000
ENDCHAR

STARTCHAR cns3_2479
ENCODING 9337
SWIDTH 960 0
DWIDTH 24 0
BBX 24 24 0 -2
BITMAP
000000
0038E0
4330C0
7FB0C0
6330C0
6330C0
6330C0
6330C0
6332C4
633FFE
6330C0
6330C0
6330C0
6330C0
7F30C0
6330C0
6330C4
0030C4
0030C4
0037C6
003CE6
01E07C
01C000
000000
ENDCHAR

STARTCHAR cns3_247A
ENCODING 9338
SWIDTH 960 0
DWIDTH 24 0
BBX 24 24 0 -2
BITMAP
000000
000000
430070
7FF06E
63606C
63606C
6378CC
636CCC
636CCC
6366CC
63678C
63638C
63638C
63638C
7F63CC
6366CC
63666C
006C7C
00783C
00780C
00600C
007FFC
00600C
000000
ENDCHAR

STARTCHAR cns3_247B
ENCODING 9339
SWIDTH 960 0
DWIDTH 24 0
BBX 24 24 0 -2
BITMAP
000000
040030
07FFF8
060030
060030
060030
060030
07FFF0
060030
000018
1FFFFC
001C00
001800
001800
00180C
7FFFFE
001C00
003E00
003700
006380
01C1E0
0700FE
1C0038
000000
ENDCHAR

STARTCHAR cns3_247C
ENCODING 9340
SWIDTH 960 0
DWIDTH 24 0
BBX 24 24 0 -2
BITMAP
000000
040060
07FFF0
060060
060060
060060
060060
07FFE0
04C060
018000
0300C0
07FFE0
0000C0
000180
00030C
7FFFFE
007000
007800
00CC00
018700
0303C0
0F01FC
7C00E0
000000
ENDCHAR

STARTCHAR cns3_247D
ENCODING 9341
SWIDTH 960 0
DWIDTH 24 0
BBX 24 24 0 -2
BITMAP
000000
000380
000300
000300
46430C
7F7FFE
66630C
66630C
66630C
66630C
66678C
6667CC
666CEC
666C7C
66783C
7E600C
66600C
60600C
00600C
00600C
00600C
0060FC
006038
000000
ENDCHAR

STARTCHAR cns3_247E
ENCODING 9342
SWIDTH 960 0
DWIDTH 24 0
BBX 24 24 0 -2
BITMAP
000000
038000
030000
031800
0B0E18
1B060C
33008E
330086
6300C0
0381C0
01FF80
000000
100060
1FFFF0
180060
180060
180060
180060
180060
180060
1FFFE0
180060
180060
000000
ENDCHAR

STARTCHAR cns3_2521
ENCODING 9505
SWIDTH 960 0
DWIDTH 24 0
BBX 24 24 0 -2
BITMAP
000000
039C00
031800
031800
061860
07FFF0
0C1800
181800
301800
00180C
7FFFFE
001800
001800
041830
07FFF8
060030
060030
060030
060030
060030
060030
07FFF0
060030
000000
ENDCHAR

STARTCHAR cns3_2522
ENCODING 9506
SWIDTH 960 0
DWIDTH 24 0
BBX 24 24 0 -2
BITMAP
000000
0001E0
001F80
0FF000
006000
006000
00C018
7FFFFC
018600
030300
030180
0600C0
0C00F0
1FFFFE
7600D8
0600C0
0600C0
0600C0
0600C0
0600C0
0600C0
07FFC0
0600C0
000000
ENDCHAR

STARTCHAR cns3_2523
ENCODING 9507
SWIDTH 960 0
DWIDTH 24 0
BBX 24 24 0 -2
BITMAP
000000
000E00
000C00
000C00
430C00
7F980C
631FFE
633830
633830
633830
636C60
636C60
63CC60
6306C0
6306C0
7F03C0
630380
600380
0003C0
000660
000C38
00381E
00E008
000000
ENDCHAR

STARTCHAR cns3_2524
ENCODING 9508
SWIDTH 960 0
DWIDTH 24 0
BBX 24 24 0 -2
BITMAP
000000
08000C
0FFFFE
0C0000
0C000C
0FFFFE
0C000C
0C000C
0C000C
0FFFFC
0C000C
0C0000
0E0018
0FFFFC
0F0018
0F0018
1B0018
1B0018
1B0018
1B0018
33FFF8
630018
030018
000000
ENDCHAR

STARTCHAR cns3_2525
ENCODING 9509
SWIDTH 960 0
DWIDTH 24 0
BBX 24 24 0 -2
BITMAP
000000
000000
000018
00FFFC
460600
7F0600
660600
660600
660C00
660C60
66FFF0
660C60
660C60
660C60
660C60
7E1860
661860
601860
001860
001860
00306C
01FFFE
000000
000000
ENDCHAR

STARTCHAR cns3_2526
ENCODING 9510
SWIDTH 960 0
DWIDTH 24 0
BBX 24 24 0 -2
BITMAP
000000
40000C
7FFFFE
60000C
60030C
63FF8C
60000C
60000C
60000C
60006C
7FFFFC
60600C
60600C
60660C
60C30C
60C18C
6181CC
619FCC
67E0CC
66000C
60000C
7FFFFC
60000C
000000
ENDCHAR

STARTCHAR cns3_2527
ENCODING 9511
SWIDTH 960 0
DWIDTH 24 0
BBX 24 24 0 -2
BITMAP
000000
40000C
7FFFFE
60000C
60E70C
60C60C
60C6CC
67FFEC
60C60C
60C60C
60C60C
60C6CC
6FFFEC
60C60C
61860C
61860C
63060C
63060C
66060C
6C060C
60060C
7FFFFC
60000C
000000
ENDCHAR

STARTCHAR cns3_2528
ENCODING 9512
SWIDTH 960 0
DWIDTH 24 0
BBX 24 24 0 -2
BITMAP
000000
20000C
3FFFFE
30000C
3099CC
30CD8C
30ED8C
33218C
31830C
30C30C
30760C
303E0C
301C0C
301E0C
303F0C
30338C
3061CC
30C0EC
31806C
33000C
30000C
3FFFFC
30000C
000000
ENDCHAR

STARTCHAR cns3_2529
ENCODING 9513
SWIDTH 960 0
DWIDTH 24 0
BBX 24 24 0 -2
BITMAP
000000
20000C
3FFFFE
30000C
3000CC
37FFEC
30180C
30180C
30180C
30180C
3018CC
33FFEC
30180C
30180C
30180C
30180C
30180C
30186C
3FFFFC
30000C
30000C
3FFFFC
30000C
000000
ENDCHAR

STARTCHAR cns3_252A
ENCODING 9514
SWIDTH 960 0
DWIDTH 24 0
BBX 24 24 0 -2
BITMAP
000000
20000C
3FFFFE
30000C
30018C
31FFCC
30000C
30000C
3000CC
37FFEC
30760C
30660C
30660C
30660C
30662C
30C62C
30C63C
31873C
3303EC
36000C
30000C
3FFFFC
30000C
000000
ENDCHAR

STARTCHAR cns3_252B
ENCODING 9515
SWIDTH 960 0
DWIDTH 24 0
BBX 24 24 0 -2
BITMAP
000000
20000C
3FFFFE
31818C
31818C
31818C
31818C
31818C
31FF8C
31818C
31818C
31818C
31818C
31818C
31FF8C
31818C
31818C
31818C
31818C
31818C
31818C
3FFFFC
30000C
000000
ENDCHAR

STARTCHAR cns3_252C
ENCODING 9516
SWIDTH 960 0
DWIDTH 24 0
BBX 24 24 0 -2
BITMAP
000000
20000C
3FFFFE
30000C
301C0C
30180C
30180C
3018CC
3079EC
37FB0C
307E0C
307E0C
30DE0C
30DB0C
31998C
3318CC
36187C
3C182C
31F80C
30700C
30000C
3FFFFC
30000C
000000
ENDCHAR

STARTCHAR cns3_252D
ENCODING 9517
SWIDTH 960 0
DWIDTH 24 0
BBX 24 24 0 -2
BITMAP
000000
0E180C
0C1FFE
0C180C
0C300C
0C3018
0D8000
7FC000
0C0770
0C0660
0C0660
0C0660
0C0660
0C0660
0CC660
0F8660
1E0C60
780C64
600C64
001864
001866
003066
00603C
000000
ENDCHAR

STARTCHAR cns3_252E
ENCODING 9518
SWIDTH 960 0
DWIDTH 24 0
BBX 24 24 0 -2
BITMAP
000000
0E0018
0C3FFC
0C0018
0C0030
0C0660
0D83C0
7FC1C0
0C00CC
0C7FFE
0C018C
0C0198
0C01B0
0C0180
0D8180
0F0180
1E0180
780180
600180
000180
000180
001F80
000700
000000
ENDCHAR

STARTCHAR cns3_252F
ENCODING 9519
SWIDTH 960 0
DWIDTH 24 0
BBX 24 24 0 -2
BITMAP
000000
0E0830
0C0FF8
0C0C30
0C0C30
0C0C30
0D8C32
7FCC32
0C1832
0C181E
0C7000
0C0018
0C7FFC
0C1818
0DD818
0F0C30
1C0660
7003C0
6003C0
0003E0
000E70
00383E
00E018
000000
ENDCHAR

STARTCHAR cns3_2530
ENCODING 9520
SWIDTH 960 0
DWIDTH 24 0
BBX 24 24 0 -2
BITMAP
000000
0E0380
0C0300
0C0780
0C0780
0C06C0
0D8C60
7FCC70
0C1838
0C301E
0C6E78
0CCC60
0C0C60
0C0C60
0D8C60
0F0C60
1E0C60
700C60
601860
001860
001860
003060
006060
000000
ENDCHAR

STARTCHAR cns3_2531
ENCODING 9521
SWIDTH 960 0
DWIDTH 24 0
BBX 24 24 0 -2
BITMAP
000000
040030
07FFF8
060030
060030
060030
07FFF0
060030
060030
060030
07FFF0
060030
001C00
001800
001800
001860
0FFFF0
001800
001800
001800
00180C
7FFFFE
000000
000000
ENDCHAR

STARTCHAR cns3_2532
ENCODING 9522
SWIDTH 960 0
DWIDTH 24 0
BBX 24 24 0 -2
BITMAP
000000
00E380
00C300
00C360
07FFF0
00C300
00C300
00C318
1FFFFC
00C300
018300
018300
030300
061F00
0C1B00
001800
001860
0FFFF0
001800
001800
001800
00180C
7FFFFE
000000
ENDCHAR

STARTCHAR cns3_2533
ENCODING 9523
SWIDTH 960 0
DWIDTH 24 0
BBX 24 24 0 -2
BITMAP
000000
0000C0
0FFFE0
000000
000000
000018
3FFFFC
00C600
00C600
00C604
018604
018606
03070E
0603FC
1C3800
003000
003060
0FFFF0
003000
003000
003000
00300C
7FFFFE
000000
ENDCHAR

STARTCHAR cns3_2534
ENCODING 9524
SWIDTH 960 0
DWIDTH 24 0
BBX 24 24 0 -2
BITMAP
000000
0E0038
0C0030
0C0C30
0C0630
0C0730
0D8330
7FC030
0C0030
0C0830
0C0E30
0C0730
0C0330
0C0036
0D803E
0F01F0
1C3E30
786030
300030
000030
000030
000030
000030
000000
ENDCHAR

STARTCHAR cns3_2535
ENCODING 9525
SWIDTH 960 0
DWIDTH 24 0
BBX 24 24 0 -2
BITMAP
000000
0E01C0
0C0180
0C0180
0C0180
0C7FFE
0D981C
7FD818
0C1818
0C0C30
0C0C30
0C0C30
0C0660
0C0660
0DC3E0
0F03C0
1C01C0
7801C0
300360
000670
000C38
00181E
00700C
000000
ENDCHAR

STARTCHAR cns3_2536
ENCODING 9526
SWIDTH 960 0
DWIDTH 24 0
BBX 24 24 0 -2
BITMAP
000000
0E0018
0C1FFC
0C0000
0C0000
0C0000
0D8000
7FC000
0C000C
0C7FFE
0C0CC0
0C0CC0
0C0CC0
0C0CC0
0D8CC0
0F0CC0
1C18C0
7818C4
3030C4
0030C6
0060E6
00C07C
038000
000000
ENDCHAR

STARTCHAR cns3_2537
ENCODING 9527
SWIDTH 960 0
DWIDTH 24 0
BBX 24 24 0 -2
BITMAP
000000
0E0000
0C000C
0C7FFE
0C0600
0C0600
0D8600
7FC618
0C0FFC
0C0C18
0C0C18
0C0C18
0C0C18
0C1830
0D9830
0F1FF0
1C3030
780030
300060
000060
00006C
007FFE
000000
000000
ENDCHAR

STARTCHAR cns3_2538
ENCODING 9528
SWIDTH 960 0
DWIDTH 24 0
BBX 24 24 0 -2
BITMAP
000000
0E0380
0C0300
0C0300
0C0330
0C3FF8
0D8330
7FC330
0C0330
0C0330
0C0330
0C033C
0C7FFE
0C0300
0D8700
0F0780
1C06C0
780CC0
300C60
001878
00303C
00601E
00C000
000000
ENDCHAR

STARTCHAR cns3_2539
ENCODING 9529
SWIDTH 960 0
DWIDTH 24 0
BBX 24 24 0 -2
BITMAP
000000
0E38E0
0C30C0
0C30C0
0C30C0
0C30C0
0F30C0
7FB0C0
0C36C8
0C3FFC
0C30C0
0C30C0
0C30C0
0C30C0
0DB0C0
0F30C0
1C30C4
7830C4
3030C4
0037C6
003CE6
01F07C
00C000
000000
ENDCHAR

STARTCHAR cns3_253A
ENCODING 9530
SWIDTH 960 0
DWIDTH 24 0
BBX 24 24 0 -2
BITMAP
000000
0E0030
0C0078
0C01E0
0C0780
0C7F00
0D8300
7FC318
0C033C
0C0FC0
0C7B00
0C0300
0C0300
0C030E
0D837C
0F3F80
1E6300
7C0304
300304
000304
000306
000386
0001FC
000000
ENDCHAR

STARTCHAR cns3_253B
ENCODING 9531
SWIDTH 960 0
DWIDTH 24 0
BBX 24 24 0 -2
BITMAP
000000
0E0700
0C0600
0C0C00
0C0C18
0C0FFC
0F1B80
7FB300
0C0300
0C030C
0C3FFE
0C030C
0C030C
0C030C
0DC30C
0F030C
1E0618
780618
600C18
000C18
001838
0033F0
0060E0
000000
ENDCHAR

STARTCHAR cns3_253C
ENCODING 9532
SWIDTH 960 0
DWIDTH 24 0
BBX 24 24 0 -2
BITMAP
000000
0E0E00
0C0C00
0C0C00
0C0C00
0C0C0C
0D9FFE
7FD830
0C1830
0C3830
0C3C30
0C6C60
0CCC60
0C0660
0D87C0
0F03C0
1E01C0
7C01C0
3003E0
000670
000C38
00381E
00E00C
000000
ENDCHAR

STARTCHAR cns3_253D
ENCODING 9533
SWIDTH 960 0
DWIDTH 24 0
BBX 24 24 0 -2
BITMAP
000000
000E00
0E0C00
0C0C00
0C180C
0C1FFE
0C300C
0DB00C
7FE38C
0C030C
0C030C
0C060C
0C060C
0C0D8C
0C0CCC
0DBFF8
0F3878
1C0018
780018
300018
000030
0007F0
0000E0
000000
ENDCHAR

STARTCHAR cns3_253E
ENCODING 9534
SWIDTH 960 0
DWIDTH 24 0
BBX 24 24 0 -2
BITMAP
000000
001C00
1C1800
181800
18180C
183FFE
18366C
1B666C
7FE66C
18CCCC
180CCC
180CCC
18198C
18198C
18318C
1B6318
1EC318
1D8618
780C18
301818
003038
0061F0
000060
000000
ENDCHAR

STARTCHAR cns3_253F
ENCODING 9535
SWIDTH 960 0
DWIDTH 24 0
BBX 24 24 0 -2
BITMAP
000000
0E0000
0C0E00
0C0C0C
0C0DFE
0C180C
0D180C
7FB00C
0C338C
0CE30C
0C730C
0C360C
0C1E0C
0C0C0C
0D8C0C
0F180C
1C1B0C
78318C
30FFCC
0060CC
000018
0001F8
000070
000000
ENDCHAR

STARTCHAR cns3_2540
ENCODING 9536
SWIDTH 960 0
DWIDTH 24 0
BBX 24 24 0 -2
BITMAP
000000
0E200C
0C3FFE
0C3000
0C3000
0C3000
0DB000
7FF018
0C3FFC
0C3C18
0C3C18
0C3C18
0C3630
0C3630
0DB660
0F6360
1E63C0
7861C0
30C3C0
00C360
018638
030C1E
063808
000000
ENDCHAR

STARTCHAR cns3_2541
ENCODING 9537
SWIDTH 960 0
DWIDTH 24 0
BBX 24 24 0 -2
BITMAP
000000
000E00
000C00
000C18
00CE3C
1FEF70
00CDC0
00CDC0
018C60
030C38
0E0C1E
387C0C
001800
000000
001C00
001800
001860
0FFFF0
001800
001800
001800
00180C
7FFFFE
000000
ENDCHAR

STARTCHAR cns3_2542
ENCODING 9538
SWIDTH 960 0
DWIDTH 24 0
BBX 24 24 0 -2
BITMAP
000000
000000
080FF0
0FFEC0
0C30C0
0C30C0
0C30C0
0C30C0
0C3060
0C3060
183030
183018
18301E
30000C
601C00
001800
001860
0FFFF0
001800
001800
001800
00180C
7FFFFE
000000
ENDCHAR

STARTCHAR cns3_2543
ENCODING 9539
SWIDTH 960 0
DWIDTH 24 0
BBX 24 24 0 -2
BITMAP
000000
001C00
001818
3FFFFC
001800
0018C0
0FFFE0
18000C
1FFFFE
18000C
380018
31C000
018000
0180C0
0181E0
018700
01BC00
01E000
018010
018010
018018
01C038
00FFF0
000000
ENDCHAR

STARTCHAR cns3_2544
ENCODING 9540
SWIDTH 960 0
DWIDTH 24 0
BBX 24 24 0 -2
BITMAP
000000
003800
003030
7FFFF8
003000
003180
1FFFC0
200018
3FFFFC
300018
61C730
618630
018600
018600
018600
018600
018600
030604
030604
060606
0C070E
1803FC
700000
000000
ENDCHAR

STARTCHAR cns3_2545
ENCODING 9541
SWIDTH 960 0
DWIDTH 24 0
BBX 24 24 0 -2
BITMAP
000000
000E00
000C0C
0FFFFE
000C00
000C60
03FFF0
000000
08000C
0FFFFE
0C0C0C
0C0C0C
0C0C0C
0FFFFC
0C000C
0C0000
0C0000
0C0000
0C0000
180000
180000
300000
600000
000000
ENDCHAR

STARTCHAR cns3_2546
ENCODING 9542
SWIDTH 960 0
DWIDTH 24 0
BBX 24 24 0 -2
BITMAP
000000
007000
006180
00C0C0
00C070
0187F8
3FFF18
18C304
00C304
018306
03E38E
0EC1FC
3980C0
01FFE0
0380C0
06C180
0C6300
183600
001E00
003F00
00E3C0
0380FE
3E0030
000000
ENDCHAR

STARTCHAR cns3_2547
ENCODING 9543
SWIDTH 960 0
DWIDTH 24 0
BBX 24 24 0 -2
BITMAP
000000
003800
003018
7FFFFC
003000
003030
3FFFF8
003000
003000
00300C
7FFFFE
01C000
018060
03FFF0
060060
0F00C0
198180
70C300
007E00
003C00
00F780
0781FE
7C0070
000000
ENDCHAR

STARTCHAR cns3_2548
ENCODING 9544
SWIDTH 960 0
DWIDTH 24 0
BBX 24 24 0 -2
BITMAP
000000
007000
006000
20600C
3FFFFE
30000C
30700C
3060CC
30FFEC
30C0CC
3180CC
33C18C
36618C
30330C
301E0C
300C0C
30180C
30700C
31C00C
37000C
30000C
3FFFFC
30000C
000000
ENDCHAR

STARTCHAR cns3_2549
ENCODING 9545
SWIDTH 960 0
DWIDTH 24 0
BBX 24 24 0 -2
BITMAP
000000
003800
003000
00300C
7FFFFE
006300
00C180
0180C0
030060
0E01B8
1FFFDE
700008
000000
000030
1FFFF8
007000
006000
00E0C0
00C060
018030
018FF8
07F018
030018
000000
ENDCHAR

STARTCHAR cns3_254A
ENCODING 9546
SWIDTH 960 0
DWIDTH 24 0
BBX 24 24 0 -2
BITMAP
000000
003800
00300C
7FFFFE
006300
006180
00C0C0
019C60
031838
0E181E
381818
1FFFFC
003C00
007E00
00DB00
0199C0
0718F0
1C183C
301800
001800
001800
001800
001800
000000
ENDCHAR

STARTCHAR cns3_254B
ENCODING 9547
SWIDTH 960 0
DWIDTH 24 0
BBX 24 24 0 -2
BITMAP
000000
0E01C0
0C0180
0C0180
0C018C
0CFFFE
7FE000
0CC000
18C000
18C860
198FF0
198C60
318C60
318C60
330C60
7B0C60
0F0C60
071864
079864
0D9864
183066
306066
60C03C
000000
ENDCHAR

STARTCHAR cns3_254C
ENCODING 9548
SWIDTH 960 0
DWIDTH 24 0
BBX 24 24 0 -2
BITMAP
000000
0E071C
0C0618
0C0618
0C0618
0CC61C
7FFFFE
0CC618
0CC618
18C618
18C618
198618
198618
31861C
31BFFE
7B0618
0F0C18
060C18
079818
0D9818
183018
306018
60C018
000000
ENDCHAR

STARTCHAR cns3_254D
ENCODING 9549
SWIDTH 960 0
DWIDTH 24 0
BBX 24 24 0 -2
BITMAP
000000
0E01C0
0C0180
0C01B0
0C0198
0CC198
7FE18C
0CDFFE
0CC180
18C180
18C1E0
1981C0
1981C0
3181C0
3183C0
7B03C0
0F03C0
0706C4
0786C4
0D8CC4
180CC6
3018E6
60307C
000000
ENDCHAR

STARTCHAR cns3_254E
ENCODING 9550
SWIDTH 960 0
DWIDTH 24 0
BBX 24 24 0 -2
BITMAP
000000
0E0380
0C0300
0C0300
0C0318
0CDFFC
7FE318
0CC318
0CC318
18C318
18C318
19831E
19FFFE
318300
318780
7B0780
0F06C0
070CC0
078C60
0D9830
183038
30601E
60C008
000000
ENDCHAR

STARTCHAR cns3_254F
ENCODING 9551
SWIDTH 960 0
DWIDTH 24 0
BBX 24 24 0 -2
BITMAP
000000
0E0600
0C0700
0C0600
0C0600
0CCC0C
7FEFFE
0CCC0C
0CD80C
18F0CC
18CFEC
19800C
19800C
31800C
31806C
7301D8
1F0718
071E18
078C18
0D8018
180038
3003F0
600060
000000
ENDCHAR

STARTCHAR cns3_2550
ENCODING 9552
SWIDTH 960 0
DWIDTH 24 0
BBX 24 24 0 -2
BITMAP
000000
0E0060
0C7FF0
0C0C60
0C0C60
0CCC60
7FEC60
18CC60
18CC6C
18CFFE
198C0C
198C0C
318E18
318E18
331B18
7B1B30
0F19B0
0730E0
07B0E0
0DE1F0
18633E
30C618
619C00
000000
ENDCHAR

STARTCHAR cns3_2551
ENCODING 9553
SWIDTH 960 0
DWIDTH 24 0
BBX 24 24 0 -2
BITMAP
000000
040030
07FFF8
060030
060030
060030
07FFF0
060030
060030
060030
07FFF0
060030
007000
00600C
7FFFFE
00C180
018180
030300
07F600
001F00
003BC0
00E0F0
1F8038
000000
ENDCHAR

STARTCHAR cns3_2552
ENCODING 9554
SWIDTH 960 0
DWIDTH 24 0
BBX 24 24 0 -2
BITMAP
000000
0E0818
0C0FFC
0C0C18
0C0C18
0CCC1C
7FFFFE
0CCC18
18CC18
18CC18
198C1C
19BFFE
318C18
318C18
630C18
3B0C18
0F0C18
071818
0F9818
0D9818
183018
3060F8
60C030
000000
ENDCHAR

STARTCHAR cns3_2553
ENCODING 9555
SWIDTH 960 0
DWIDTH 24 0
BBX 24 24 0 -2
BITMAP
000000
001C00
001800
38180E
30180C
30180C
3FFFFC
30180C
001800
00180C
7FFFFE
000000
007000
00600C
7FFFFE
00C180
018180
078300
01FF00
000F80
0039E0
00E078
3F8038
000000
ENDCHAR

STARTCHAR cns3_2554
ENCODING 9556
SWIDTH 960 0
DWIDTH 24 0
BBX 24 24 0 -2
BITMAP
000000
0E080C
0C0FFE
0C0C0C
0C1C0C
0CD808
7FE000
0CC460
18C7F0
198660
198660
318660
318660
318660
630660
7B0660
0F0C60
070C64
0F8C64
0D9864
181866
303066
60603C
000000
ENDCHAR

STARTCHAR cns3_2555
ENCODING 9557
SWIDTH 960 0
DWIDTH 24 0
BBX 24 24 0 -2
BITMAP
000000
0E01C0
0C0180
0C0180
0C0180
0CD18C
7FFFFE
0CF18C
18F18C
18E198
19C1C0
19C380
318380
318380
330780
7B0780
0F0D80
070D84
079984
0D9986
1831C6
3060FC
600000
000000
ENDCHAR

STARTCHAR cns3_2556
ENCODING 9558
SWIDTH 960 0
DWIDTH 24 0
BBX 24 24 0 -2
BITMAP
000000
0E000C
0C3FFE
0C00C0
0C00C0
0CC0C0
7FE180
0CC180
18C380
18C3E0
1987B0
198D98
31998E
31B186
336180
7B0180
0E0180
070180
078180
0D8180
180180
300180
600180
000000
ENDCHAR

STARTCHAR cns3_2557
ENCODING 9559
SWIDTH 960 0
DWIDTH 24 0
BBX 24 24 0 -2
BITMAP
000000
0E0010
0C0038
0C00F0
0C03C0
0CFF80
7FC180
18C18C
18C1BE
18C3F0
18DD80
318180
318180
31818C
3301FE
7B3FC0
0F3180
070184
078184
0D8184
180186
3001C6
6000FC
000000
ENDCHAR

STARTCHAR cns3_2558
ENCODING 9560
SWIDTH 960 0
DWIDTH 24 0
BBX 24 24 0 -2
BITMAP
000000
001C00
00180C
7FFFFE
0181C0
00C380
006700
003C00
003C00
01E7E0
0F01BE
38FFC0
000180
000300
000E00
000C0C
3FFFFE
000C00
000C00
000C00
000C00
01FC00
003800
000000
ENDCHAR

STARTCHAR cns3_2559
ENCODING 9561
SWIDTH 960 0
DWIDTH 24 0
BBX 24 24 0 -2
BITMAP
000000
003800
003000
20300C
3FFFFE
30000C
60380C
603018
003060
3FFFF0
000060
0000C0
000180
000300
000600
000C00
003800
0EE000
1F0000
1B0000
318000
70FFFE
300078
000000
ENDCHAR

STARTCHAR cns3_255A
ENCODING 9562
SWIDTH 960 0
DWIDTH 24 0
BBX 24 24 0 -2
BITMAP
000000
001C00
001800
10180C
1FFFFE
38000C
301C18
601830
001800
00180C
7FFFFE
000000
000000
00C300
00E180
01C0C0
018060
030030
030038
06001C
0C001C
18000C
300000
000000
ENDCHAR

STARTCHAR cns3_255B
ENCODING 9563
SWIDTH 960 0
DWIDTH 24 0
BBX 24 24 0 -2
BITMAP
000000
001C00
001800
10180C
1FFFFE
38000C
30018C
601FD8
00E180
01C180
0180C0
0300C0
060060
0C7030
18601E
30600C
006180
00C0C0
00C060
0181F0
033F38
1FE018
0E0000
000000
ENDCHAR

STARTCHAR cns3_255C
ENCODING 9564
SWIDTH 960 0
DWIDTH 24 0
BBX 24 24 0 -2
BITMAP
000000
060038
070030
060030
060030
06603C
7FFFFE
018030
018030
318030
1B0030
0F0C30
070630
070330
0303B0
0781B0
07C030
0CC030
0C0030
180030
300030
6007F0
0000E0
000000
ENDCHAR

STARTCHAR cns3_255D
ENCODING 9565
SWIDTH 960 0
DWIDTH 24 0
BBX 24 24 0 -2
BITMAP
000000
003800
003030
3FFFF8
006000
006030
1FFFF8
00C000
01800C
7FFFFE
0300E0
0600C0
0C00CC
1FFFFE
3000C0
60C0C0
0060C0
0070C0
0030C0
0000C0
0000C0
000FC0
000380
000000
ENDCHAR

STARTCHAR cns3_255E
ENCODING 9566
SWIDTH 960 0
DWIDTH 24 0
BBX 24 24 0 -2
BITMAP
000000
0000F0
0407E0
07FC0C
000018
0C1838
060C30
030C30
0185C0
00C180
00018C
3FFFFE
000180
000180
030180
018180
01C180
00C180
000180
000180
000180
001F80
000700
000000
ENDCHAR

STARTCHAR cns3_255F
ENCODING 9567
SWIDTH 960 0
DWIDTH 24 0
BBX 24 24 0 -2
BITMAP
000000
006000
7FF00C
0D8FFE
0D80C0
0D80C0
0D80C0
0D80C0
0D80D8
0D87FC
0D80C0
0D80C0
0D80C0
0D80C0
0D80C0
0D80CC
19BFFE
198000
198004
318004
318004
61C006
00FFFE
000000
ENDCHAR

STARTCHAR cns3_2560
ENCODING 9568
SWIDTH 960 0
DWIDTH 24 0
BBX 24 24 0 -2
BITMAP
000000
0E01C0
0C0180
0C0180
0C0180
7DE18C
6DBFFE
6DB18C
6DB18C
6DB18C
6DB18C
6DB18C
6DB18C
6DBFFC
6DB18C
6DB18C
6D8180
7F8180
618180
618180
618180
000180
000180
000000
ENDCHAR

STARTCHAR cns3_2561
ENCODING 9569
SWIDTH 960 0
DWIDTH 24 0
BBX 24 24 0 -2
BITMAP
000000
0E100C
0C1FFE
0C180C
0C180C
7DD80C
6D980C
6D980C
6D9FFC
6D980C
6D980C
6D980C
6D980C
6D980C
6D9FFC
6D980C
6DB00C
7FB00C
61B00C
61E00C
60600C
00C0FC
038038
000000
ENDCHAR

STARTCHAR cns3_2562
ENCODING 9570
SWIDTH 960 0
DWIDTH 24 0
BBX 24 24 0 -2
BITMAP
000000
0E00C0
0C0FE0
0C0CC0
0C0CC0
7DCC60
6D9860
6D9830
6DB030
6DB018
6DE01C
6D803E
6DBFF8
6D8C30
6D8C30
6D8C30
6D8C30
7F8C30
619830
619870
603060
0067E0
01C1C0
000000
ENDCHAR

STARTCHAR cns3_2563
ENCODING 9571
SWIDTH 960 0
DWIDTH 24 0
BBX 24 24 0 -2
BITMAP
000000
003800
003000
70301C
603018
603018
603018
7FFFF8
600018
400018
7FFFFC
603018
603018
603018
603018
7FFFF8
600018
600004
600004
600004
600006
70000E
3FFFFC
000000
ENDCHAR

STARTCHAR cns3_2564
ENCODING 9572
SWIDTH 960 0
DWIDTH 24 0
BBX 24 24 0 -2
BITMAP
000000
001C00
001800
0E181C
0C1818
0C1818
0C1818
0FFFF8
0C1818
001800
00180C
7FFFFE
0300C0
0180C0
018180
00C300
006600
003C00
001C00
007700
01C3C0
0F00FE
78000C
000000
ENDCHAR

STARTCHAR cns3_2565
ENCODING 9573
SWIDTH 960 0
DWIDTH 24 0
BBX 24 24 0 -2
BITMAP
000000
0E01C0
0C0180
0C0180
0C0198
7DFFFC
6D8C18
6D8C18
6D8C18
6D8C18
6D8C30
6D8C30
6D8630
6D8660
6D8360
6D83C0
6D81C0
7F83C0
618360
618670
600C38
00181E
00F008
000000
ENDCHAR

STARTCHAR cns3_2566
ENCODING 9574
SWIDTH 960 0
DWIDTH 24 0
BBX 24 24 0 -2
BITMAP
000000
0E100C
0C1FFE
0C1800
0C1800
7DD800
6D9800
6D9818
6D9FFC
6D9818
6D9C18
6D9C18
6D9E18
6DB630
6DB330
6DB330
6DB1E0
7FB0C0
61E1E0
61E370
60C638
019C1E
03300C
000000
ENDCHAR

STARTCHAR cns3_2567
ENCODING 9575
SWIDTH 960 0
DWIDTH 24 0
BBX 24 24 0 -2
BITMAP
000000
0001F0
103F80
1FE000
180000
18000C
1FFFFE
180000
180000
1C0018
1FFFFC
1E0C18
1E0C18
1E0C18
1FFFF8
360018
360000
360000
360004
360004
660006
67000E
63FFFC
000000
ENDCHAR

STARTCHAR cns3_2568
ENCODING 9576
SWIDTH 960 0
DWIDTH 24 0
BBX 24 24 0 -2
BITMAP
000000
0E00E0
0C0070
0C0760
0C0660
4D8660
7FCC30
6D8C30
6D9818
6D9818
6DB00C
6DE006
6D9FF8
6D8730
6D8630
6D8630
6D8630
6F8630
6D0C30
0C0C30
0C1830
0C33F0
0CE0E0
000000
ENDCHAR

STARTCHAR cns3_2569
ENCODING 9577
SWIDTH 960 0
DWIDTH 24 0
BBX 24 24 0 -2
BITMAP
000000
0E0700
0C0600
0C0600
0C0700
4D8D80
7FCCC0
6D9860
6DB038
6DE01E
6D9CE8
6D98C0
6D98C0
6D98C0
6D98C0
6D98C0
6D98C0
6D98C0
6C30C0
0C30C0
0C30C0
0C60C0
0CC0C0
000000
ENDCHAR

STARTCHAR cns3_256A
ENCODING 9578
SWIDTH 960 0
DWIDTH 24 0
BBX 24 24 0 -2
BITMAP
000000
0038E0
0036C0
0FFFC0
003180
003300
00360C
7FFFFE
003800
003E00
006C00
01CC60
03FFF0
0F8C60
798C60
018C60
018C60
018C60
018FE0
018CC0
000C00
000C00
000C00
000000
ENDCHAR

STARTCHAR cns3_256B
ENCODING 9579
SWIDTH 960 0
DWIDTH 24 0
BBX 24 24 0 -2
BITMAP
000000
0001F8
087F80
0F8C00
0C0C00
0C060C
0FFFFE
0C0600
0C0300
0DDD82
0F18C2
7C1872
34183E
07FFFE
061830
061830
061830
061830
061830
061830
0619F0
061860
001800
000000
ENDCHAR

STARTCHAR cns3_256C
ENCODING 9580
SWIDTH 960 0
DWIDTH 24 0
BBX 24 24 0 -2
BITMAP
000000
000E00
100C0C
1FFFFE
180000
181C00
1818C0
181860
18180C
181BFE
1FFE00
180C00
180C70
180C60
180CC0
180780
180700
180700
300F84
3038C4
306066
31C036
67001E
000000
ENDCHAR

STARTCHAR cns3_256D
ENCODING 9581
SWIDTH 960 0
DWIDTH 24 0
BBX 24 24 0 -2
BITMAP
000000
000E00
000C00
100C0C
1FFFFE
180000
180000
180700
180600
180600
180600
180618
1BFFFC
180600
180600
1806C0
180660
300638
300618
300600
30060C
6FFFFE
600000
000000
ENDCHAR

STARTCHAR cns3_256E
ENCODING 9582
SWIDTH 960 0
DWIDTH 24 0
BBX 24 24 0 -2
BITMAP
000000
000700
08060C
0FFFFE
0C0000
0C0018
0D03FC
0DFE00
0D800C
0DFFFE
0D800C
0D800C
0DFFFC
0D800C
0D8000
0D8000
0D8000
1B0000
1B0000
1B0000
1B0000
360000
600000
000000
ENDCHAR

STARTCHAR cns3_256F
ENCODING 9583
SWIDTH 960 0
DWIDTH 24 0
BBX 24 24 0 -2
BITMAP
000000
001C00
001800
00180C
7FFFFE
003000
006000
006180
00C0C0
0187E0
07FE38
1C0018
00E1C0
00C180
00C18C
7FFFFE
00C180
00C180
00C180
018180
018180
030180
060180
000000
ENDCHAR

STARTCHAR cns3_2570
ENCODING 9584
SWIDTH 960 0
DWIDTH 24 0
BBX 24 24 0 -2
BITMAP
000000
030E00
7F8C00
030C00
030C18
03FFFC
430C00
7F0C00
631800
6019C0
601980
631980
7FB180
633300
033300
033300
036660
036630
06CC18
060C3C
0619EE
7E7F06
1C3006
000000
ENDCHAR

STARTCHAR cns3_2571
ENCODING 9585
SWIDTH 960 0
DWIDTH 24 0
BBX 24 24 0 -2
BITMAP
000000
030E00
7F8C00
030C00
030C0C
030FFE
23180C
3F180C
333398
306330
300300
630300
7F8300
630300
030380
0303C0
0306C0
030660
030C30
061830
063018
3E600E
0DC008
000000
ENDCHAR

STARTCHAR cns3_2572
ENCODING 9586
SWIDTH 960 0
DWIDTH 24 0
BBX 24 24 0 -2
BITMAP
000000
038030
030038
030060
0360C0
7FF180
186718
18601C
186030
186060
0CC0C0
0CC18C
0CC70E
07C01C
078038
038070
0380E0
038180
06E700
0C7000
183C00
300FFE
60007C
000000
ENDCHAR

STARTCHAR cns3_2573
ENCODING 9587
SWIDTH 960 0
DWIDTH 24 0
BBX 24 24 0 -2
BITMAP
000000
0E0000
0C0300
0C0180
0C00C0
0C0060
0D8060
1CCE00
3CCC00
7C0C00
6C0C00
0C0C30
0C6C18
0C6C0C
0CCC0E
0CCC06
0D8C16
0D8C10
0C0C10
0C0C18
0C0E38
0C07F0
0C0000
000000
ENDCHAR

STARTCHAR cns3_2574
ENCODING 9588
SWIDTH 960 0
DWIDTH 24 0
BBX 24 24 0 -2
BITMAP
000000
0E0380
0C0300
0C0360
0C0338
0F0318
1D830C
3DBFFE
3C0300
7C0300
6C03C0
0C0380
0C0380
0C0780
0C0780
0C0780
0C0D80
0C0D84
0C1D84
0C1984
0C3186
0C61CE
0CC0FC
000000
ENDCHAR

STARTCHAR cns3_2575
ENCODING 9589
SWIDTH 960 0
DWIDTH 24 0
BBX 24 24 0 -2
BITMAP
000000
071C00
061800
063800
0C3018
0C7FFC
0C6030
1CFFF8
1CC000
3D8060
6C7FF0
0C0060
0C00C0
0C0180
0C0300
0C0600
0C0C00
0C1800
0C3004
0C6004
0C6006
0C700E
0C3FFC
000000
ENDCHAR

STARTCHAR cns3_2576
ENCODING 9590
SWIDTH 960 0
DWIDTH 24 0
BBX 24 24 0 -2
BITMAP
000000
0E0380
0C0300
0C0380
0C0780
0F06C0
0D8C60
1D8C30
3C1818
6C301E
6C7C78
0CD860
0C1860
0C1860
0C1860
0C1860
0C1860
0C1860
0C3060
0C3060
0C6060
0C6060
0CC060
000000
ENDCHAR

STARTCHAR cns3_2577
ENCODING 9591
SWIDTH 960 0
DWIDTH 24 0
BBX 24 24 0 -2
BITMAP
000000
000E00
100C0C
1FFFFE
180000
180000
180C00
180600
180380
180180
183800
183000
183030
18F018
19B01C
19B00C
1BB00E
333026
333020
303020
303030
303870
601FE0
000000
ENDCHAR

STARTCHAR cns3_2578
ENCODING 9592
SWIDTH 960 0
DWIDTH 24 0
BBX 24 24 0 -2
BITMAP
000000
0000C0
000FE0
00FE00
07D800
001800
00180C
1FFFFE
001800
001800
001800
001800
001800
001800
000000
000C00
01C730
198318
19804C
31804E
318066
61C0E0
00FFC0
000000
ENDCHAR

STARTCHAR cns3_2579
ENCODING 9593
SWIDTH 960 0
DWIDTH 24 0
BBX 24 24 0 -2
BITMAP
000000
0E0380
0C0300
0C0300
0C030C
0E7FFE
1F0600
3DC600
3CC600
6C060C
6C07FE
0C060C
0C060C
0C0C0C
0C0C0C
0C0C0C
0C180C
0C1818
0C3018
0C3018
0C6030
0CC3F0
0D80E0
000000
ENDCHAR

STARTCHAR cns3_257A
ENCODING 9594
SWIDTH 960 0
DWIDTH 24 0
BBX 24 24 0 -2
BITMAP
000000
0E01C0
0C0180
0C0180
0C018C
0E7FFE
1F8000
3CC000
7CC000
6C0830
0C0FF8
0C0C30
0C0C30
0C0C30
0C0C30
0C0C30
0C0C30
0C1832
0C1832
0C1832
0C3032
0C601E
0CC000
000000
ENDCHAR

STARTCHAR cns3_257B
ENCODING 9595
SWIDTH 960 0
DWIDTH 24 0
BBX 24 24 0 -2
BITMAP
000000
0E0380
0C0300
0C0300
0C0318
3F7FFC
3D9830
3D9830
6C1830
6C1830
0C1860
0C1860
0C0CC0
0C0CC0
0C0780
0C0780
0C0300
0C0780
0C0CC0
0C1860
0C3030
0C601E
0DC008
000000
ENDCHAR

STARTCHAR cns3_257C
ENCODING 9596
SWIDTH 960 0
DWIDTH 24 0
BBX 24 24 0 -2
BITMAP
000000
0E0018
0C3FFC
0C0018
0C0030
0F0660
0D83C0
1CC1C0
3CC18C
6C7FFE
6C018C
0C0198
0C01B0
0C0180
0C0180
0C0180
0C0180
0C0180
0C0180
0C0180
0C0180
0C1F80
0C0700
000000
ENDCHAR

STARTCHAR cns3_257D
ENCODING 9597
SWIDTH 960 0
DWIDTH 24 0
BBX 24 24 0 -2
BITMAP
000000
0E0000
0C0018
0C3FFC
0C0000
0F0000
1D8000
3DC000
3CC000
6C000C
6C7FFE
0C0180
0C0180
0C0180
0C0300
0C0300
0C0310
0C0618
0C060C
0C0C7E
0C3FC6
0C3806
0C0000
000000
ENDCHAR

STARTCHAR cns3_257E
ENCODING 9598
SWIDTH 960 0
DWIDTH 24 0
BBX 24 24 0 -2
BITMAP
000000
0E0700
0C0600
0C06C0
0C0660
0E0630
1F0630
3F060C
3DFFFE
6C0600
6C0600
0C0700
0C0F00
0C0D80
0C0D80
0C18C0
0C18C0
0C1860
0C3070
0C6038
0CC01E
0D8008
0C0000
000000
ENDCHAR

STARTCHAR cns3_2621
ENCODING 9761
SWIDTH 960 0
DWIDTH 24 0
BBX 24 24 0 -2
BITMAP
000000
0E0380
0C0300
0C0300
0C0300
0F0300
0D8300
1D830C
3CFFFE
7C0300
6C0300
0C0300
0C0700
0C0780
0C0D80
0C0CC0
0C18C0
0C1860
0C3430
0C3618
0C639E
0CC18C
0D8000
000000
ENDCHAR

STARTCHAR cns3_2622
ENCODING 9762
SWIDTH 960 0
DWIDTH 24 0
BBX 24 24 0 -2
BITMAP
000000
0E0700
0C0600
0C0660
0C7FF0
0F0660
1D8660
3CCC60
3CCC64
7C1866
6C1BE6
0C333C
0C6300
0CC300
0C030C
0CFFFE
0C0300
0C0300
0C0300
0C0300
0C0300
0C0300
0C0300
000000
ENDCHAR

STARTCHAR cns3_2623
ENCODING 9763
SWIDTH 960 0
DWIDTH 24 0
BBX 24 24 0 -2
BITMAP
000000
0E0000
0C003E
0C00F0
0C0780
0F3D80
1D8180
3CC180
3CC180
7C0180
6C018C
0C7FFE
0C0180
0C0180
0C0180
0C0180
0C0180
0C0180
0C0180
0C0180
0C018C
0C7FFE
0C0000
000000
ENDCHAR

STARTCHAR cns3_2624
ENCODING 9764
SWIDTH 960 0
DWIDTH 24 0
BBX 24 24 0 -2
BITMAP
000000
0E0060
0C07F0
0C0660
0C0E60
0F0C60
1D9830
3CD830
3CF030
6C3018
6C600C
0CC036
0C3FF8
0C0C30
0C0C30
0C0C30
0C0C30
0C0C30
0C1830
0C1830
0C3030
0C67F0
0DC0E0
000000
ENDCHAR

STARTCHAR cns3_2625
ENCODING 9765
SWIDTH 960 0
DWIDTH 24 0
BBX 24 24 0 -2
BITMAP
000000
000760
000630
00060C
7FFFFE
000600
000600
000600
10361C
1FFB18
183318
183330
1833F0
1831E0
1831C0
1831C0
1FF1C2
1833C2
183662
000C62
001832
00301E
00E00E
000000
ENDCHAR

STARTCHAR cns3_2626
ENCODING 9766
SWIDTH 960 0
DWIDTH 24 0
BBX 24 24 0 -2
BITMAP
000000
000760
000630
00060C
7FFFFE
000600
038600
030600
03061C
030318
060318
06C330
0C6330
0C71E0
3FF1E0
3031C0
001DC2
00F3C2
0F8662
780C62
601836
00301E
00E00E
000000
ENDCHAR

STARTCHAR cns3_2627
ENCODING 9767
SWIDTH 960 0
DWIDTH 24 0
BBX 24 24 0 -2
BITMAP
000000
000380
000330
000318
08030C
0FFFFE
0C0300
0C0300
0C0318
0C1B1C
0FFF18
0C61B0
0C61F0
0C61E0
0C61C0
0C61C0
1863C2
1BE3C2
19C662
180C36
30381E
30E00E
600006
000000
ENDCHAR

STARTCHAR cns3_2628
ENCODING 9768
SWIDTH 960 0
DWIDTH 24 0
BBX 24 24 0 -2
BITMAP
000000
0801F8
0FFF00
0C0000
0C000C
0FFFFE
0C000C
0C000C
0C000C
0FFFFC
0C000C
0C0E00
0C0C00
180C0C
1BFFFE
180E00
180F00
181B00
301980
3030C0
306070
60C03E
078018
000000
ENDCHAR

STARTCHAR cns3_2629
ENCODING 9769
SWIDTH 960 0
DWIDTH 24 0
BBX 24 24 0 -2
BITMAP
000000
00340C
3FFFFE
003600
003600
20360C
3FF7FE
30360C
30360C
30360C
30360C
30360C
3FF7FC
30360C
003600
003600
006600
006600
006600
00C600
00C600
00C600
018600
000000
ENDCHAR

STARTCHAR cns3_262A
ENCODING 9770
SWIDTH 960 0
DWIDTH 24 0
BBX 24 24 0 -2
BITMAP
000000
070000
06000C
067FFE
060300
06C300
3FE300
060300
060300
060300
060318
07BFFC
070300
0E0300
3E0300
360300
060300
060300
060300
060300
06030C
3EFFFE
0C0000
000000
ENDCHAR

STARTCHAR cns3_262B
ENCODING 9771
SWIDTH 960 0
DWIDTH 24 0
BBX 24 24 0 -2
BITMAP
000000
0E0018
0C7FFC
0C00C0
0C00C0
0F38C0
7FB0C0
0C30C0
0C30C0
0C30CC
0C7FFE
0F61C0
0E63C0
1C07C0
7C06C0
6C0CC0
0C18C0
0C30C0
0C60C0
0DC0C0
0C00C0
7C0FC0
180380
000000
ENDCHAR

STARTCHAR cns3_262C
ENCODING 9772
SWIDTH 960 0
DWIDTH 24 0
BBX 24 24 0 -2
BITMAP
000000
0E0380
0C0300
0C0360
0C0330
0D8318
7FC318
0C030C
0C7FFE
0C0300
0C0300
0F0700
0E0780
1C0780
7C06C0
6C0CC0
0C0C60
0C1860
0C1830
0C3038
0C601E
7CC00C
198000
000000
ENDCHAR

STARTCHAR cns3_262D
ENCODING 9773
SWIDTH 960 0
DWIDTH 24 0
BBX 24 24 0 -2
BITMAP
000000
0E0010
0C0078
0C00E0
0C0780
0DBF00
7FC300
0C0318
0C033C
0C07C0
0C3B00
0F6300
0E0300
3C030F
6C037C
6C7F80
0C6300
0C0304
0C0304
0C0304
0C0306
7C0386
1801FC
000000
ENDCHAR

STARTCHAR cns3_262E
ENCODING 9774
SWIDTH 960 0
DWIDTH 24 0
BBX 24 24 0 -2
BITMAP
000000
0E0070
0C3860
0C3060
0C3060
0DB060
7FF060
0C3060
0C3FE0
0C3000
0C3000
0F3000
0E3030
3C3FF8
6C3030
6C3030
0C3030
0C6030
0C6030
0C6030
0CC030
7CC030
198030
000000
ENDCHAR

STARTCHAR cns3_262F
ENCODING 9775
SWIDTH 960 0
DWIDTH 24 0
BBX 24 24 0 -2
BITMAP
000000
0E0000
0C0600
0C0380
0C01C0
0D80E0
7FC060
0C0E00
0C0C00
0C0C00
0C0C00
0F0C18
0E0C18
3C3C0C
7C6C0E
6C6C06
0CCC16
0CCC10
0C0C10
0C0C18
0C0E18
7C07F0
180000
000000
ENDCHAR

STARTCHAR cns3_2630
ENCODING 9776
SWIDTH 960 0
DWIDTH 24 0
BBX 24 24 0 -2
BITMAP
000000
0E0380
0C0300
0C0300
0C030C
0DFFFE
7FC600
0C0600
0C0600
0C060C
0C07FE
0F060C
0E060C
3C0C0C
6C0C0C
6C0C0C
0C180C
0C1818
0C3018
0C3018
0C6030
7CC3F0
198060
000000
ENDCHAR

STARTCHAR cns3_2631
ENCODING 9777
SWIDTH 960 0
DWIDTH 24 0
BBX 24 24 0 -2
BITMAP
000000
0E1018
0C1FFC
0C1818
0C1818
0F1818
7F9818
0C1818
0C1818
0C1818
0C1FF8
0E1B18
0C1B18
3C1B00
6C3180
6C3180
0C30C0
0C30C0
0C6060
0C6030
0CC038
7D801E
1B000C
000000
ENDCHAR

STARTCHAR cns3_2632
ENCODING 9778
SWIDTH 960 0
DWIDTH 24 0
BBX 24 24 0 -2
BITMAP
000000
0E2018
0C3FFC
0C3018
0C3018
0DB018
7FF018
0C33F8
0C3070
0C3000
0C300C
0F3FFE
0E360C
3C360C
6C3318
6C3318
0C31B0
0C31F0
0C30E0
0C30F0
0C3198
7C370E
183C06
000000
ENDCHAR

STARTCHAR cns3_2633
ENCODING 9779
SWIDTH 960 0
DWIDTH 24 0
BBX 24 24 0 -2
BITMAP
000000
0E3870
0C3060
0C3060
0C3060
0F306C
7FB1FE
0C366C
0CFF6C
0C366C
0C366C
0DB66C
0F366C
3C36CC
7C66CC
2C66CC
0C678C
0C67BC
0CC618
0CC604
0CC606
7D8706
1B03FC
000000
ENDCHAR

STARTCHAR cns3_2634
ENCODING 9780
SWIDTH 960 0
DWIDTH 24 0
BBX 24 24 0 -2
BITMAP
000000
0E0700
0C0600
0C0600
0C0600
0D860C
7FFFFE
0C0600
0C0600
0C0C18
0C0FFC
0F0E18
0E0E18
3C1B30
6C1B30
6C1BE0
0C31E0
0C30C0
0C61C0
0C6360
0CC630
7CCC1E
19980C
000000
ENDCHAR

STARTCHAR cns3_2635
ENCODING 9781
SWIDTH 960 0
DWIDTH 24 0
BBX 24 24 0 -2
BITMAP
000000
0E003C
0C07F0
0C3D80
0C0180
0D8180
7FC198
0C3FFC
0C0180
0C0180
0C0180
0F0180
0E018C
1CFFFE
7C0180
2C0180
0C0180
0C0180
0C0180
0C0180
0C0180
7C0F80
180300
000000
ENDCHAR

STARTCHAR cns3_2636
ENCODING 9782
SWIDTH 960 0
DWIDTH 24 0
BBX 24 24 0 -2
BITMAP
000000
0E01B8
0C03B0
0C0630
0C1C30
0D8C30
7FCC30
0C0C30
0C0C30
0C0C3C
0C7FFE
0F0C30
0E0C30
3C0C30
6C1830
6C1830
0C1830
0C1830
0C1830
0C3030
0C3030
7C6030
18C030
000000
ENDCHAR

STARTCHAR cns3_2637
ENCODING 9783
SWIDTH 960 0
DWIDTH 24 0
BBX 24 24 0 -2
BITMAP
000000
0E0E00
0C0C00
0C1800
0C180C
0DBFFE
7FB00C
0C600C
0C000C
0C070C
0C060C
0F060C
0E0C0C
3C0D8C
6C18CC
6C3FF8
0C3078
0C0018
0C0018
0C0018
0C0038
7C0FF0
1801E0
000000
ENDCHAR

STARTCHAR cns3_2638
ENCODING 9784
SWIDTH 960 0
DWIDTH 24 0
BBX 24 24 0 -2
BITMAP
000000
0E0000
0C0E00
0C0C0C
0C0CFE
0D980C
7FD80C
0C180C
0C330C
0C630C
0C760C
0F3E0C
0E1C0C
1C0C0C
7C180C
6C1E18
0C3318
0C3798
0CFD98
0CC018
0C0018
7C01F8
180070
000000
ENDCHAR

STARTCHAR cns3_2639
ENCODING 9785
SWIDTH 960 0
DWIDTH 24 0
BBX 24 24 0 -2
BITMAP
000000
0E01C0
0C0180
0C0380
0C03C0
0D86C0
7FC660
0C0C30
0C0C38
0C181C
0C300E
0F6300
0E0180
3C00C0
6C00C0
6C0000
0C0600
0C0300
0C0180
0C01C0
0C00E0
7C0060
180000
000000
ENDCHAR

STARTCHAR cns3_263A
ENCODING 9786
SWIDTH 960 0
DWIDTH 24 0
BBX 24 24 0 -2
BITMAP
000000
00C380
3FE300
060600
060600
060618
0607FC
060C18
060C18
06CC30
7FFE30
063630
060330
060360
0603E0
0601E0
0601C0
0601C0
0603E0
060370
060638
3E1C1E
0C700C
000000
ENDCHAR

STARTCHAR cns3_263B
ENCODING 9787
SWIDTH 960 0
DWIDTH 24 0
BBX 24 24 0 -2
BITMAP
000000
001C00
00180C
7FFFFE
0180C0
018180
00C300
007600
003C00
007F80
03DDFE
1E1838
0018C0
03FFE0
001800
001818
1FFFFC
001800
001800
001800
001800
001800
001800
000000
ENDCHAR

STARTCHAR cns3_263C
ENCODING 9788
SWIDTH 960 0
DWIDTH 24 0
BBX 24 24 0 -2
BITMAP
000000
000700
418600
7FC600
618C0C
618FFE
619800
619800
61B000
61E060
7F9FF0
618060
6180C0
6180C0
618180
618300
618300
7F8600
618C04
001804
001806
001C06
000FFC
000000
ENDCHAR

STARTCHAR cns3_263D
ENCODING 9789
SWIDTH 960 0
DWIDTH 24 0
BBX 24 24 0 -2
BITMAP
000000
000070
418060
7FC060
618060
618060
61806C
61BFFE
618060
618060
7F8060
619860
618C60
618E60
618660
618660
618060
7F8060
618060
000060
000060
0007E0
0001C0
000000
ENDCHAR

STARTCHAR cns3_263E
ENCODING 9790
SWIDTH 960 0
DWIDTH 24 0
BBX 24 24 0 -2
BITMAP
000000
040030
07FFF8
060030
060030
07FFF0
060030
060030
07FFF0
060030
00000C
3FFFFE
006300
006300
006300
00C300
00C300
00C304
018304
030304
060306
1C038E
7001FC
000000
ENDCHAR

STARTCHAR cns3_263F
ENCODING 9791
SWIDTH 960 0
DWIDTH 24 0
BBX 24 24 0 -2
BITMAP
000000
080060
0FFFF0
0C0060
0C0060
0FFFE0
0C0060
0C0060
0C0060
0FFFE0
0C3060
003800
003000
003000
003030
003FF8
003000
003000
003000
003000
00300C
7FFFFE
000000
000000
ENDCHAR

STARTCHAR cns3_2640
ENCODING 9792
SWIDTH 960 0
DWIDTH 24 0
BBX 24 24 0 -2
BITMAP
000000
080060
0FFFF0
0C0060
0C0060
0FFFE0
0C0060
0C0060
0FFFE0
0C0060
000180
07FFC0
000180
000300
001E00
001800
00180C
7FFFFE
001800
001800
001800
03F800
007000
000000
ENDCHAR

STARTCHAR cns3_2641
ENCODING 9793
SWIDTH 960 0
DWIDTH 24 0
BBX 24 24 0 -2
BITMAP
000000
003800
003300
003180
1030F0
1FFFF8
183030
183030
183030
1FFFF0
183030
183030
183030
1FFFF0
181830
181830
001860
000DC0
000F00
001F02
00F1C2
078076
3C001E
000000
ENDCHAR

STARTCHAR cns3_2642
ENCODING 9794
SWIDTH 960 0
DWIDTH 24 0
BBX 24 24 0 -2
BITMAP
000000
07000C
060FFE
06000C
06C00C
7FE00C
06080C
0E0FFC
0F0C0C
0F8C00
1ECC00
1ECC00
1E0C0C
360FFE
36180C
66180C
06000C
06000C
060018
060018
060018
0603F8
060070
000000
ENDCHAR

STARTCHAR cns3_2643
ENCODING 9795
SWIDTH 960 0
DWIDTH 24 0
BBX 24 24 0 -2
BITMAP
000000
070000
0601C0
060180
06C180
7FE180
060180
0E0180
0F1DA0
0F99B0
1FD998
1EF198
1E318C
36618C
366186
66C186
078186
060180
060180
060180
060180
061F80
060700
000000
ENDCHAR

STARTCHAR cns3_2644
ENCODING 9796
SWIDTH 960 0
DWIDTH 24 0
BBX 24 24 0 -2
BITMAP
000000
07001C
060078
0600E0
06C380
7FEF80
060180
0E0180
0F0180
0F818C
1FC19E
1EC1F0
1E1F80
360180
360180
660180
060184
060184
060184
060186
0601C6
0600FC
060000
000000
ENDCHAR

STARTCHAR cns3_2645
ENCODING 9797
SWIDTH 960 0
DWIDTH 24 0
BBX 24 24 0 -2
BITMAP
060000
070000
06000C
061FFE
06C18C
7FE18C
06018C
0E018C
0F018C
0F9B0C
1ECF0C
1EC70C
36030C
36038C
3607CC
6606CC
06066C
060C6C
060C0C
061818
063018
0663F8
06C070
000000
ENDCHAR

STARTCHAR cns3_2646
ENCODING 9798
SWIDTH 960 0
DWIDTH 24 0
BBX 24 24 0 -2
BITMAP
000000
070018
063FFC
060318
06C318
7FE318
060318
060318
070318
0F8378
0EFFF8
1EC318
1E0318
360318
360318
660318
06031A
06031A
06031A
06030E
06030E
060306
060300
000000
ENDCHAR

STARTCHAR cns3_2647
ENCODING 9799
SWIDTH 960 0
DWIDTH 24 0
BBX 24 24 0 -2
BITMAP
000000
10000C
1FFFFE
18000C
18000C
18000C
18000C
1FFFFC
180E0C
180C00
180C18
1FFFFC
180C00
180C00
181E00
183F00
183D80
186CC0
306C60
30CC3E
318C18
670C00
600C00
000000
ENDCHAR

STARTCHAR cns3_2648
ENCODING 9800
SWIDTH 960 0
DWIDTH 24 0
BBX 24 24 0 -2
BITMAP
000000
07003C
0600F0
060F80
06C180
7FE180
060180
0E0180
0F0180
0F818C
1FDFFE
1EC180
1E0180
360180
360180
660180
060180
060180
060180
060180
060180
060180
060180
000000
ENDCHAR

STARTCHAR cns3_2649
ENCODING 9801
SWIDTH 960 0
DWIDTH 24 0
BBX 24 24 0 -2
BITMAP
000000
070C0E
060E8C
060CEC
06CCCC
7FECCC
060CCC
0E0CCC
0F0CCC
0F8CCC
1FCCCC
1ECCCC
360CCC
360CCC
360CCC
660CCC
060CCC
0618CC
0618CC
0618CC
06300C
06300C
06600C
000000
ENDCHAR

STARTCHAR cns3_264A
ENCODING 9802
SWIDTH 960 0
DWIDTH 24 0
BBX 24 24 0 -2
BITMAP
000000
007000
00E060
01FFF0
038060
06C0C0
0C6180
383300
001C00
007F80
01C1FE
0F1838
381C00
00180C
3FFFFE
003C00
007E00
00DB00
0199C0
0318FE
0E1870
381800
001800
000000
ENDCHAR

STARTCHAR cns3_264B
ENCODING 9803
SWIDTH 960 0
DWIDTH 24 0
BBX 24 24 0 -2
BITMAP
000000
180070
0E0060
063060
001860
000E60
018660
618060
330060
1B3060
1E1860
060C60
060C60
0C006E
0C0078
0C0FE0
387C60
180060
180060
180060
180060
180060
000060
000000
ENDCHAR

STARTCHAR cns3_264C
ENCODING 9804
SWIDTH 960 0
DWIDTH 24 0
BBX 24 24 0 -2
BITMAP
000000
18000C
0C3FFE
060018
060030
000660
0183C0
630380
3301CC
1B7FFE
1E018C
06018C
060198
0C0180
0C0180
0C0180
380180
180180
180180
180180
180180
181F80
180300
000000
ENDCHAR

STARTCHAR cns3_264D
ENCODING 9805
SWIDTH 960 0
DWIDTH 24 0
BBX 24 24 0 -2
BITMAP
000000
180000
0C0030
06FFF8
060C30
000C30
018C30
630C30
330C30
1B1860
1E1860
061860
06186C
0CFFFE
0C1860
0C1860
381860
181860
1830C0
1830C0
1830CC
19FFFE
180000
000000
ENDCHAR

STARTCHAR cns3_264E
ENCODING 9806
SWIDTH 960 0
DWIDTH 24 0
BBX 24 24 0 -2
BITMAP
000000
300000
18000C
0FFFFE
0C0300
000300
00830C
60FFFE
33C30C
1BC30C
1EC30C
06C30C
06C30C
0CC30C
0CC30C
0CC30C
38C30C
18C3FC
18C338
180300
180300
180300
000300
000000
ENDCHAR

STARTCHAR cns3_264F
ENCODING 9807
SWIDTH 960 0
DWIDTH 24 0
BBX 24 24 0 -2
BITMAP
000000
300700
1806C0
0E0670
060630
000600
00060C
6187FE
3B7E00
1B0600
06031C
060318
060330
0C0330
0C01E0
0C01C0
380380
1807C2
180EC2
181862
183036
18001E
00000E
000000
ENDCHAR

STARTCHAR cns3_2650
ENCODING 9808
SWIDTH 960 0
DWIDTH 24 0
BBX 24 24 0 -2
BITMAP
000000
300E00
1C0C00
0E0C00
06180C
001FFE
00300C
01B00C
61E00C
3B018C
1B3FCC
06000C
06000C
06018C
0C7FCC
0C0018
1C0018
380018
180018
180030
180030
1807F0
1800E0
000000
ENDCHAR

STARTCHAR cns3_2651
ENCODING 9809
SWIDTH 960 0
DWIDTH 24 0
BBX 24 24 0 -2
BITMAP
000000
3001C0
181D80
0E1980
061980
001998
003FFC
01B180
636180
3BC180
1B0180
060180
06018C
06FFFE
0C0180
0C0180
0C0180
380180
180180
180180
180180
180180
180180
000000
ENDCHAR

STARTCHAR cns3_2652
ENCODING 9810
SWIDTH 960 0
DWIDTH 24 0
BBX 24 24 0 -2
BITMAP
000000
300E00
180C00
0E0C00
06180C
001FFE
00300C
01E00C
31800C
1B070C
1B060C
03060C
060C0C
060D8C
0C18CC
0C7FEC
0C3078
380018
180018
180018
180038
180FF0
1800E0
000000
ENDCHAR

STARTCHAR cns3_2653
ENCODING 9811
SWIDTH 960 0
DWIDTH 24 0
BBX 24 24 0 -2
BITMAP
000000
300380
180300
0E0380
0606C0
0006C0
000C60
019830
63307C
3B7FFE
0EC000
060000
060030
0E7FF8
0C0030
0C0030
180060
380060
180060
180060
1800C0
1800C0
1800C0
000000
ENDCHAR

STARTCHAR cns3_2654
ENCODING 9812
SWIDTH 960 0
DWIDTH 24 0
BBX 24 24 0 -2
BITMAP
000000
001C00
001800
101818
1FFFFC
180018
300010
301C00
001800
001800
001800
001800
1FFC10
007E38
00DB70
00D9C0
0198C0
031860
061838
0C181E
381808
00F800
003000
000000
ENDCHAR

STARTCHAR cns3_2655
ENCODING 9813
SWIDTH 960 0
DWIDTH 24 0
BBX 24 24 0 -2
BITMAP
000000
001C00
001800
1C181C
181818
181818
181818
1FFFF8
180018
001C00
001800
001800
1FFC10
007E38
00DB70
00D9C0
0198C0
031860
061838
0C181E
381808
00F800
003000
000000
ENDCHAR

STARTCHAR cns3_2656
ENCODING 9814
SWIDTH 960 0
DWIDTH 24 0
BBX 24 24 0 -2
BITMAP
000000
301018
1C1FFC
0C1818
0C1818
001818
001818
619818
3B1818
1B1FF8
031B18
061B18
061B00
0C3180
0C3180
0C30C0
1830C0
386060
186060
18C038
19801E
1B0008
180000
000000
ENDCHAR

STARTCHAR cns3_2657
ENCODING 9815
SWIDTH 960 0
DWIDTH 24 0
BBX 24 24 0 -2
BITMAP
000000
180000
0C0070
0EE06E
06C06C
00C0CC
00D8CC
60CCCC
39CCCC
1BC78C
03C78C
06C38C
06C38C
0CC38C
0CC6CC
0CC6CC
18CCCC
38CC6C
18D86C
18F00C
18C00C
18FFFC
18C00C
000000
ENDCHAR

STARTCHAR cns3_2658
ENCODING 9816
SWIDTH 960 0
DWIDTH 24 0
BBX 24 24 0 -2
BITMAP
000000
300E00
180C00
0E0C00
060C00
00180C
001FFE
019830
633830
3B3830
1E7860
066C60
06CC60
0C06C0
0C06C0
0C03C0
180380
380380
1803C0
180660
180C30
18381E
18E00C
000000
ENDCHAR

STARTCHAR cns3_2659
ENCODING 9817
SWIDTH 960 0
DWIDTH 24 0
BBX 24 24 0 -2
BITMAP
000000
180860
0C0FF0
0C0C60
000C60
000C64
000C64
619866
3B1866
1B303C
036000
060018
067FFC
0C1818
0C1830
0C0C30
180C60
3806C0
180380
1803C0
180E70
18383E
00E01C
000000
ENDCHAR

STARTCHAR cns3_265A
ENCODING 9818
SWIDTH 960 0
DWIDTH 24 0
BBX 24 24 0 -2
BITMAP
000000
300E00
180C00
0E0C00
06180C
001FFE
00180C
61B01C
336398
1B0330
030300
060300
060300
060700
0C0700
0C0780
180CC0
380CC0
181860
183030
186018
18C01E
19800C
000000
ENDCHAR

STARTCHAR cns3_265B
ENCODING 9819
SWIDTH 960 0
DWIDTH 24 0
BBX 24 24 0 -2
BITMAP
000000
300008
18407C
0C7FC0
0C6000
00600C
007FFE
03600C
63600C
36600C
36600C
0C600C
0C7FFC
0C600C
186000
186000
306000
70C000
30C000
30C000
318000
318000
330000
000000
ENDCHAR

STARTCHAR cns3_265C
ENCODING 9820
SWIDTH 960 0
DWIDTH 24 0
BBX 24 24 0 -2
BITMAP
000000
300000
180078
0C47E0
0C7E60
006660
006660
636660
366660
366660
066660
0C6660
0C6630
0C6630
186630
18C630
30C618
70C618
318618
31860C
31860E
33060C
360600
000000
ENDCHAR

STARTCHAR cns3_265D
ENCODING 9821
SWIDTH 960 0
DWIDTH 24 0
BBX 24 24 0 -2
BITMAP
000000
3000C0
1803E0
0E00C0
060CC0
000EC0
001C60
619860
3B1830
1B3018
06338C
066306
06C300
0D8600
0C0600
0C0600
180C60
380C30
181818
18187C
183F8E
18F806
18C006
000000
ENDCHAR

STARTCHAR cns3_265E
ENCODING 9822
SWIDTH 960 0
DWIDTH 24 0
BBX 24 24 0 -2
BITMAP
000000
070030
060078
0600E0
060380
061F00
066300
06E300
0F8300
1F030C
36031E
6603F8
661F00
067300
060300
060300
0F0304
0D8304
0CC304
18C304
180306
300386
6001FC
000000
ENDCHAR

STARTCHAR cns3_265F
ENCODING 9823
SWIDTH 960 0
DWIDTH 24 0
BBX 24 24 0 -2
BITMAP
000000
001C00
001800
001838
031860
031CC0
063F80
0C3300
006180
00C0C0
018060
070038
1CE1DE
70C180
00C18C
7FFFFE
00C180
00C180
018180
018180
030180
060180
0C0180
000000
ENDCHAR

STARTCHAR cns3_2660
ENCODING 9824
SWIDTH 960 0
DWIDTH 24 0
BBX 24 24 0 -2
BITMAP
000000
001C00
001800
10180C
1FFFFE
18000C
301C18
301800
601800
001810
001838
031860
061CC0
063F80
0C3F00
0C3C00
007600
006300
00C180
01C0E0
038078
0E003E
380000
000000
ENDCHAR

STARTCHAR cns3_2661
ENCODING 9825
SWIDTH 960 0
DWIDTH 24 0
BBX 24 24 0 -2
BITMAP
000000
0601C0
070180
060300
06030C
0607FE
06C60C
06EC0C
178C0C
171E0C
36370C
366398
660198
0601B0
060030
0E0060
0F00C0
0DC0C0
18E180
186300
300600
301C00
607000
000000
ENDCHAR

STARTCHAR cns3_2662
ENCODING 9826
SWIDTH 960 0
DWIDTH 24 0
BBX 24 24 0 -2
BITMAP
000000
000030
07FFF8
000030
000030
7FFFFC
000030
000030
07FFF0
000030
001C00
001830
019838
031860
061DC0
0C3F00
0C3600
006300
00C180
0180C0
070070
0E003E
380018
000000
ENDCHAR

STARTCHAR cns3_2663
ENCODING 9827
SWIDTH 960 0
DWIDTH 24 0
BBX 24 24 0 -2
BITMAP
000000
001C00
001800
001830
0FFFF8
001800
001800
00180C
3FFFFE
000000
001C00
001810
019838
031870
031DC0
063F00
063600
006300
00C180
0180C0
030070
0E003E
3C0018
000000
ENDCHAR

STARTCHAR cns3_2664
ENCODING 9828
SWIDTH 960 0
DWIDTH 24 0
BBX 24 24 0 -2
BITMAP
000000
0380E0
1F00C0
1B00C0
1B00C0
1B68CC
1FFFFE
1B0C00
330C00
330C00
630C00
03EC00
038C00
0F0C00
3F0C00
130C00
030C00
030C00
030C00
030C00
030E00
0307FE
030000
000000
ENDCHAR

STARTCHAR cns3_2665
ENCODING 9829
SWIDTH 960 0
DWIDTH 24 0
BBX 24 24 0 -2
BITMAP
000000
038018
0F07FC
0F00C0
0F00C0
1B60C0
1FF0C0
1B00C0
3300C0
3300CC
631FFE
03E0C0
0380C0
0F00C0
3F00C0
1300C0
0300C0
0300C0
0300C0
0300C0
0300C0
0300C0
0300C0
000000
ENDCHAR

STARTCHAR cns3_2666
ENCODING 9830
SWIDTH 960 0
DWIDTH 24 0
BBX 24 24 0 -2
BITMAP
000000
018380
31C300
1B030C
1EFFFE
0C0000
1E0380
760300
064318
037FFC
076318
076318
0F6318
1B6318
336318
636318
036318
036318
0363F8
036330
070300
3E0300
0C0300
000000
ENDCHAR

STARTCHAR cns3_2667
ENCODING 9831
SWIDTH 960 0
DWIDTH 24 0
BBX 24 24 0 -2
BITMAP
000000
000300
31BFB8
1B0330
0E0330
0C0630
1E0630
360E30
660C30
070C30
070DB0
070F30
0F1C30
0F7C30
1B2C30
330C30
630C32
030C32
030C32
030C32
070C32
3E7C1E
0C1800
000000
ENDCHAR

STARTCHAR cns3_2668
ENCODING 9832
SWIDTH 960 0
DWIDTH 24 0
BBX 24 24 0 -2
BITMAP
000000
00C1C0
30C180
1D8180
0F0180
06018C
1F7FFE
330180
0303C0
0303C0
0387E0
0787E0
078DB0
0D8DB8
19999C
31B18E
61E184
018180
018180
018180
038180
1F0180
060180
000000
ENDCHAR

STARTCHAR cns3_2669
ENCODING 9833
SWIDTH 960 0
DWIDTH 24 0
BBX 24 24 0 -2
BITMAP
000000
018700
318600
1B0660
0E0630
0E0630
1E060C
76FFFE
060600
070600
0707C0
0F0780
0F0D80
1B0D80
330D80
630D80
030D80
031984
031984
031984
033186
3F61CE
0EC0FC
000000
ENDCHAR

STARTCHAR cns3_266A
ENCODING 9834
SWIDTH 960 0
DWIDTH 24 0
BBX 24 24 0 -2
BITMAP
000000
018700
31C600
1B06C0
0E0660
0C0630
3E0600
66060C
06FFFE
030600
030600
070F00
0F0F00
1B0F00
330D80
631980
0318C0
0318C0
033060
036070
07C038
3F001E
0E000C
000000
ENDCHAR

STARTCHAR cns3_266B
ENCODING 9835
SWIDTH 960 0
DWIDTH 24 0
BBX 24 24 0 -2
BITMAP
000000
038380
030300
030360
630330
330330
1B0300
0F030C
077FFE
030300
030300
030700
030780
030780
0F06C0
1B0CC0
330C60
630C60
031830
033038
03601E
03C00C
030000
000000
ENDCHAR

STARTCHAR cns3_266C
ENCODING 9836
SWIDTH 960 0
DWIDTH 24 0
BBX 24 24 0 -2
BITMAP
000000
00C1C0
30C180
1D818E
0F01BC
0E01E0
1F0F80
337980
030180
03398E
03B18C
07B18C
07B18C
0DB18C
19B18C
31BFFC
61B18C
01B180
018184
030184
0301C6
1F00FC
060000
000000
ENDCHAR

STARTCHAR cns3_266D
ENCODING 9837
SWIDTH 960 0
DWIDTH 24 0
BBX 24 24 0 -2
BITMAP
000000
018018
3190FC
1B1F80
0E1800
1C1800
3E1800
66180C
061FFE
071860
071860
0F1860
0F1860
1B1860
331860
631860
033060
033060
033060
036060
076060
3EC060
0D8060
000000
ENDCHAR

STARTCHAR cns3_266E
ENCODING 9838
SWIDTH 960 0
DWIDTH 24 0
BBX 24 24 0 -2
BITMAP
000000
00000C
019FFE
7FC00C
0C000C
0C000C
0C000C
0C000C
0C080C
0D8FFC
7FCC0C
0C0C00
0C0C00
0C0C00
0C0C00
0C0C00
0DCC04
0F0C04
1C0C04
700C06
200E0E
0007FC
000000
000000
ENDCHAR

STARTCHAR cns3_266F
ENCODING 9839
SWIDTH 960 0
DWIDTH 24 0
BBX 24 24 0 -2
BITMAP
000000
00000C
018FFE
7FC00C
0C0018
0C0030
0C00E0
0C00C0
0C00C0
0D80CC
7FFFFE
0C00C0
0C00C0
0C00C0
0C00C0
0C00C0
0D80C0
0F00C0
1C00C0
7000C0
200FC0
000380
000000
000000
ENDCHAR

STARTCHAR cns3_2670
ENCODING 9840
SWIDTH 960 0
DWIDTH 24 0
BBX 24 24 0 -2
BITMAP
000000
000018
01BFFC
7FC000
0C0000
0C0000
0C000C
0C7FFE
0C0300
0D8300
7FC600
0C060C
0C0FFE
0C0C0C
0C180C
0CC00C
0F800C
1E0018
780018
200018
000038
0003F0
0000E0
000000
ENDCHAR

STARTCHAR cns3_2671
ENCODING 9841
SWIDTH 960 0
DWIDTH 24 0
BBX 24 24 0 -2
BITMAP
000000
018018
7FDFFC
0C0318
0C0318
0C0318
0C0318
0C0318
0D8318
7FC3D8
0C0398
0C0F18
0C1B18
0C0318
0C0618
0D8618
0F061A
1C061A
780C1B
200C1B
00181F
00300E
006000
000000
ENDCHAR

STARTCHAR cns3_2672
ENCODING 9842
SWIDTH 960 0
DWIDTH 24 0
BBX 24 24 0 -2
BITMAP
000000
000700
000600
418600
7FC600
6D8600
6D8600
6D8600
6D8600
6D8600
7F8600
6D8E00
6D8F00
6D8F00
6D9980
6D9980
6D98C0
7FB060
61B060
006038
00C03E
018018
030000
000000
ENDCHAR

STARTCHAR cns3_2673
ENCODING 9843
SWIDTH 960 0
DWIDTH 24 0
BBX 24 24 0 -2
BITMAP
000000
000700
000600
08060C
0FFFFE
0C0030
6DFFF8
3C3030
1C3060
1C3060
0C306C
0C30FE
0C30CC
3C30CC
6C300C
6C300C
0C6018
0C6018
186018
18C038
30C7F0
3180E0
630000
000000
ENDCHAR

STARTCHAR cns3_2674
ENCODING 9844
SWIDTH 960 0
DWIDTH 24 0
BBX 24 24 0 -2
BITMAP
000000
007000
006000
10C060
1FFFF0
180060
180060
180060
1FFFE0
180060
180060
180060
1FFFE0
180060
000000
1C03C0
180F00
19F810
1F8010
180010
180018
1C0038
0FFFF0
000000
ENDCHAR

STARTCHAR cns3_2675
ENCODING 9845
SWIDTH 960 0
DWIDTH 24 0
BBX 24 24 0 -2
BITMAP
000000
003800
086030
0FFFF8
0C0030
0C0030
0C0030
0FFFF0
0C0030
0C0030
0C0030
0FFFF0
0C0030
003800
003000
006000
006000
006000
00C0E0
00C038
0187FC
1FFE0C
0C0000
000000
ENDCHAR

STARTCHAR cns3_2676
ENCODING 9846
SWIDTH 960 0
DWIDTH 24 0
BBX 24 24 0 -2
BITMAP
000000
001C00
083030
0FFFF8
0C0030
0C0030
0C0030
0FFFF0
0C0030
0C0030
0C0030
0FFFF0
0C6330
006300
006300
006300
00C300
00C304
018304
030306
06038E
1C01FC
700000
000000
ENDCHAR

STARTCHAR cns3_2677
ENCODING 9847
SWIDTH 960 0
DWIDTH 24 0
BBX 24 24 0 -2
BITMAP
000000
003800
003000
003000
003000
003C00
003700
0031C0
0030E0
003060
003000
003000
003000
083060
0FFFF0
0CC670
0CC660
0CC660
0CC660
0CC660
0CC660
0CC66C
7FFFFE
000000
ENDCHAR

STARTCHAR cns3_2678
ENCODING 9848
SWIDTH 960 0
DWIDTH 24 0
BBX 24 24 0 -2
BITMAP
000000
0000C0
1FFFE0
00C0C0
00C0C0
00C18C
00C1FE
00C18C
01800C
01800C
03000C
03000C
06001C
0C00F8
180030
700030
1FFFF8
18C630
18C630
18C630
18C630
18C63C
7FFFFE
000000
ENDCHAR

STARTCHAR cns3_2679
ENCODING 9849
SWIDTH 960 0
DWIDTH 24 0
BBX 24 24 0 -2
BITMAP
000000
21800C
3FFFFE
318600
318600
318600
318600
318C00
3F8C00
318C18
319FFC
319818
319818
3F8018
318018
318018
318018
318018
318030
3F8030
318060
300FE0
0001C0
000000
ENDCHAR

STARTCHAR cns3_267A
ENCODING 9850
SWIDTH 960 0
DWIDTH 24 0
BBX 24 24 0 -2
BITMAP
000000
00CE00
7FEC00
0C0C00
0C0C00
0C0C00
0C0C00
0C0C18
180C3C
18CC78
1FECE0
38CD80
38CF00
78CC00
18CC00
18CC00
18CC00
18CC00
18CC04
1FCC04
18CC06
18CE0E
1807FC
000000
ENDCHAR

STARTCHAR cns3_267B
ENCODING 9851
SWIDTH 960 0
DWIDTH 24 0
BBX 24 24 0 -2
BITMAP
000000
00C00C
7FEFFE
0C0060
0C0060
0C0060
0C0060
180060
180060
18C060
3FE060
38C060
38C060
78C060
18C060
18C060
18C060
18C060
18C060
1FC060
18C060
18CFE0
1801C0
000000
ENDCHAR

STARTCHAR cns3_267C
ENCODING 9852
SWIDTH 960 0
DWIDTH 24 0
BBX 24 24 0 -2
BITMAP
000000
000C0E
3FFE0C
01C1CC
01818C
01818C
03018C
03018C
03018C
06018C
06198C
0FFD8C
0E198C
1E198C
1E198C
36198C
36198C
66198C
06180C
06180C
07F80C
0618FC
061838
000000
ENDCHAR

STARTCHAR cns3_267D
ENCODING 9853
SWIDTH 960 0
DWIDTH 24 0
BBX 24 24 0 -2
BITMAP
000000
03C030
0F3FF8
7C0E30
0C0C30
0C0C30
0D8C30
7FCC60
0C0C6C
0C0C7E
1C0CCC
1F0CCC
1DCC0C
3CCC0C
3C0C0C
3C0C0C
6C1818
0C1818
0C1818
0C3030
0C3030
0C67F0
0CC0E0
000000
ENDCHAR

STARTCHAR cns3_267E
ENCODING 9854
SWIDTH 960 0
DWIDTH 24 0
BBX 24 24 0 -2
BITMAP
000000
070860
060FF0
060C60
06CC60
7FEC60
000C60
000C60
60EC60
30CC60
30CC60
18CC60
198C60
0D8C60
0D9860
0F1860
031860
07D864
0F1864
7C3064
303066
006066
00C03C
000000
ENDCHAR

STARTCHAR cns3_2721
ENCODING 10017
SWIDTH 960 0
DWIDTH 24 0
BBX 24 24 0 -2
BITMAP
000000
0700E0
0600C0
0600C0
06C0C0
7FE0C0
0000C0
0000C0
60E0CC
30DFFE
30C0C0
18C0C0
1980C0
0D80C0
0D80C0
0F00C0
0300C0
03C0C0
0F00C0
7C00C0
3000C0
0000C0
0000C0
000000
ENDCHAR

STARTCHAR cns3_2722
ENCODING 10018
SWIDTH 960 0
DWIDTH 24 0
BBX 24 24 0 -2
BITMAP
000000
000000
038700
030600
060600
060600
1CC600
18C600
0F8600
030600
030600
060600
0C4600
1FE600
3C6600
302600
008600
14C604
16C604
364604
320606
20070E
0003FC
000000
ENDCHAR

STARTCHAR cns3_2723
ENCODING 10019
SWIDTH 960 0
DWIDTH 24 0
BBX 24 24 0 -2
BITMAP
000000
10C000
1FE018
18CFFC
18C000
18C000
18C000
1CC00C
1FDFFE
1BC300
18C300
18C300
18C60C
1BC7FE
1FC60C
1CCC0C
18C00C
18C00C
18C00C
18C00C
30C018
33C3F8
618070
000000
ENDCHAR

STARTCHAR cns3_2724
ENCODING 10020
SWIDTH 960 0
DWIDTH 24 0
BBX 24 24 0 -2
BITMAP
000000
118E00
1FCC00
198C00
198C00
19980C
1D9FFE
1F980C
1BB00C
19B00C
19E00C
198C0C
1B860C
1F830C
1D818C
198198
198018
318018
318018
318018
318030
3783F0
630060
000000
ENDCHAR

STARTCHAR cns3_2725
ENCODING 10021
SWIDTH 960 0
DWIDTH 24 0
BBX 24 24 0 -2
BITMAP
000000
08C1C0
0FE180
0CC180
0CC180
0CC300
0CC30C
0EDFFE
0FC30C
0DC60C
0CC60C
0CC618
0CCC18
0DCC18
0FCC30
0EDF30
0CD9E0
18C070
18C0D8
18C18C
30C306
33C606
619C00
000000
ENDCHAR

STARTCHAR cns3_2726
ENCODING 10022
SWIDTH 960 0
DWIDTH 24 0
BBX 24 24 0 -2
BITMAP
000000
08C1C0
0FE180
0CC180
0CDD80
0CD98C
0CD98E
0ED9BC
0FD9EC
0DDF8C
0CF98C
0CD98C
0CD998
0DD998
0FD998
0ED9F8
0CD9B0
18D984
18D984
18D804
30D806
37DC0E
618FFC
000000
ENDCHAR

STARTCHAR cns3_2727
ENCODING 10023
SWIDTH 960 0
DWIDTH 24 0
BBX 24 24 0 -2
BITMAP
000000
00E1C0
00C180
00C18C
7FFFFE
00C180
00C180
00DD80
001800
001800
001800
019800
01D980
0398C0
031860
061830
0C1818
18180C
30180C
601800
001800
00F800
003000
000000
ENDCHAR

STARTCHAR cns3_2728
ENCODING 10024
SWIDTH 960 0
DWIDTH 24 0
BBX 24 24 0 -2
BITMAP
000000
00E1C0
00C18C
7FFFFE
00C180
00C180
00C180
000000
00D8E0
01CCC0
01CEC0
036780
076180
023300
003300
001E00
000E00
001F80
0031C0
00E0E0
03807E
0E0018
780000
000000
ENDCHAR

STARTCHAR cns3_2729
ENCODING 10025
SWIDTH 960 0
DWIDTH 24 0
BBX 24 24 0 -2
BITMAP
000000
00E1C0
00C18C
7FFFFE
00C180
00C180
00C180
000180
01FFC0
000000
00000C
3FFFFE
018000
018060
01FFF0
030060
030060
0000C0
0000C0
000180
000180
003F00
000E00
000000
ENDCHAR

STARTCHAR cns3_272A
ENCODING 10026
SWIDTH 960 0
DWIDTH 24 0
BBX 24 24 0 -2
BITMAP
000000
00E1C0
00C18C
7FFFFE
00C180
00C180
00C180
000030
3FFFF8
000030
000030
1C0030
180030
1FFFF0
180030
180000
180000
180004
180004
180006
1C000E
0FFFFC
000000
000000
ENDCHAR

STARTCHAR cns3_272B
ENCODING 10027
SWIDTH 960 0
DWIDTH 24 0
BBX 24 24 0 -2
BITMAP
000000
00E1C0
00C18C
7FFFFE
00C180
00DD80
00D980
003018
003FFC
006018
00C018
018030
03C030
067060
0C38C0
001980
000300
000600
000C00
001800
007000
01C000
070000
000000
ENDCHAR

STARTCHAR cns3_272C
ENCODING 10028
SWIDTH 960 0
DWIDTH 24 0
BBX 24 24 0 -2
BITMAP
000000
00E1C0
00C18C
7FFFFE
00C180
00C180
00C180
007000
006000
00C0C0
01FFE0
01C0C0
03C0C0
066180
0C6180
183300
301E00
001C00
003F00
00E1C0
0380F0
0E003E
380018
000000
ENDCHAR

STARTCHAR cns3_272D
ENCODING 10029
SWIDTH 960 0
DWIDTH 24 0
BBX 24 24 0 -2
BITMAP
000000
070000
060380
060300
060300
466300
7FF300
666300
666300
666300
666300
666300
666300
7FE300
666300
660300
06C300
066304
06F304
07BB04
1E1B06
78038E
2001FC
000000
ENDCHAR

STARTCHAR cns3_272E
ENCODING 10030
SWIDTH 960 0
DWIDTH 24 0
BBX 24 24 0 -2
BITMAP
000000
000030
0003F8
01FF00
0F1800
001800
101818
1FFFFC
181818
181818
181818
181818
181818
1FFFF8
181818
181800
001860
001830
001818
001FFC
03FE0C
7F000C
300000
000000
ENDCHAR

STARTCHAR cns3_272F
ENCODING 10031
SWIDTH 960 0
DWIDTH 24 0
BBX 24 24 0 -2
BITMAP
000000
000180
0007C0
001E00
00F0C0
0003E0
001E00
00F078
0007E0
003E00
0FF800
001800
061800
071860
061FF0
061800
071800
071800
0D9800
0CF800
183800
301F1E
6003FC
000000
ENDCHAR

STARTCHAR cns3_2730
ENCODING 10032
SWIDTH 960 0
DWIDTH 24 0
BBX 24 24 0 -2
BITMAP
000000
000380
0C0300
070300
030300
00030C
007FFE
000300
040300
7E0700
0C0780
0C0680
180CC0
3E0C60
341830
041838
0C301C
0C600E
0E0000
1B0000
318000
60FC1F
0007F8
000000
ENDCHAR

STARTCHAR cns3_2731
ENCODING 10033
SWIDTH 960 0
DWIDTH 24 0
BBX 24 24 0 -2
BITMAP
000000
000070
060060
030060
030060
00006C
007FFE
020060
3F0060
063060
0C1860
080C60
180E60
3F0660
060060
0C0060
0C0060
080060
1807E0
1E01C0
338000
70FC06
200FFE
000000
ENDCHAR

STARTCHAR cns3_2732
ENCODING 10034
SWIDTH 960 0
DWIDTH 24 0
BBX 24 24 0 -2
BITMAP
000000
000030
0C1FF8
070030
030060
0001C0
000180
000180
0C018C
7EFFFE
0C0180
0C0180
180180
300180
3F0180
060180
040180
0C0180
181F80
1E0700
798000
30FC06
000FFE
000000
ENDCHAR

STARTCHAR cns3_2733
ENCODING 10035
SWIDTH 960 0
DWIDTH 24 0
BBX 24 24 0 -2
BITMAP
000000
000018
0C007C
0701E0
033F80
000180
000180
000180
000180
03018C
7F7FFE
060180
0C0180
180180
200180
3F8180
030180
0E0180
180180
1E0180
7B8180
30FC07
000FFE
000000
ENDCHAR

STARTCHAR cns3_2734
ENCODING 10036
SWIDTH 960 0
DWIDTH 24 0
BBX 24 24 0 -2
BITMAP
000000
03820C
0303FE
03030C
030318
030318
031B30
1B1B30
1B3360
333330
336330
33C318
678318
07830C
06C30C
06C30C
0E630C
0C637C
0C3318
183B00
301F00
600300
000300
000000
ENDCHAR

STARTCHAR cns3_2735
ENCODING 10037
SWIDTH 960 0
DWIDTH 24 0
BBX 24 24 0 -2
BITMAP
000000
001D06
08F1FF
0F0186
0C018C
0C018C
0C0198
0C0D98
0FFFB0
0C31B0
0C3198
0C318C
0C318C
0C3186
0C3186
0C3186
183186
1831BE
18318C
303180
303180
603180
000180
000000
ENDCHAR

STARTCHAR cns3_2736
ENCODING 10038
SWIDTH 960 0
DWIDTH 24 0
BBX 24 24 0 -2
BITMAP
000000
00020C
0063FE
3FF30C
000318
000318
000330
000330
000360
003360
7FFB30
030318
030318
03030C
03030C
06030C
06C30C
0C637C
0C3318
19FB00
7F1B00
301B00
000300
000000
ENDCHAR

STARTCHAR cns3_2737
ENCODING 10039
SWIDTH 960 0
DWIDTH 24 0
BBX 24 24 0 -2
BITMAP
000000
03820C
0303FE
03030C
030318
033318
3FFB30
030330
030360
030360
07C330
076318
0F3B18
0F1B18
1B030C
1B030C
33030C
63030C
03037C
030318
030300
030300
030300
000000
ENDCHAR

STARTCHAR cns3_2738
ENCODING 10040
SWIDTH 960 0
DWIDTH 24 0
BBX 24 24 0 -2
BITMAP
000000
08320C
0FFBFE
0C330C
0C3318
0F3318
0DB330
0CF330
0CF360
0C3B60
0DF330
0F3318
3C3318
3C330C
0C330C
0C330C
0C330C
0C330C
18337C
183318
183300
31F300
606300
000000
ENDCHAR

STARTCHAR cns3_2739
ENCODING 10041
SWIDTH 960 0
DWIDTH 24 0
BBX 24 24 0 -2
BITMAP
000000
07020C
0603FE
06630C
06F318
078318
1E0330
760330
060360
767330
666330
666318
666318
66630C
66630C
7FE30C
66630C
66137C
061318
061300
061B00
073B00
03F300
000000
ENDCHAR

STARTCHAR cns3_273A
ENCODING 10042
SWIDTH 960 0
DWIDTH 24 0
BBX 24 24 0 -2
BITMAP
000000
460070
7F0060
660060
661860
660E60
660660
6C0060
6C0060
6C3060
661860
660E60
630660
63006C
63007E
7F03E0
663C60
61C060
600060
600060
600060
600060
600060
000000
ENDCHAR

STARTCHAR cns3_273B
ENCODING 10043
SWIDTH 960 0
DWIDTH 24 0
BBX 24 24 0 -2
BITMAP
000000
430380
7F8300
630300
630300
630300
66030C
661B0E
661B18
661B30
6333E0
6333C0
636380
63C380
6306C0
6F06C0
660660
600C70
600C38
60181C
60301E
60600C
61C000
000000
ENDCHAR

STARTCHAR cns3_273C
ENCODING 10044
SWIDTH 960 0
DWIDTH 24 0
BBX 24 24 0 -2
BITMAP
000000
46000C
7F7FFE
660180
660180
660300
6C0300
6C0600
6C0700
6C0FC0
660F60
661B30
63331C
63630E
63C306
7F0300
660300
600300
600300
600300
600300
600300
600300
000000
ENDCHAR

STARTCHAR cns3_273D
ENCODING 10045
SWIDTH 960 0
DWIDTH 24 0
BBX 24 24 0 -2
BITMAP
000000
23200C
3FBFFE
33300C
33300C
33300C
36300C
36300C
36300C
36300C
33300C
333FFC
31B00C
31B00C
31B00C
3FB00C
33300C
30300C
30300C
30300C
303FFC
30300C
30300C
000000
ENDCHAR

STARTCHAR cns3_273E
ENCODING 10046
SWIDTH 960 0
DWIDTH 24 0
BBX 24 24 0 -2
BITMAP
000000
43100C
7F9FFE
63180C
63180C
63180C
66180C
66180C
661FFC
66180C
63180C
63180C
61980C
61980C
619FFC
63980C
7F300C
66300C
60300C
60600C
60600C
60C0FC
638038
000000
ENDCHAR

STARTCHAR cns3_273F
ENCODING 10047
SWIDTH 960 0
DWIDTH 24 0
BBX 24 24 0 -2
BITMAP
000000
4301F0
7F8360
630660
631C60
633C60
660C60
660C60
660C60
660C6C
63FFFE
630C60
618C60
619860
639860
7F1860
661860
601860
603060
603060
603060
606060
60C060
000000
ENDCHAR

STARTCHAR cns3_2740
ENCODING 10048
SWIDTH 960 0
DWIDTH 24 0
BBX 24 24 0 -2
BITMAP
000000
00C018
3FE7FC
000000
000000
000000
40C80C
7FEFFE
60CC0C
60CC0C
6CCF0C
66CD8C
63CCCC
63CC6C
60CC6C
60CC0C
60CC0C
60CC0C
60CC0C
60CC0C
60CC0C
6FCDFC
638C38
000000
ENDCHAR

STARTCHAR cns3_2741
ENCODING 10049
SWIDTH 960 0
DWIDTH 24 0
BBX 24 24 0 -2
BITMAP
000000
00300C
3FFFFE
00300C
006018
0CC330
0781E0
0380E0
01B06C
7FFFFE
0330CC
0360D8
03C0F0
0300C0
0300C0
0300C0
0300C0
0300C0
0300C0
0300C0
0300C0
3F0FC0
0E0380
000000
ENDCHAR

STARTCHAR cns3_2742
ENCODING 10050
SWIDTH 960 0
DWIDTH 24 0
BBX 24 24 0 -2
BITMAP
000000
003800
003000
006180
00C0E0
0187F0
0FFC30
000000
070070
078068
0CC0CC
19E19E
3FB7F6
180300
000000
000030
0FFFF8
000000
000000
000000
000000
00000C
7FFFFE
000000
ENDCHAR

STARTCHAR cns3_2743
ENCODING 10051
SWIDTH 960 0
DWIDTH 24 0
BBX 24 24 0 -2
BITMAP
000000
070700
060630
067FF8
060630
0C0630
0C063C
1CFFFE
1C0630
3C0630
6C7FF0
0C0630
0C0600
0C0618
0CFFFC
0C0600
0C0600
0C0618
0DFFFC
0C0600
0C0600
0C0600
0C0600
000000
ENDCHAR

STARTCHAR cns3_2744
ENCODING 10052
SWIDTH 960 0
DWIDTH 24 0
BBX 24 24 0 -2
BITMAP
000000
070380
060300
06030C
06C30E
0C631C
0C3318
1C1B30
1C1B60
3C030C
6CFFFE
0C0CC0
0C0CC0
0C0CC0
0C0CC0
0C18C0
0C18C0
0C18C4
0C30C4
0C60C6
0CC0C6
0D807C
0C0000
000000
ENDCHAR

STARTCHAR cns3_2745
ENCODING 10053
SWIDTH 960 0
DWIDTH 24 0
BBX 24 24 0 -2
BITMAP
000000
070380
060300
06037C
060FE0
0C3B00
0C0300
1C0318
1CFFFC
3C0300
6C0300
0C030C
0DFFFE
0C0780
0C0FC0
0C0FE0
0C1B70
0C3338
0C631E
0CC30C
0D8300
0C0300
0C0300
000000
ENDCHAR

STARTCHAR cns3_2746
ENCODING 10054
SWIDTH 960 0
DWIDTH 24 0
BBX 24 24 0 -2
BITMAP
000000
0E8018
0CFFFC
0CC018
0CC0D8
18FFF8
18CE18
38CC18
38CCD8
78CFF8
18D8D8
18D8D8
18D998
18DF98
18F798
198318
19831A
19861A
19861A
1B0C0E
1B180E
1E3006
180006
000000
ENDCHAR

STARTCHAR cns3_2747
ENCODING 10055
SWIDTH 960 0
DWIDTH 24 0
BBX 24 24 0 -2
BITMAP
000000
038700
030618
060FFC
060C18
0C1E30
0C3360
1CE1C0
1C43E0
3C0670
6C1C3E
0CF018
0C0070
0C006C
0C7FFE
0C1860
0C1860
0C1860
0C186C
0DFFFE
0C0060
0C0060
0C0060
000000
ENDCHAR

STARTCHAR cns3_2748
ENCODING 10056
SWIDTH 960 0
DWIDTH 24 0
BBX 24 24 0 -2
BITMAP
000000
070700
060600
06C618
06661C
0C3638
0C3E30
1C1E60
1C0ECC
3DFFFE
6C1F00
0C1F80
0C1F80
0C36C0
0C36E0
0C6660
0C6630
0CC638
0D861E
0F060C
0C0600
0C0600
0C0600
000000
ENDCHAR

STARTCHAR cns3_2749
ENCODING 10057
SWIDTH 960 0
DWIDTH 24 0
BBX 24 24 0 -2
BITMAP
000000
070380
060300
0C030C
0CFFFE
0C0300
180308
18631C
387318
383B30
781B60
1803CC
19FFFE
180300
180700
180780
180F80
180CC0
181860
183030
186038
18C01E
19800C
000000
ENDCHAR

STARTCHAR cns3_274A
ENCODING 10058
SWIDTH 960 0
DWIDTH 24 0
BBX 24 24 0 -2
BITMAP
000000
0E0030
0FFFF8
0C0600
0C0600
188630
18FFF8
38C630
38C630
78C63C
1BFFFE
18C630
18C630
18C630
18C63C
1FFFFE
18C030
18C030
18C030
18C030
18C030
18C1F0
18C060
000000
ENDCHAR

STARTCHAR cns3_274B
ENCODING 10059
SWIDTH 960 0
DWIDTH 24 0
BBX 24 24 0 -2
BITMAP
000000
0E000C
0FFFFE
0C0CC0
0C0CC0
180CC0
180CC0
388CCC
38FFFE
78CCCC
18CCCC
18CCCC
18CCCC
18CCCC
18CCCC
18CCCC
18CCCC
18CCCC
18CCCC
18CCCC
18FFFC
18C00C
18C00C
000000
ENDCHAR

STARTCHAR cns3_274C
ENCODING 10060
SWIDTH 960 0
DWIDTH 24 0
BBX 24 24 0 -2
BITMAP
000000
038700
030600
06060C
06FFFE
0C0C00
0C0C00
1C180C
1C1FFE
3C300C
6C3018
0C7030
0CF070
0DB060
0C306C
0C3FFE
0C3060
0C3060
0C3060
0C3060
0C3060
0C37E0
0C31C0
000000
ENDCHAR

STARTCHAR cns3_274D
ENCODING 10061
SWIDTH 960 0
DWIDTH 24 0
BBX 24 24 0 -2
BITMAP
000000
03A030
033FF8
033030
073030
063030
063030
0E3030
0E3FF0
1E3030
363000
660000
06800C
06FFFE
06C00C
06C00C
06C00C
06C00C
06C00C
06C00C
06C00C
06FFFC
06C00C
000000
ENDCHAR

STARTCHAR cns3_274E
ENCODING 10062
SWIDTH 960 0
DWIDTH 24 0
BBX 24 24 0 -2
BITMAP
000000
07400C
067FFE
06600C
0C600C
0C600C
0C600C
1C600C
1C7FFC
3C600C
6C6000
0C0000
0C39DC
0C3198
0C3318
0C6330
0C6630
0CC660
0CC660
0C6330
0C6398
0C319C
0C300C
000000
ENDCHAR

STARTCHAR cns3_274F
ENCODING 10063
SWIDTH 960 0
DWIDTH 24 0
BBX 24 24 0 -2
BITMAP
000000
070E00
060C18
061FFC
061818
0C3038
0C7030
1CD860
1D9C60
3C0CC0
6C0180
0C0300
0C1E0C
0C1FFE
0C780C
0DD80C
0C180C
0C180C
0C180C
0C180C
0C180C
0C1FFC
0C180C
000000
ENDCHAR

STARTCHAR cns3_2750
ENCODING 10064
SWIDTH 960 0
DWIDTH 24 0
BBX 24 24 0 -2
BITMAP
000000
038380
030300
030300
06460C
067FFE
0E600C
0E600C
1E600C
1E7FFC
36600C
66600C
06600C
06600C
06600C
067FFC
06600C
06600C
06600C
06600C
06600C
067FFC
06600C
000000
ENDCHAR

STARTCHAR cns3_2751
ENCODING 10065
SWIDTH 960 0
DWIDTH 24 0
BBX 24 24 0 -2
BITMAP
000000
001C00
003800
006E00
00C300
0187C0
07FF78
1C001E
700180
07FFC0
000180
000300
03FFC0
000000
000000
000030
1FFFF8
006000
0060C0
00C060
018FF0
07FC38
060018
000000
ENDCHAR

STARTCHAR cns3_2752
ENCODING 10066
SWIDTH 960 0
DWIDTH 24 0
BBX 24 24 0 -2
BITMAP
002000
003000
00180C
3FFFFE
000000
01C0C0
018060
032038
06701C
0C600C
38C180
00C0C0
019FF0
0FF630
0CC600
00C600
00C600
00C604
018604
018604
030606
0E070E
3803FC
000000
ENDCHAR

STARTCHAR cns3_2753
ENCODING 10067
SWIDTH 960 0
DWIDTH 24 0
BBX 24 24 0 -2
BITMAP
000000
000030
1FFFF8
006030
00C070
018FE0
0301C0
0E0018
1FFFFC
7C1818
0C1818
0C1818
0C1818
0FFFF8
0C3C18
0C3C00
006CC4
006C64
00CC34
018C36
030E0E
0E07FC
380000
000000
ENDCHAR

STARTCHAR cns3_2754
ENCODING 10068
SWIDTH 960 0
DWIDTH 24 0
BBX 24 24 0 -2
BITMAP
000000
040030
07FFF8
060030
060030
060030
07FFF0
060030
060030
07FFF0
060030
060030
07FFF0
060030
000000
00000C
7FFFFE
000000
000000
00C0C0
03E070
070038
1C0018
000000
ENDCHAR

STARTCHAR cns3_2755
ENCODING 10069
SWIDTH 960 0
DWIDTH 24 0
BBX 24 24 0 -2
BITMAP
000000
10000C
1FFFFE
18000C
18000C
1FFFFC
18000C
18000C
1FFFFC
18000C
040030
07FFF8
060030
060030
07FFF0
060030
060030
060030
07FFF0
060030
060030
0601F0
060060
000000
ENDCHAR

STARTCHAR cns3_2756
ENCODING 10070
SWIDTH 960 0
DWIDTH 24 0
BBX 24 24 0 -2
BITMAP
000000
001CE0
6018C0
3818C0
1C18C0
0C18D8
00FFFC
0318C0
0218C0
0618C0
0418C0
0C18C0
0C18C0
1818CC
1BFFFE
380000
380000
181000
183870
187038
18E01C
01800E
030006
000000
ENDCHAR

STARTCHAR cns3_2757
ENCODING 10071
SWIDTH 960 0
DWIDTH 24 0
BBX 24 24 0 -2
BITMAP
000000
01000C
61FFFE
39800C
1D800C
0D806C
01BFFC
07800C
07800C
0D90CC
0D9FEC
1998CC
1998CC
3198CC
3198CC
719FCC
3198CC
31980C
31800C
31800C
31800C
01807C
018018
000000
ENDCHAR

STARTCHAR cns3_2758
ENCODING 10072
SWIDTH 960 0
DWIDTH 24 0
BBX 24 24 0 -2
BITMAP
000000
000600
603F00
380600
1C0F00
0C1980
0018C0
063060
066038
0CC07E
0DFFF8
180600
180600
180600
300630
70FFF8
300600
300600
300600
300600
300618
03FFFC
000000
000000
ENDCHAR

STARTCHAR cns3_2759
ENCODING 10073
SWIDTH 960 0
DWIDTH 24 0
BBX 24 24 0 -2
BITMAP
000000
03801C
0300F8
060F80
06FB00
0E0300
0C030C
1DFFFE
3C0300
6C0300
0C030C
0CFFFE
0C8300
0CFF80
00C300
00C300
00C300
018304
018304
030306
06038E
0C01FC
380000
000000
ENDCHAR

STARTCHAR cns3_275A
ENCODING 10074
SWIDTH 960 0
DWIDTH 24 0
BBX 24 24 0 -2
BITMAP
000000
0000C0
0FFFE0
000380
000300
00060E
701C6C
601BFC
68DE6C
6FFB6C
6CDB6C
6CDBCC
6CDBCC
6CD9CC
6CD9CC
6FD9CC
6CD9EC
601B7C
60FE3C
60300C
7FFFFC
60000C
60000C
000000
ENDCHAR

STARTCHAR cns3_275B
ENCODING 10075
SWIDTH 960 0
DWIDTH 24 0
BBX 24 24 0 -2
BITMAP
000000
00180E
7FFC0C
0001CC
00018C
20318C
3FF98C
30318C
30318C
30318C
30318C
3FF18C
30318C
30318C
30318C
30318C
3FF18C
30318C
00000C
00000C
03F80C
7E01FC
300038
000000
ENDCHAR

STARTCHAR cns3_275C
ENCODING 10076
SWIDTH 960 0
DWIDTH 24 0
BBX 24 24 0 -2
BITMAP
000000
030C0E
3FFE0C
0C30EC
0C30CC
0C30CC
0C30CC
0C30CC
0C30CC
0C30CC
0C30CC
0C36CC
7EFFCC
0C30CC
0C30CC
0C30CC
1830CC
1830CC
18300C
18300C
30300C
3031FC
603038
000000
ENDCHAR

STARTCHAR cns3_275D
ENCODING 10077
SWIDTH 960 0
DWIDTH 24 0
BBX 24 24 0 -2
BITMAP
000000
038000
03000C
031FFE
0360CC
3FF0CC
0300CC
0300CC
0303CC
0303CC
0333CC
7FF9CC
0701CC
0601D8
0601D8
06C1F8
0C6378
0C7338
19F61C
3F361E
780C36
2019F0
007060
000000
ENDCHAR

STARTCHAR cns3_275E
ENCODING 10078
SWIDTH 960 0
DWIDTH 24 0
BBX 24 24 0 -2
BITMAP
000000
00180E
3FFC0C
0618EC
0636CC
067FCC
0C66CC
0C06CC
1806CC
1B8CCC
337CCC
0318CC
030CCC
7FFECC
0300CC
0780CC
0FE0CC
0F788C
1B180C
33000C
63000C
0300FC
030038
000000
ENDCHAR

STARTCHAR cns3_275F
ENCODING 10079
SWIDTH 960 0
DWIDTH 24 0
BBX 24 24 0 -2
BITMAP
000000
00380E
00300C
0E70CC
0360CC
01E0CC
03F0CC
0638CC
1DD8CC
7980CC
0180CC
018CCC
7FFECC
0380CC
07B8CC
07B0CC
0DB0CC
0DB00C
19B00C
31B00C
619E0C
01807C
018018
000000
ENDCHAR

STARTCHAR cns3_2760
ENCODING 10080
SWIDTH 960 0
DWIDTH 24 0
BBX 24 24 0 -2
BITMAP
000000
01C0E0
0180C0
0180C0
01B0C0
3FF8C4
0007FE
0E60CC
0C30CC
1818CC
1878CC
3060CC
6C60CC
07C18C
03C18C
01818C
01C18C
03E30C
06730C
0C3618
180618
700CF8
001830
000000
ENDCHAR

STARTCHAR cns3_2761
ENCODING 10081
SWIDTH 960 0
DWIDTH 24 0
BBX 24 24 0 -2
BITMAP
000000
061CC0
031980
019B00
009A20
03FFE0
003000
006000
00C004
7FFFFE
0180C0
031C60
061830
0C1858
19FFEE
701864
003060
003060
006060
0060C0
00C0C0
018FC0
070380
000000
ENDCHAR

STARTCHAR cns3_2762
ENCODING 10082
SWIDTH 960 0
DWIDTH 24 0
BBX 24 24 0 -2
BITMAP
000000
038380
030330
031FF8
7FE330
030330
03DB30
0F0F30
3F0732
130FB2
031DBA
1F701E
06000E
001C00
001818
0FFFFC
001818
001818
003018
003018
006038
01C7F0
0F00E0
000000
ENDCHAR

STARTCHAR cns3_2763
ENCODING 10083
SWIDTH 960 0
DWIDTH 24 0
BBX 24 24 0 -2
BITMAP
000000
060060
030070
0180C0
00E180
086330
0FFFF8
0C1830
0C1830
0FFFF0
0C1830
0C1830
0FFFF0
0C1830
001800
00180C
7FFFFE
001800
001800
001800
001800
001800
001800
000000
ENDCHAR

STARTCHAR cns3_2764
ENCODING 10084
SWIDTH 960 0
DWIDTH 24 0
BBX 24 24 0 -2
BITMAP
000000
001C00
001800
001818
001FFC
001800
001800
20180C
3FFFFE
30000C
3200CC
33FFEC
3300CC
3300CC
3300CC
3300CC
3300CC
33FFCC
3300CC
30000C
3FFFFC
30000C
30000C
000000
ENDCHAR

STARTCHAR cns3_2765
ENCODING 10085
SWIDTH 960 0
DWIDTH 24 0
BBX 24 24 0 -2
BITMAP
000000
07040C
0607FE
0E660C
0FF60C
18660C
18E60C
3CC60C
6D860C
03860C
07C60C
0FB60C
1BFE0C
76360C
0C360C
1E660C
33E60C
03C6FC
018638
070600
0E0600
180600
700600
000000
ENDCHAR

STARTCHAR cns3_2766
ENCODING 10086
SWIDTH 960 0
DWIDTH 24 0
BBX 24 24 0 -2
BITMAP
000000
0000C0
0FFFE0
0000C0
00C784
3FFF0E
00D938
0199E0
0198C0
031860
06F838
1C301E
7FFFFE
040180
07FFC0
060180
060180
060180
061F88
060308
06000C
07001C
03FFF8
000000
ENDCHAR

STARTCHAR cns3_2767
ENCODING 10087
SWIDTH 960 0
DWIDTH 24 0
BBX 24 24 0 -2
BITMAP
000000
08000C
0FFFFE
0C0000
0C0700
0C0600
0C0618
0DFFFC
0C0600
0C0600
0C060C
0FFFFE
0C0000
0C0700
0C0600
0C0618
1BFFFC
180600
180600
300600
30060C
3FFFFE
600000
000000
ENDCHAR

STARTCHAR cns3_2768
ENCODING 10088
SWIDTH 960 0
DWIDTH 24 0
BBX 24 24 0 -2
BITMAP
000000
100018
1FFFFC
180000
180700
180600
180618
1FFFFC
180E00
181E00
181B30
183378
1863E0
18E380
19ED80
1B60C0
3060C0
306060
306760
307C30
30F01E
63C00C
630000
000000
ENDCHAR

STARTCHAR cns3_2769
ENCODING 10089
SWIDTH 960 0
DWIDTH 24 0
BBX 24 24 0 -2
BITMAP
000000
003800
003000
006300
00C180
0180C0
0FFFE0
033860
00300C
7FFFFE
00C600
018180
0300E0
0E003E
78018C
03FFC0
000000
000000
000300
01FF80
000000
000018
1FFFFC
000000
ENDCHAR

STARTCHAR cns3_276A
ENCODING 10090
SWIDTH 960 0
DWIDTH 24 0
BBX 24 24 0 -2
BITMAP
000000
003800
003000
006180
0060E0
00C3F0
0FFE30
043800
00300C
7FFFFE
006600
01C180
030CE0
061E38
1C718E
71C7C0
0E0E00
003870
00E0F8
0F03C0
001F00
007800
0FC000
000000
ENDCHAR

STARTCHAR cns3_276B
ENCODING 10091
SWIDTH 960 0
DWIDTH 24 0
BBX 24 24 0 -2
BITMAP
000000
003030
1FFFF8
003030
003030
006030
066360
03C1E0
01E1E0
03F378
0E3638
006018
3FFFFC
006C18
006C18
006630
0CC630
07C3E0
0381C0
03C3E0
06EE70
1C783E
78E018
000000
ENDCHAR

STARTCHAR cns3_276C
ENCODING 10092
SWIDTH 960 0
DWIDTH 24 0
BBX 24 24 0 -2
BITMAP
000000
000E00
000C00
000C18
1FFFFC
000000
0180E0
00C0C0
006180
006180
00030C
7FFFFE
000000
040060
07FFF0
060060
060060
060060
060060
060060
060060
07FFE0
060060
000000
ENDCHAR

STARTCHAR cns3_276D
ENCODING 10093
SWIDTH 960 0
DWIDTH 24 0
BBX 24 24 0 -2
BITMAP
000000
000380
000300
430300
7F8300
630318
637FFC
630000
630000
630000
630038
633030
631060
631860
631860
7F0C60
630CC0
630CC0
000CC0
000CC0
000180
00018C
03FFFE
000000
ENDCHAR

STARTCHAR cns3_276E
ENCODING 10094
SWIDTH 960 0
DWIDTH 24 0
BBX 24 24 0 -2
BITMAP
000000
0001C0
418180
7FC180
61818C
61FFFE
618380
618300
618300
618630
618638
61BC30
619C60
618E60
7F86C0
618180
618180
000330
000618
000618
000CFC
007F8C
006000
000000
ENDCHAR

STARTCHAR cns3_276F
ENCODING 10095
SWIDTH 960 0
DWIDTH 24 0
BBX 24 24 0 -2
BITMAP
000000
000000
430018
7FFFFC
631800
631800
631800
631860
633FF0
633060
633060
633060
633C60
633660
7F3360
636360
636060
006064
0061E4
006F66
007866
01E03C
008000
000000
ENDCHAR

STARTCHAR cns3_2770
ENCODING 10096
SWIDTH 960 0
DWIDTH 24 0
BBX 24 24 0 -2
BITMAP
000000
000380
430300
7F8300
632330
633FF8
633330
633330
633330
633330
633330
633330
63333C
637FFE
7F0300
630300
630300
000780
0006C0
000C60
001830
00701E
01C00C
000000
ENDCHAR

STARTCHAR cns3_2771
ENCODING 10097
SWIDTH 960 0
DWIDTH 24 0
BBX 24 24 0 -2
BITMAP
000000
0001C0
418180
7FCF80
618D80
618D98
619FFC
619980
61B180
61E180
618180
61818C
61FFFE
618180
7F8180
618380
6183C0
0006C0
000C60
001830
003018
00600E
01C004
000000
ENDCHAR

STARTCHAR cns3_2772
ENCODING 10098
SWIDTH 960 0
DWIDTH 24 0
BBX 24 24 0 -2
BITMAP
000000
1000C0
1FFFE0
1800C0
1800C0
1800C0
1FFFC0
1860C0
006000
406030
7FFFF8
606030
606030
606030
7FFFF0
606030
606030
606030
7FFFF6
606036
006006
00700E
003FFE
000000
ENDCHAR

STARTCHAR cns3_2773
ENCODING 10099
SWIDTH 960 0
DWIDTH 24 0
BBX 24 24 0 -2
BITMAP
000000
000000
430E00
7F8380
630180
630300
637F80
630300
630308
631B1C
63FFB0
631BE0
631BC0
631BC0
7F1BC0
633360
603360
006330
00C318
01830E
000300
003F00
000E00
000000
ENDCHAR

STARTCHAR cns3_2774
ENCODING 10100
SWIDTH 960 0
DWIDTH 24 0
BBX 24 24 0 -2
BITMAP
000000
000030
419FF8
7FC000
618000
618000
618000
61800C
61BFFE
618180
618180
618180
619980
6199B0
7FB198
61B198
60618C
00618E
00C186
018180
000180
000F80
000300
000000
ENDCHAR

STARTCHAR cns3_2775
ENCODING 10101
SWIDTH 960 0
DWIDTH 24 0
BBX 24 24 0 -2
BITMAP
000000
000770
437660
7FE660
636660
636660
636660
63666C
63FFFE
636660
636660
636660
636660
636660
7F6660
6367E0
636660
006000
006000
006038
007FFC
006000
006000
000000
ENDCHAR

STARTCHAR cns3_2776
ENCODING 10102
SWIDTH 960 0
DWIDTH 24 0
BBX 24 24 0 -2
BITMAP
000000
106830
1FFFF8
186C30
186C30
186C30
186C30
1FEFF0
186C30
000000
00000C
7FFFFE
018000
018000
030060
03FFF0
060060
000060
000060
000060
0000E0
001FC0
000380
000000
ENDCHAR

STARTCHAR cns3_2777
ENCODING 10103
SWIDTH 960 0
DWIDTH 24 0
BBX 24 24 0 -2
BITMAP
000000
000380
418300
7FC300
618318
6183FC
618300
618300
61830C
61FFFE
618300
618300
618300
6183C0
7F8360
618330
600318
000318
000300
000300
000300
000300
000300
000000
ENDCHAR

STARTCHAR cns3_2778
ENCODING 10104
SWIDTH 960 0
DWIDTH 24 0
BBX 24 24 0 -2
BITMAP
000000
002018
41BFFC
7FF018
61B018
61B018
61B018
61B018
61B018
61B018
61BFF8
61B6D8
6186C0
6186C0
7F86C0
618CC0
618CC4
000CC4
0018C4
0018C6
0030E6
00607C
01C000
000000
ENDCHAR

STARTCHAR cns3_2779
ENCODING 10105
SWIDTH 960 0
DWIDTH 24 0
BBX 24 24 0 -2
BITMAP
000000
000000
418070
7FC3F8
61BF80
618180
618180
618180
61818C
61FFFE
618180
618380
6183C0
6187C0
7F87E0
618DB0
618D98
00199C
00318E
006184
000180
000180
000180
000000
ENDCHAR

STARTCHAR cns3_277A
ENCODING 10106
SWIDTH 960 0
DWIDTH 24 0
BBX 24 24 0 -2
BITMAP
000000
0001C0
418180
7FC300
61A30C
61BFFE
61B00C
61B00C
61B00C
61B00C
61B00C
61B00C
61BFFC
61B00C
7FB00C
61B00C
61B00C
00300C
00300C
00300C
003FFC
00300C
00300C
000000
ENDCHAR

STARTCHAR cns3_277B
ENCODING 10107
SWIDTH 960 0
DWIDTH 24 0
BBX 24 24 0 -2
BITMAP
000000
40000C
7FFFFE
60000C
60018C
67FFCC
60300C
60300C
60300C
60300C
60330C
63FF8C
60300C
60300C
60360C
60338C
60318C
6030CC
6FFFEC
60000C
60000C
7FFFFC
60000C
000000
ENDCHAR

STARTCHAR cns3_277C
ENCODING 10108
SWIDTH 960 0
DWIDTH 24 0
BBX 24 24 0 -2
BITMAP
000000
40000C
7FFFFE
60000C
62018C
63FFCC
63018C
63018C
63FF8C
63198C
63180C
6318CC
63FFEC
63180C
630C0C
630C4C
63664C
63C76C
6703EC
7C01CC
60000C
7FFFFC
60000C
000000
ENDCHAR

STARTCHAR cns3_277D
ENCODING 10109
SWIDTH 960 0
DWIDTH 24 0
BBX 24 24 0 -2
BITMAP
000000
20000C
3FFFFE
30000C
30006C
37FFFC
300C0C
300C0C
300C0C
300C0C
31CC0C
318CCC
318FEC
318C0C
318C0C
318C0C
318C0C
318C6C
3FFFFC
30000C
30000C
3FFFFC
30000C
000000
ENDCHAR

STARTCHAR cns3_277E
ENCODING 10110
SWIDTH 960 0
DWIDTH 24 0
BBX 24 24 0 -2
BITMAP
000000
40000C
7FFFFE
60000C
64018C
67FFCC
66318C
66318C
66318C
67FF8C
66318C
66318C
66318C
67FF8C
66318C
60300C
60300C
60300C
60300C
60300C
60000C
7FFFFC
60000C
000000
ENDCHAR

STARTCHAR cns3_2821
ENCODING 10273
SWIDTH 960 0
DWIDTH 24 0
BBX 24 24 0 -2
BITMAP
000000
20000C
3FFFFE
30000C
30380C
30300C
30300C
30630C
30C1CC
3187EC
33FC6C
37000C
30000C
3100CC
31FFEC
3180CC
3180CC
3180CC
31FFCC
3180CC
30000C
3FFFFC
30000C
000000
ENDCHAR

STARTCHAR cns3_2822
ENCODING 10274
SWIDTH 960 0
DWIDTH 24 0
BBX 24 24 0 -2
BITMAP
000000
20000C
3FFFFE
30660C
30660C
30662C
30C62C
30C63C
31863C
3303EC
36000C
301C0C
30180C
30198C
33FFCC
30180C
30180C
30180C
30186C
37FFFC
30000C
3FFFFC
30000C
000000
ENDCHAR

STARTCHAR cns3_2823
ENCODING 10275
SWIDTH 960 0
DWIDTH 24 0
BBX 24 24 0 -2
BITMAP
000000
0E2030
0C3FF8
0C3030
0C3030
0C3030
0DB030
7FF030
0C3FF0
0C3030
0C3030
0C3030
0C3030
0C3030
0DBFF0
0F3030
1E3030
783030
603030
003030
00303C
03FFFE
000000
000000
ENDCHAR

STARTCHAR cns3_2824
ENCODING 10276
SWIDTH 960 0
DWIDTH 24 0
BBX 24 24 0 -2
BITMAP
000000
0E1C00
0C1800
0C1800
0C3030
0C3FF8
0DB300
7FE300
0C0300
0C0300
0C0318
0C7FFC
0C0300
0C0700
0DC700
0F0780
1E0D80
700CC0
601860
003070
00603E
00C018
038000
000000
ENDCHAR

STARTCHAR cns3_2825
ENCODING 10277
SWIDTH 960 0
DWIDTH 24 0
BBX 24 24 0 -2
BITMAP
000000
061C60
031860
0198C0
11998C
1FFFFE
18000C
18000C
381C18
301800
001800
001800
001800
001830
0FFFF8
001800
001800
001800
001800
001800
00180C
7FFFFE
000000
000000
ENDCHAR

STARTCHAR cns3_2826
ENCODING 10278
SWIDTH 960 0
DWIDTH 24 0
BBX 24 24 0 -2
BITMAP
000000
0E0000
0C000C
0C7FFE
0C0300
0C0300
0D8300
7FC600
0C0600
0C0C00
0C0C0C
0C1FFE
0C1C0C
0C3C0C
0DFC0C
0F6C0C
1ECC0C
700C0C
600C0C
000C0C
000FFC
000C0C
000C0C
000000
ENDCHAR

STARTCHAR cns3_2827
ENCODING 10279
SWIDTH 960 0
DWIDTH 24 0
BBX 24 24 0 -2
BITMAP
000000
000380
0E0300
0C2330
0C3FF8
0C3330
0C3330
0F3330
7FB33C
0C7FFE
0C3330
0C3330
0C3330
0C333C
0CFFFE
0C3030
0F3030
1C3030
703030
203030
003030
0031F0
003060
000000
ENDCHAR

STARTCHAR cns3_2828
ENCODING 10280
SWIDTH 960 0
DWIDTH 24 0
BBX 24 24 0 -2
BITMAP
000000
0E0700
0C0600
0C0600
0C0600
0C0600
0D8C30
7FCC18
0C0C0C
0C19FE
0C7F06
0C6000
0C2018
0C3FFC
0DB018
0F3018
1C3018
703018
603018
003018
003FF8
003018
003018
000000
ENDCHAR

STARTCHAR cns3_2829
ENCODING 10281
SWIDTH 960 0
DWIDTH 24 0
BBX 24 24 0 -2
BITMAP
000000
0E1C00
0C1800
0C1800
0C300C
0C3FFE
0DB00C
7FE00C
0C10CC
0C1FEC
0C18CC
0C18CC
0C18CC
0C18CC
0D98CC
0F1FCC
1C18CC
7018CC
60000C
00001C
000018
0003F8
000070
000000
ENDCHAR

STARTCHAR cns3_282A
ENCODING 10282
SWIDTH 960 0
DWIDTH 24 0
BBX 24 24 0 -2
BITMAP
000000
0E1C00
0C1838
0C1830
0C1830
0C3030
0F303C
7FF7FE
0C7030
0C7030
0CF030
0DB630
0C3330
0C31B0
0DB1B0
0F3030
1C3030
783030
203030
003030
003030
0031F0
003060
000000
ENDCHAR

STARTCHAR cns3_282B
ENCODING 10283
SWIDTH 960 0
DWIDTH 24 0
BBX 24 24 0 -2
BITMAP
000000
00E380
00C300
00C300
00C30C
3FC3FE
00C300
00C300
00C300
01C304
07C304
1CC306
70C386
20C1FC
00DC00
001800
001860
0FFFF0
001800
001800
001800
00180C
7FFFFE
000000
ENDCHAR

STARTCHAR cns3_282C
ENCODING 10284
SWIDTH 960 0
DWIDTH 24 0
BBX 24 24 0 -2
BITMAP
000000
001C00
001800
001800
219830
3FD820
319860
319860
319860
3198F0
3198D8
3F998E
319B06
001800
001800
001830
0FFFF8
001800
001800
001800
00180C
7FFFFE
000000
000000
ENDCHAR

STARTCHAR cns3_282D
ENCODING 10285
SWIDTH 960 0
DWIDTH 24 0
BBX 24 24 0 -2
BITMAP
000000
003800
003018
7FFFFC
003000
0030C0
1FFFE0
20000C
3FFFFE
30000C
600198
67FFC0
000000
010300
01FF80
018300
018300
018304
030304
030304
060306
0C0386
7801FC
000000
ENDCHAR

STARTCHAR cns3_282E
ENCODING 10286
SWIDTH 960 0
DWIDTH 24 0
BBX 24 24 0 -2
BITMAP
000000
007000
006000
006018
7FFFFC
00C600
018300
030180
0600E0
0C0078
38003E
7FFFF8
183030
183030
183030
183030
1FFFF0
183030
183030
183030
183030
1FFFF0
180030
000000
ENDCHAR

STARTCHAR cns3_282F
ENCODING 10287
SWIDTH 960 0
DWIDTH 24 0
BBX 24 24 0 -2
BITMAP
000000
003800
003000
003060
003FF0
083060
0FFFF0
0C0060
0C0060
0C0060
0C0060
0FFFE0
0C0060
001C00
00180C
7FFFFE
003800
007C00
00E700
01C380
0381E0
0E007E
380030
000000
ENDCHAR

STARTCHAR cns3_2830
ENCODING 10288
SWIDTH 960 0
DWIDTH 24 0
BBX 24 24 0 -2
BITMAP
000000
0E000C
0C3FFE
0C0180
0C0180
0DA184
7FD186
19998C
198998
198DB0
198DA0
318180
31818C
337FFE
730180
7B0180
0F0180
070180
0F8180
0D8180
180180
300180
600180
000000
ENDCHAR

STARTCHAR cns3_2831
ENCODING 10289
SWIDTH 960 0
DWIDTH 24 0
BBX 24 24 0 -2
BITMAP
000000
0E000C
0C1FFE
0C0070
0C0060
0CC060
7FE0C0
0CC0C0
18C1C0
18C3F0
1983DC
1986CE
318CC6
31B8C6
3300C0
7B00C0
0F00C0
0700C0
0780C0
0D80C0
1800CC
303FFE
600000
000000
ENDCHAR

STARTCHAR cns3_2832
ENCODING 10290
SWIDTH 960 0
DWIDTH 24 0
BBX 24 24 0 -2
BITMAP
000000
0E0380
0C0300
0C030C
0C7FFE
0D8300
7FC600
1986E0
1986C0
198CCC
198FFE
319CCC
31BCCC
336CCC
73CCCC
7B0CCC
4F0CCC
070CCC
0F8CCC
0D8CFC
180CD8
3000C0
6000C0
000000
ENDCHAR

STARTCHAR cns3_2833
ENCODING 10291
SWIDTH 960 0
DWIDTH 24 0
BBX 24 24 0 -2
BITMAP
000000
0E0380
0C0360
0C0330
0C0318
0D830C
7FDFFE
198600
198600
19861C
198618
318718
318718
330F30
730DB0
7B0DE0
4F18E0
0718E0
0FB0E0
0DB1F0
186338
30C61E
619C08
000000
ENDCHAR

STARTCHAR cns3_2834
ENCODING 10292
SWIDTH 960 0
DWIDTH 24 0
BBX 24 24 0 -2
BITMAP
000000
0E000C
0C1FFE
0C000C
0C000C
0CC0CC
7FFFEC
18C00C
18C00C
18D0CC
199FEC
3198CC
3198CC
3198CC
3318CC
7B1FCC
4F18CC
0718CC
0F800C
0D800C
18000C
3000FC
600038
000000
ENDCHAR

STARTCHAR cns3_2835
ENCODING 10293
SWIDTH 960 0
DWIDTH 24 0
BBX 24 24 0 -2
BITMAP
000000
0E100C
0C1FFE
0C180C
0C180C
0CD80C
7FF80C
0CDFFC
18D8CC
18D8CC
1998C0
1998CC
319FFE
3198C0
3318C0
7B1860
0F1860
071862
079832
0D9BBA
181E1E
30F00E
606006
000000
ENDCHAR

STARTCHAR cns3_2836
ENCODING 10294
SWIDTH 960 0
DWIDTH 24 0
BBX 24 24 0 -2
BITMAP
000000
0E0000
0C200C
0C3FFE
0C318C
0CF18C
7FF18C
18F18C
18F18C
18F18C
19B18C
31BFFC
31B18C
31B18C
33318C
7B318C
0F318C
07318C
07B18C
0DB18C
183FFC
30300C
60300C
000000
ENDCHAR

STARTCHAR cns3_2837
ENCODING 10295
SWIDTH 960 0
DWIDTH 24 0
BBX 24 24 0 -2
BITMAP
000000
0E0030
0C00F8
0C0380
0C1E00
0CC380
7FE300
18C300
18C330
19FFF8
198030
198060
318060
3180C0
330180
7B0300
2F1E00
071C00
07BC00
0DB600
186300
30E1FE
60003C
000000
ENDCHAR

STARTCHAR cns3_2838
ENCODING 10296
SWIDTH 960 0
DWIDTH 24 0
BBX 24 24 0 -2
BITMAP
000000
0E0700
0C0600
0C0600
0C0C0C
0CCFFE
7FFD80
0CD980
18F180
18F18C
19E1FE
318180
318180
330180
73018C
7F01FE
0F0180
070180
0F8180
0D8180
180180
300180
600180
000000
ENDCHAR

STARTCHAR cns3_2839
ENCODING 10297
SWIDTH 960 0
DWIDTH 24 0
BBX 24 24 0 -2
BITMAP
000000
0E0700
0C0600
0C0600
0C0C0C
0CCFFE
7FF80C
18D80C
18F8CC
18CFEC
18CCCC
198CCC
318CCC
318CCC
318FCC
7B0CD8
2F0CF8
070C30
078C04
0D8C04
180C06
300E06
6007FC
000000
ENDCHAR

STARTCHAR cns3_283A
ENCODING 10298
SWIDTH 960 0
DWIDTH 24 0
BBX 24 24 0 -2
BITMAP
000000
0E0700
0C0618
0C0FFC
0C0C18
0D9C18
7FDE30
19B330
19E1E0
1981C0
1981E0
318338
318E1E
33380C
730300
7B01C0
4F00E0
060060
0F8020
0D8600
180380
3001C0
6000E0
000020
ENDCHAR

STARTCHAR cns3_283B
ENCODING 10299
SWIDTH 960 0
DWIDTH 24 0
BBX 24 24 0 -2
BITMAP
000000
0E0000
0C003C
0C17E0
0C1800
0D9800
7FD800
199800
199800
199818
199FFC
319860
319860
331860
731860
7B1860
4F1860
071860
0F9860
0D9860
18186C
307FFE
600000
000000
ENDCHAR

STARTCHAR cns3_283C
ENCODING 10300
SWIDTH 960 0
DWIDTH 24 0
BBX 24 24 0 -2
BITMAP
000000
01800C
3FDFFE
060700
06060C
060FFE
060C0C
06D80C
07800C
0F0018
3C0018
1801F0
007060
00600C
7FFFFE
00C180
00C180
018300
03FF00
000F00
0039E0
00E078
3F8038
000000
ENDCHAR

STARTCHAR cns3_283D
ENCODING 10301
SWIDTH 960 0
DWIDTH 24 0
BBX 24 24 0 -2
BITMAP
000000
030000
03320C
3FFBFE
03330C
06330C
06330C
06330C
0C330C
0C73FC
19E30C
300000
007000
00600C
7FFFFE
00C180
018180
030300
03F700
000F80
0039E0
00E078
1F8018
000000
ENDCHAR

STARTCHAR cns3_283E
ENCODING 10302
SWIDTH 960 0
DWIDTH 24 0
BBX 24 24 0 -2
BITMAP
000000
080030
0FFFF8
0C1830
0C1830
0C1830
0FFFF0
0C1830
0C1830
0C1830
0FFFF0
0C0030
007000
00600C
7FFFFE
00C180
018180
030300
03F700
000F80
0038E0
00E038
3F8018
000000
ENDCHAR

STARTCHAR cns3_283F
ENCODING 10303
SWIDTH 960 0
DWIDTH 24 0
BBX 24 24 0 -2
BITMAP
000000
1C01C0
180180
18018C
187FFE
198180
7FC180
19A18C
19BFFE
31B18C
31B18C
33318C
33318C
63318C
63318C
7E318C
0E318C
0F31FC
0F3198
1B0180
300180
600180
000180
000000
ENDCHAR

STARTCHAR cns3_2840
ENCODING 10304
SWIDTH 960 0
DWIDTH 24 0
BBX 24 24 0 -2
BITMAP
000000
0E000C
0C7FFE
0C0018
0C0018
0CC018
7FF0D8
0CDFF8
18D8D8
18D8D8
18D8D8
1998D8
3198D8
3198D8
3318D8
7F1FD8
0718D8
0798D8
078018
0D8018
180018
3001F8
600070
000000
ENDCHAR

STARTCHAR cns3_2841
ENCODING 10305
SWIDTH 960 0
DWIDTH 24 0
BBX 24 24 0 -2
BITMAP
000000
0E0000
0C000C
0C3FFE
0C0700
0CC600
7FE600
18C600
18CC00
18CC00
18D818
199FFC
31B818
31F818
33D818
7F1818
071818
079818
079818
0D9818
181FF8
301818
601818
000000
ENDCHAR

STARTCHAR cns3_2842
ENCODING 10306
SWIDTH 960 0
DWIDTH 24 0
BBX 24 24 0 -2
BITMAP
000000
0C1C00
0C1800
0C1800
0C184C
199B7E
7FFFEC
199B6C
199B6C
199B6C
331B6C
331B6C
33336C
33336C
33336C
7E336C
2E636C
07636C
0FE36C
0DC36C
18C77C
31BE6C
630C6C
000000
ENDCHAR

STARTCHAR cns3_2843
ENCODING 10307
SWIDTH 960 0
DWIDTH 24 0
BBX 24 24 0 -2
BITMAP
000000
0E1018
0C1FFC
0C1818
0C1818
0CD818
7FF818
18D818
18DFF8
18D818
18D800
199800
31980C
319FFE
33180C
7F180C
07180C
07980C
07980C
0D980C
181FFC
30180C
60180C
000000
ENDCHAR

STARTCHAR cns3_2844
ENCODING 10308
SWIDTH 960 0
DWIDTH 24 0
BBX 24 24 0 -2
BITMAP
000000
0E0060
0C3FF0
0C0C60
0C0CC0
0CCCCC
7FEDFE
0CD98C
18D86C
18DFFC
19B06C
19E0CC
3183FC
318318
33030C
7B7FFE
0E0300
070300
078300
0D8300
180300
301F00
600600
000000
ENDCHAR

STARTCHAR cns3_2845
ENCODING 10309
SWIDTH 960 0
DWIDTH 24 0
BBX 24 24 0 -2
BITMAP
000000
0E01C0
0C0180
0C0F80
0C0D80
0CD998
7FFFFC
0CF180
18F180
18E180
18C180
19818C
31FFFE
318180
318180
7B0380
0F03C0
0706C0
078660
0D8C30
18181C
30300E
61E004
000000
ENDCHAR

STARTCHAR cns3_2846
ENCODING 10310
SWIDTH 960 0
DWIDTH 24 0
BBX 24 24 0 -2
BITMAP
000000
0E134C
0C1FFE
0C1B6C
0C1B6C
0D9B6C
7FDB6C
199B6C
199B6C
199B6C
199B6C
33FFFE
331B6C
331B6C
331B6C
7B1B6C
0E1B6C
07336C
0FB36C
0DB36C
18336C
306F7C
606268
000000
ENDCHAR

STARTCHAR cns3_2847
ENCODING 10311
SWIDTH 960 0
DWIDTH 24 0
BBX 24 24 0 -2
BITMAP
000000
1C0380
180300
180780
1806C0
198C60
7FCC70
199838
19B01E
19E1CC
330180
330180
331D80
6319E0
6619B0
363198
1E318C
0E618E
0F0186
1B0180
300180
600F80
000300
000000
ENDCHAR

STARTCHAR cns3_2848
ENCODING 10312
SWIDTH 960 0
DWIDTH 24 0
BBX 24 24 0 -2
BITMAP
000000
00000C
7FFFFE
00000C
00018C
1FFFCC
08060C
0FFF0C
0C060C
0C060C
0FFE0C
0C060C
00060C
03FF7C
000618
001C00
00180C
7FFFFE
001800
001800
001800
01F800
007000
000000
ENDCHAR

STARTCHAR cns3_2849
ENCODING 10313
SWIDTH 960 0
DWIDTH 24 0
BBX 24 24 0 -2
BITMAP
000000
10600C
1FF3FC
18600E
1E6018
1B6018
19E030
19E070
187060
7FF860
18606C
186FFE
3E6060
336060
33E060
31E060
307060
3FF860
306060
006060
00C060
07C7E0
0181C0
000000
ENDCHAR

STARTCHAR cns3_284A
ENCODING 10314
SWIDTH 960 0
DWIDTH 24 0
BBX 24 24 0 -2
BITMAP
000000
003800
003000
20300C
3FFFFE
30600C
6FF1CC
606198
006180
086180
0FE300
0C6300
0C0300
0C6300
1FF600
186600
1866C0
006660
00CC30
00CC78
00CFDC
0FF80C
030000
000000
ENDCHAR

STARTCHAR cns3_284B
ENCODING 10315
SWIDTH 960 0
DWIDTH 24 0
BBX 24 24 0 -2
BITMAP
000000
001C00
001800
10180C
1FFFFE
18000C
330E0C
318C18
00CC00
060C00
030C00
018C00
000C0C
7FFFFE
001C00
001E00
003600
003300
006180
00C0C0
038070
0E003E
380018
000000
ENDCHAR

STARTCHAR cns3_284C
ENCODING 10316
SWIDTH 960 0
DWIDTH 24 0
BBX 24 24 0 -2
BITMAP
000000
001C00
001800
10180C
1FFFFE
38000C
30300C
601C18
000C00
000018
3FFFFC
001800
001800
001800
001830
0FFFF8
001800
001800
001800
001800
00180C
7FFFFE
000000
000000
ENDCHAR

STARTCHAR cns3_284D
ENCODING 10317
SWIDTH 960 0
DWIDTH 24 0
BBX 24 24 0 -2
BITMAP
000000
001C00
10180C
1FFFFE
38000C
301C0C
601818
0018C0
03FFE0
001800
001818
0FFFFC
001800
001800
00180C
3FFFFE
003C00
003600
006300
00C1C0
0180F0
07007E
3C0018
000000
ENDCHAR

STARTCHAR cns3_284E
ENCODING 10318
SWIDTH 960 0
DWIDTH 24 0
BBX 24 24 0 -2
BITMAP
000000
001C00
10180C
1FFFFE
18000C
30001C
600030
1FFFF8
001800
001800
001800
001800
001800
0018C0
07FFE0
001B00
001980
0018E0
001860
001800
001818
3FFFFC
000000
000000
ENDCHAR

STARTCHAR cns3_284F
ENCODING 10319
SWIDTH 960 0
DWIDTH 24 0
BBX 24 24 0 -2
BITMAP
000000
001C00
10180C
1FFFFE
18000C
300018
601C30
001800
001800
001818
0FFFFC
001800
001800
001800
021830
03FFF8
030030
030030
030030
030030
030030
03FFF0
030030
000000
ENDCHAR

STARTCHAR cns3_2850
ENCODING 10320
SWIDTH 960 0
DWIDTH 24 0
BBX 24 24 0 -2
BITMAP
000000
403038
7FF830
600030
600030
600030
68603C
6FFFFE
6C6030
6C6030
6C6030
6C6C30
6C6630
6C6330
6C61B0
6FE1B0
6C6030
600030
600030
601830
7FFC30
6003F0
6000E0
000000
ENDCHAR

STARTCHAR cns3_2851
ENCODING 10321
SWIDTH 960 0
DWIDTH 24 0
BBX 24 24 0 -2
BITMAP
000000
001C00
001800
01D980
0198C0
019870
031838
06181C
1C180C
301818
1FFFFC
180018
188318
18FF98
18C318
18C318
18C318
18FF18
18C318
18C318
180018
1801F8
180070
000000
ENDCHAR

STARTCHAR cns3_2852
ENCODING 10322
SWIDTH 960 0
DWIDTH 24 0
BBX 24 24 0 -2
BITMAP
000000
08000C
0FFFFE
0C000C
0C000C
0C000C
0FFFFC
0C070C
0C0600
0C0618
0DFFFC
0C0000
0C0000
0CC070
0C6060
0C60C0
0C60C0
183180
183180
183300
30030C
33FFFE
600000
000000
ENDCHAR

STARTCHAR cns3_2853
ENCODING 10323
SWIDTH 960 0
DWIDTH 24 0
BBX 24 24 0 -2
BITMAP
000000
08000C
0FFFFE
0C000C
0C000C
0C000C
0FFFFC
0C000C
0C0E00
0C0C00
0CCC30
0FEDF8
0C0C00
0C0C00
0CCC30
0FEDF8
0C0C00
180C04
180C04
180C06
300E0E
3007FC
600000
000000
ENDCHAR

STARTCHAR cns3_2854
ENCODING 10324
SWIDTH 960 0
DWIDTH 24 0
BBX 24 24 0 -2
BITMAP
000000
10000C
1FFFFE
18000C
18000C
1FFFFC
18000C
180000
18EE70
18CC60
18CC60
18CC6C
1FFFFE
18CC60
18CC60
18CC60
18CC60
18CFE0
30CC60
30CC00
30C01C
30FFFE
60C000
000000
ENDCHAR

STARTCHAR cns3_2855
ENCODING 10325
SWIDTH 960 0
DWIDTH 24 0
BBX 24 24 0 -2
BITMAP
000000
10000C
1FFFFE
18000C
18000C
1FFFFC
18000C
180700
180600
180600
1A060C
1BFFFE
1B060C
1B060C
1B060C
1B060C
1BFFFC
1B060C
33060C
33060C
33060C
33FFFC
63000C
000000
ENDCHAR

STARTCHAR cns3_2856
ENCODING 10326
SWIDTH 960 0
DWIDTH 24 0
BBX 24 24 0 -2
BITMAP
000000
0E080C
0C0FFE
0C0C0C
7DCC0C
6D8C0C
6D8C0C
6D8FFC
6D8C0C
6D8800
6D8B80
6D8B00
6D9B00
6D9B00
6D9B04
6D9BFC
6DB300
7FB304
61B304
61A304
006306
00C38E
0181FC
000000
ENDCHAR

STARTCHAR cns3_2857
ENCODING 10327
SWIDTH 960 0
DWIDTH 24 0
BBX 24 24 0 -2
BITMAP
000000
0E10F8
0C1F80
0C1980
7DD980
6D9980
6D9980
6D998C
6D9FFE
6D9980
6D9980
6D9980
6D9980
6D98C0
6D98C0
6D98C2
6D9B62
7FBE62
61F832
61A01E
00006E
007FF0
000000
000000
ENDCHAR

STARTCHAR cns3_2858
ENCODING 10328
SWIDTH 960 0
DWIDTH 24 0
BBX 24 24 0 -2
BITMAP
000000
001C00
001800
1C181C
181818
181818
1FFFF8
180018
00E40C
1387FE
1E760C
18660C
18660C
18660C
18660C
18660C
1BE60C
7EC60C
60C67C
00C618
018600
030600
0E0600
000000
ENDCHAR

STARTCHAR cns3_2859
ENCODING 10329
SWIDTH 960 0
DWIDTH 24 0
BBX 24 24 0 -2
BITMAP
000000
0001F0
001FC0
1FF800
00180C
7FFFFE
007E00
00DB00
019980
0718E0
1C187E
701830
001800
000000
001C00
001800
1C181C
181818
181818
181818
181818
1FFFF8
180018
000000
ENDCHAR

STARTCHAR cns3_285A
ENCODING 10330
SWIDTH 960 0
DWIDTH 24 0
BBX 24 24 0 -2
BITMAP
000000
0E200C
0C3FFE
0C3000
0C3000
7DF00C
6DBFFE
6DB0C0
6DB0C0
6DB0C0
6DB0C0
6DB0CC
6DBFFE
6DB0C0
6DB0C0
6DB0C0
6DB0C0
7FB0C0
61E0C0
61E0C0
0060C0
00C0C0
0080C0
000000
ENDCHAR

STARTCHAR cns3_285B
ENCODING 10331
SWIDTH 960 0
DWIDTH 24 0
BBX 24 24 0 -2
BITMAP
000000
0E000C
0C7FFE
0C0018
0C0018
7DC018
6D90D8
6D9FF8
6D98D8
6D98D8
6D98D8
6D98D8
6D98D8
6D98D8
6D98D8
6D9FD8
6D98D8
7F98D8
618018
618018
000018
0001F8
000070
000000
ENDCHAR

STARTCHAR cns3_285C
ENCODING 10332
SWIDTH 960 0
DWIDTH 24 0
BBX 24 24 0 -2
BITMAP
000000
0E000C
0C3FFE
0C030C
0C060C
7DC60C
6D860C
6D860C
6D8C18
6D8C18
6D99F8
6DB030
6DE00C
6DBFFE
6DB00C
6DB00C
6DB00C
7FB00C
61B00C
61B00C
603FFC
00300C
00300C
000000
ENDCHAR

STARTCHAR cns3_285D
ENCODING 10333
SWIDTH 960 0
DWIDTH 24 0
BBX 24 24 0 -2
BITMAP
000000
0E0700
0C0600
0C0600
0C0C0C
7DCFFE
6D8D80
6D9980
6D9980
6DB18C
6DE1FE
6D8180
6D8180
6D8180
6D818C
6D81FE
6D8180
7F8180
618180
618180
600180
000180
000180
000000
ENDCHAR

STARTCHAR cns3_285E
ENCODING 10334
SWIDTH 960 0
DWIDTH 24 0
BBX 24 24 0 -2
BITMAP
000000
0E0000
0C003C
0C11E0
0C1F00
7DD800
6D9800
6D9800
6D9800
6D9818
6D9FFC
6D9860
6D9860
6D9860
6D9860
6D9860
6D9860
7F9860
619860
619860
00186C
007FFE
000000
000000
ENDCHAR

STARTCHAR cns3_285F
ENCODING 10335
SWIDTH 960 0
DWIDTH 24 0
BBX 24 24 0 -2
BITMAP
000000
001C00
0E1838
0C1830
0C1830
0FFFF0
0C0030
001C00
003600
006300
01C180
0300E0
0CFF38
38001F
400002
1FFFF8
000030
000060
0000C0
003180
001B00
000E00
000700
000300
ENDCHAR

STARTCHAR cns3_2860
ENCODING 10336
SWIDTH 960 0
DWIDTH 24 0
BBX 24 24 0 -2
BITMAP
000000
00340C
7FFFFE
06360C
06360C
06360C
0C360C
0C360C
0C660C
18660C
1BE7FC
30C60C
600600
303600
3FFE00
303600
303600
303600
303604
303604
3FF606
303706
3003FC
000000
ENDCHAR

STARTCHAR cns3_2861
ENCODING 10337
SWIDTH 960 0
DWIDTH 24 0
BBX 24 24 0 -2
BITMAP
000000
0E0380
0C0300
0C0300
0C031C
4DFFFE
7FC300
6D8300
6D8300
6D8300
6D8318
6DFFFC
6D8780
6D8780
6D8FC0
6D8FC0
6D9BE0
6F3370
6C6338
0CC31E
0C030C
0C0300
0C0300
000000
ENDCHAR

STARTCHAR cns3_2862
ENCODING 10338
SWIDTH 960 0
DWIDTH 24 0
BBX 24 24 0 -2
BITMAP
000000
0187C0
038670
070630
06060E
0EFFF8
1E0300
360182
0601C2
060072
061C1E
041830
07FFF8
061830
061830
061830
061830
061830
061830
061BF0
061860
001800
001800
000000
ENDCHAR

STARTCHAR cns3_2863
ENCODING 10339
SWIDTH 960 0
DWIDTH 24 0
BBX 24 24 0 -2
BITMAP
000000
00E030
00C038
00C070
0180E0
03318C
3FFFFE
0300C0
0300C0
0300C0
0300C0
0300C0
0300C0
0300CC
7FEFFE
0300C0
0600C0
0600C0
0600C0
0C00C0
0C00C0
1800C0
3000C0
000000
ENDCHAR

STARTCHAR cns3_2864
ENCODING 10340
SWIDTH 960 0
DWIDTH 24 0
BBX 24 24 0 -2
BITMAP
000000
003000
001800
100C0C
1FFFFE
180000
1880C0
18FFE0
18C0C0
18C0C0
18C0C0
18FFC0
18C0C0
18C0C0
18C0C0
18C0C0
18FFC0
18C0C0
30C0C0
30C0C0
30C0CC
6FFFFE
600000
000000
ENDCHAR

STARTCHAR cns3_2865
ENCODING 10341
SWIDTH 960 0
DWIDTH 24 0
BBX 24 24 0 -2
BITMAP
003000
001800
001800
100C0C
1FFFFE
180000
1B0018
1BFFFC
1B0C18
1B0C18
1BFFF8
1B0C18
1B0C18
1BFFF8
1B0C18
180C00
180C00
180C00
300C00
300C00
300C00
600C00
600800
000000
ENDCHAR

STARTCHAR cns3_2866
ENCODING 10342
SWIDTH 960 0
DWIDTH 24 0
BBX 24 24 0 -2
BITMAP
002000
001800
000C00
100C0C
1FFFFE
180000
181D0C
1971FE
19C18C
199D8C
19998C
19998C
19998C
19998C
19998C
19F98C
37B1FC
333198
303180
303180
306180
60C180
618180
000000
ENDCHAR

STARTCHAR cns3_2867
ENCODING 10343
SWIDTH 960 0
DWIDTH 24 0
BBX 24 24 0 -2
BITMAP
003000
001C00
000E00
10060C
1FFFFE
180000
180700
180600
180600
1A060C
1BFFFE
1B060C
1B060C
1B060C
1B060C
1BFFFC
1B060C
33060C
33060C
33060C
33FFFC
63000C
63000C
000000
ENDCHAR

STARTCHAR cns3_2868
ENCODING 10344
SWIDTH 960 0
DWIDTH 24 0
BBX 24 24 0 -2
BITMAP
003000
001800
001C00
100C0C
1FFFFE
180000
181C00
181860
183FF0
187060
18D8C0
198D80
1B0700
180780
181CE0
18707C
1B8620
300300
300180
300000
300700
600380
6001C0
0000C0
ENDCHAR

STARTCHAR cns3_2869
ENCODING 10345
SWIDTH 960 0
DWIDTH 24 0
BBX 24 24 0 -2
BITMAP
000000
0181C0
3FC180
018180
018180
03218C
033FFE
06318C
0DB18C
1FF18C
19B18C
01BFFC
01B18C
61B18C
33318C
1B318C
0F318C
063FFC
0F300C
0D8000
18F01C
301FFE
600000
000000
ENDCHAR

STARTCHAR cns3_286A
ENCODING 10346
SWIDTH 960 0
DWIDTH 24 0
BBX 24 24 0 -2
BITMAP
000000
03400C
7FFFFE
03600C
03600C
06686C
066FFC
0C6C6C
1B6C6C
3FEC6C
336C6C
036C6C
036FEC
636C6C
366C6C
3E600C
1E600C
0C600C
0E607C
1B6018
31F000
603FFE
000000
000000
ENDCHAR

STARTCHAR cns3_286B
ENCODING 10347
SWIDTH 960 0
DWIDTH 24 0
BBX 24 24 0 -2
BITMAP
000000
030380
7F8300
030300
032618
063FFC
063018
0C3018
1B3018
3FB018
333018
033FF8
033018
633018
363018
1E3018
1E3018
0C3FF8
0E3018
1B8000
30F00E
603FFE
000000
000000
ENDCHAR

STARTCHAR cns3_286C
ENCODING 10348
SWIDTH 960 0
DWIDTH 24 0
BBX 24 24 0 -2
BITMAP
000000
0EE3B8
0CC330
0CC330
0CC330
0CC330
0CF33C
3FFFFE
0CC330
0CC330
0CC330
0CC330
0CC330
0CF33C
7FFFFE
0CC330
0CC330
0CC630
18C630
18CC30
30CC30
30D830
60F030
000000
ENDCHAR

STARTCHAR cns3_286D
ENCODING 10349
SWIDTH 960 0
DWIDTH 24 0
BBX 24 24 0 -2
BITMAP
000000
001C00
001860
0FFFF0
001800
00180C
3FFFFE
007000
006180
00C0C0
0187F0
1FFC38
0CE1D8
00C180
00C18C
7FFFFE
00C180
00C180
018180
018180
030180
060180
1C0180
000000
ENDCHAR

STARTCHAR cns3_286E
ENCODING 10350
SWIDTH 960 0
DWIDTH 24 0
BBX 24 24 0 -2
BITMAP
000000
03000C
7FFFFE
031800
031800
031800
231800
3F1818
331FFC
301818
601818
631818
7F9818
631818
031818
031FF8
031818
031800
031800
061800
061800
7E180C
1CFFFE
000000
ENDCHAR

STARTCHAR cns3_286F
ENCODING 10351
SWIDTH 960 0
DWIDTH 24 0
BBX 24 24 0 -2
BITMAP
000000
031C00
7F9800
031818
033FFC
033000
236380
3F6300
33C300
303B18
30337C
303798
637F18
7FF318
633318
033318
033338
033370
033304
073304
063006
7E380E
1C1FFC
000000
ENDCHAR

STARTCHAR cns3_2870
ENCODING 10352
SWIDTH 960 0
DWIDTH 24 0
BBX 24 24 0 -2
BITMAP
000000
030E00
7F8C00
031800
03180C
033FFE
433180
7F6180
636180
600180
600180
601D80
6319B0
7F99B0
633198
033198
03318C
03618E
030186
030186
060180
7E1F80
1C0300
000000
ENDCHAR

STARTCHAR cns3_2871
ENCODING 10353
SWIDTH 960 0
DWIDTH 24 0
BBX 24 24 0 -2
BITMAP
000000
000030
07FFF8
000030
000030
0FFFF0
000030
00003C
7FFFFE
001800
001800
001818
0C183C
0718E0
039980
001800
007B00
01D9C0
0F1870
3C1838
10181C
01F80C
007000
000000
ENDCHAR

STARTCHAR cns3_2872
ENCODING 10354
SWIDTH 960 0
DWIDTH 24 0
BBX 24 24 0 -2
BITMAP
000000
038018
030018
030030
030060
0600C0
063180
0C1B00
0C1818
19FC18
7F0C30
600030
203060
3FF8C0
303380
30300C
30300C
303018
303018
303030
303060
3FF3C0
303000
000000
ENDCHAR

STARTCHAR cns3_2873
ENCODING 10355
SWIDTH 960 0
DWIDTH 24 0
BBX 24 24 0 -2
BITMAP
000000
0E381C
0C3018
0C3018
0C3030
0C3C60
3FFEC0
0C3000
0F300E
0DB00C
0DF018
0CF030
0C3060
0C36C0
7FFF0E
0C300C
18300C
183018
183018
303030
303060
6030C0
603380
000000
ENDCHAR

STARTCHAR cns3_2874
ENCODING 10356
SWIDTH 960 0
DWIDTH 24 0
BBX 24 24 0 -2
BITMAP
000000
070380
060300
060300
0C0300
18830C
37FFFE
06C30C
06C30C
0CC30C
0CC30C
1CC30C
1CC30C
3CFFFC
6CC30C
0CC30C
0CC30C
0CC30C
0CC30C
0CC30C
0CC30C
0CFFFC
0CC00C
000000
ENDCHAR

STARTCHAR cns3_2875
ENCODING 10357
SWIDTH 960 0
DWIDTH 24 0
BBX 24 24 0 -2
BITMAP
000000
070018
067FFC
0C1818
0C1830
180C30
338C60
0306C0
060380
0607C0
0C0EF0
0C387E
1CE3B8
3C0300
6C0300
0C0318
0C7FFC
0C0300
0C0300
0C0300
0C0300
0C030C
0CFFFE
000000
ENDCHAR

STARTCHAR cns3_2876
ENCODING 10358
SWIDTH 960 0
DWIDTH 24 0
BBX 24 24 0 -2
BITMAP
000000
0381C0
030180
060F80
0C0D80
180D80
33998C
031FFE
063180
063180
0C6180
1C6180
3C0180
6C0198
0C1FFC
0C0180
0C0180
0C0180
0C0180
0C0180
0C018C
0CFFFE
0C0000
000000
ENDCHAR

STARTCHAR cns3_2877
ENCODING 10359
SWIDTH 960 0
DWIDTH 24 0
BBX 24 24 0 -2
BITMAP
000000
0E01C0
0C0180
0C0180
0C018C
0F7FFE
1D8380
3DC300
3CC300
7C0630
6C0638
0C3C30
0C1C60
0C0E60
0C06C0
0C00C0
0C0180
0C01B0
0C0318
0C0618
0C0C7C
0C7F8C
0C6000
000000
ENDCHAR

STARTCHAR cns3_2878
ENCODING 10360
SWIDTH 960 0
DWIDTH 24 0
BBX 24 24 0 -2
BITMAP
000000
0E000C
0C7FFE
0C1800
0C1800
0F1800
1D9800
3DD80C
3CDFFE
6C180C
6C180C
0C180C
0C180C
0C180C
0C180C
0C1FFC
0C180C
0C1800
0C1800
0C1800
0C1800
0C180C
0CFFFE
000000
ENDCHAR

STARTCHAR cns3_2879
ENCODING 10361
SWIDTH 960 0
DWIDTH 24 0
BBX 24 24 0 -2
BITMAP
000000
0E1C38
0C1830
0C1830
0C1830
1F183C
1DFFFE
3DD830
3CD830
7C1830
6C1830
0C1830
0C1830
0C1FF0
0C1830
0C1830
0C1830
0C1830
0C1830
0C1830
0C1FF0
0C1830
0C1830
000000
ENDCHAR

STARTCHAR cns3_287A
ENCODING 10362
SWIDTH 960 0
DWIDTH 24 0
BBX 24 24 0 -2
BITMAP
000000
0E01C0
0C0180
0C218C
0C3FFE
0F318C
1DB18C
3DB198
3C3180
7C3180
6C3198
0C3FFC
0C3C18
0C3C18
0C3630
0C3630
0C6360
0C61E0
0C60C0
0CC1E0
0CC378
0D8E1E
0F380C
000000
ENDCHAR

STARTCHAR cns3_287B
ENCODING 10363
SWIDTH 960 0
DWIDTH 24 0
BBX 24 24 0 -2
BITMAP
000000
000060
0FFFF0
001C00
001800
001800
00300C
3FFFFE
006600
00C300
018180
0300C0
060070
0C183E
19CC18
718E00
198630
198058
19804C
318046
318066
61C0E0
00FFC0
000000
ENDCHAR

STARTCHAR cns3_287C
ENCODING 10364
SWIDTH 960 0
DWIDTH 24 0
BBX 24 24 0 -2
BITMAP
000000
000030
1FFFF8
000E00
038C00
030C0C
07FFFE
061B00
0C3300
006304
00C304
038306
0E038E
3801FC
001800
000C00
01CE30
1D8618
19804C
19804E
318066
61C0E0
00FFC0
000000
ENDCHAR

STARTCHAR cns3_287D
ENCODING 10365
SWIDTH 960 0
DWIDTH 24 0
BBX 24 24 0 -2
BITMAP
000000
000300
1FFF80
01C300
018630
01FFF8
01E030
01B060
0318C0
030D80
060700
060F80
0C38F0
18E03E
371800
000C30
1DC718
19830C
19804E
318046
318060
61C0E0
00FFC0
000000
ENDCHAR

STARTCHAR cns3_287E
ENCODING 10366
SWIDTH 960 0
DWIDTH 24 0
BBX 24 24 0 -2
BITMAP
000000
000180
001FC0
01C180
018080
0300C0
067060
0C6038
18C31E
30C1C0
6180E0
0303F0
0FFC38
1E0018
001800
000C00
01CE30
1D8618
19804C
19804E
318066
61C0E0
00FFC0
000000
ENDCHAR

STARTCHAR cns3_2921
ENCODING 10529
SWIDTH 960 0
DWIDTH 24 0
BBX 24 24 0 -2
BITMAP
000000
0E01C0
0C0180
0C0180
0C0198
0F3FFC
1D8180
3DC180
3CC180
7C0180
6C018C
0C7FFE
0C0380
0C07C0
0C07E0
0C0DE0
0C19B0
0C19B8
0C319C
0C618E
0CC184
0D8180
0C0180
000000
ENDCHAR

STARTCHAR cns3_2922
ENCODING 10530
SWIDTH 960 0
DWIDTH 24 0
BBX 24 24 0 -2
BITMAP
000000
0E03B8
0C3B30
0C3330
0C3330
0F3330
1DB330
3DB33C
3CFFFE
7C3330
6C3330
0C3330
0C3330
0C3330
0C3330
0C33F0
0C3330
0C3000
0C3000
0C300E
0C3FFE
0C3000
0C3000
000000
ENDCHAR

STARTCHAR cns3_2923
ENCODING 10531
SWIDTH 960 0
DWIDTH 24 0
BBX 24 24 0 -2
BITMAP
000000
0E0380
0C0300
0C0300
0C0318
0EFFFC
1F0700
3D8780
3D8780
7C0FC0
6C0FC0
0C1B60
0C1B60
0C3330
0C3330
0C63D8
0CDFFE
0D8308
0C0300
0C0300
0C0300
0C0300
0C0300
000000
ENDCHAR

STARTCHAR cns3_2924
ENCODING 10532
SWIDTH 960 0
DWIDTH 24 0
BBX 24 24 0 -2
BITMAP
000000
0E0380
0C0300
0C0300
0C030C
0F7FFE
1D8600
3DC600
3CC600
7C0600
6C0C00
0C0C00
0C0C0C
0C1FFE
0C1C0C
0C3C0C
0C6C0C
0C0C0C
0C0C0C
0C0C0C
0C0FFC
0C0C0C
0C0C0C
000000
ENDCHAR

STARTCHAR cns3_2925
ENCODING 10533
SWIDTH 960 0
DWIDTH 24 0
BBX 24 24 0 -2
BITMAP
000000
0E0380
0C0300
0C0300
0C0318
0F7FFC
7F8300
0C0300
0C0300
0C0300
0C030C
0FFFFE
0E0700
1C0780
7C0F80
2C1FC0
0C1BE0
0C3370
0C6338
0CC31E
0D8308
7C0300
180300
000000
ENDCHAR

STARTCHAR cns3_2926
ENCODING 10534
SWIDTH 960 0
DWIDTH 24 0
BBX 24 24 0 -2
BITMAP
000000
0E000C
0C7FFE
0C0018
0C0018
0D8018
7FD0D8
0C1FF8
0C18D8
0C18D8
0C18D8
0F18D8
0E18D8
1C18D8
7C18D8
2C1FD8
0C18D8
0C18D8
0C0018
0C0018
0C0018
7C01F8
180030
000000
ENDCHAR

STARTCHAR cns3_2927
ENCODING 10535
SWIDTH 960 0
DWIDTH 24 0
BBX 24 24 0 -2
BITMAP
000000
0E01C0
0C0180
0C018C
0C3FFE
0D8180
7FC300
0C0330
0C0618
0C060C
0C0C3E
0F3FE6
0E3666
3C0660
7C0660
6C0660
0C0660
0C0664
0C0664
0C0C64
0C0C66
7C1866
18303C
000000
ENDCHAR

STARTCHAR cns3_2928
ENCODING 10536
SWIDTH 960 0
DWIDTH 24 0
BBX 24 24 0 -2
BITMAP
000000
0E000C
0C7FFE
0C01C0
0C0180
0D8180
7FC300
0C0300
0C0700
0C0760
0C0F30
0F1B18
0E330C
1C6306
7CC306
2C0300
0C0300
0C0300
0C0300
0C0300
0C030C
7CFFFE
180000
000000
ENDCHAR

STARTCHAR cns3_2929
ENCODING 10537
SWIDTH 960 0
DWIDTH 24 0
BBX 24 24 0 -2
BITMAP
000000
0E0380
0C0300
0C0300
0C0318
0D83FC
7FC300
0C0300
0C030C
0CFFFE
0C0300
0F0300
0E0300
1C03C0
7C0360
2C0330
0C0318
0C0318
0C0300
0C0300
0C0300
7C0300
180300
000000
ENDCHAR

STARTCHAR cns3_292A
ENCODING 10538
SWIDTH 960 0
DWIDTH 24 0
BBX 24 24 0 -2
BITMAP
000000
0E100C
0C1FFE
0C180C
0C180C
0D980C
7FD80C
0C180C
0C180C
0C180C
0C180C
0F180C
0E1FFC
1C180C
7C1800
2C0760
0C0630
0C0618
0C0C0C
0C180E
0C3006
7C6006
18C000
000000
ENDCHAR

STARTCHAR cns3_292B
ENCODING 10539
SWIDTH 960 0
DWIDTH 24 0
BBX 24 24 0 -2
BITMAP
000000
0E0000
0C000C
0CFFFE
0C3800
0F3000
7FB000
0C3060
0C3FF0
0C3060
0C3060
0F3060
0E3C60
1C6660
7C6360
2C6360
0C6060
0C6064
0C61E4
0C6F66
0C7866
7DE03C
188000
000000
ENDCHAR

STARTCHAR cns3_292C
ENCODING 10540
SWIDTH 960 0
DWIDTH 24 0
BBX 24 24 0 -2
BITMAP
000000
0E000C
0C4FFE
0C78CC
0C60CC
0F60CC
7FE7CC
0C66CC
0C66CC
0C66CC
0C66CC
0F66CC
0E66CC
1C66CC
7C66CC
2C7CCC
0C7CCC
0DCCCC
0C98FC
0C18D8
0C30C0
7C60C0
18C0C0
000000
ENDCHAR

STARTCHAR cns3_292D
ENCODING 10541
SWIDTH 960 0
DWIDTH 24 0
BBX 24 24 0 -2
BITMAP
000000
0E0000
0C003C
0C21F0
0C3F30
0F3330
7FB330
0C3330
0C3330
0C3330
0C3330
0F3330
0E3330
1C3330
7C6330
2C6618
0C6618
0CC658
0CCC6C
0CD9EC
0D9F2C
7DB806
1B1000
000000
ENDCHAR

STARTCHAR cns3_292E
ENCODING 10542
SWIDTH 960 0
DWIDTH 24 0
BBX 24 24 0 -2
BITMAP
000000
0E01C0
0C0180
0C0180
0C218C
0F3FFE
7FB00C
0C600C
0C6E18
0C0C00
0C0C30
0F0C78
0E0CE0
1C0F80
7C0C00
2C0C00
0C0C00
0C0C04
0C0C04
0C0C06
0C0E0E
7C07FC
180000
000000
ENDCHAR

STARTCHAR cns3_292F
ENCODING 10543
SWIDTH 960 0
DWIDTH 24 0
BBX 24 24 0 -2
BITMAP
000000
0E00E0
0C40CC
0C7FFE
0C6000
0F6000
7FE1C0
0C6180
0C6180
0C6180
0C6180
0F6300
0E6300
1C6300
7C6360
2C6630
0C6618
0CC618
0CCC0C
0CD9FE
0DBF0E
7D9006
1B0000
000000
ENDCHAR

STARTCHAR cns3_2930
ENCODING 10544
SWIDTH 960 0
DWIDTH 24 0
BBX 24 24 0 -2
BITMAP
000000
0E0018
0C7FFC
0C0300
0C0300
0D0330
7FBFF8
0C0300
0C0300
0C0300
0C0330
0F3FF8
0E0300
1C0300
7C030C
2DFFFE
0C0300
0C0300
0C0300
0C0300
0C0300
7C0300
180300
000000
ENDCHAR

STARTCHAR cns3_2931
ENCODING 10545
SWIDTH 960 0
DWIDTH 24 0
BBX 24 24 0 -2
BITMAP
000000
0E000C
0C7FFE
0C0180
0C0180
0F0180
7FC18C
0C7FFE
0C618C
0C618C
0C638C
0F638C
0E66CC
1C666C
7C6C7C
2C783C
0C700C
0C600C
0C600C
0C600C
0C600C
7C60FC
186038
000000
ENDCHAR

STARTCHAR cns3_2932
ENCODING 10546
SWIDTH 960 0
DWIDTH 24 0
BBX 24 24 0 -2
BITMAP
000000
0E3800
0C3000
0C3000
0C308C
0E36FE
7FFFCC
0C36CC
0C36CC
0C36CC
0C36CC
0F36CC
0E36CC
1C36CC
7C66CC
2C66CC
0C66CC
0C66CC
0CC6CC
0CC6CC
0D8EFC
7F7CCC
1818CC
000000
ENDCHAR

STARTCHAR cns3_2933
ENCODING 10547
SWIDTH 960 0
DWIDTH 24 0
BBX 24 24 0 -2
BITMAP
000000
0E2018
0C3FFC
0C3018
0C3018
0F3018
7FB018
0C3018
0C3018
0C3FF8
0C3018
0F3018
0E3018
1C3018
7C3018
2C3018
0C3FF8
0C3018
0C3018
0C0000
0C000C
7DFFFE
180000
000000
ENDCHAR

ENDFONT
